<?xml version="1.0" encoding="UTF-8"?> <svg xmlns="http://www.w3.org/2000/svg" width="964" height="786" viewBox="0 0 964 786" fill="none"><g opacity="0.05"><path d="M360.848 61.9967C278.728 -21.1075 144.952 -20.4426 62.1698 62.6615C-20.6125 145.766 -20.6125 280.062 61.5075 362.501L480.717 783.341L778.733 480.842L360.848 61.9967Z" fill="#0D76BD" style="fill:#0D76BD;fill:color(display-p3 0.0510 0.4627 0.7412);fill-opacity:1;"></path><path d="M602.573 64.656C685.355 -18.4481 819.131 -18.4481 901.913 64.656C984.696 147.76 984.696 282.056 901.913 365.161L483.366 786L184.025 485.495L602.573 64.656Z" fill="#16ACE3" style="fill:#16ACE3;fill:color(display-p3 0.0863 0.6745 0.8902);fill-opacity:1;"></path><path d="M511.843 713.533C499.26 726.165 477.406 725.5 463.498 711.539L258.86 506.105C244.953 492.144 244.291 470.204 256.874 457.572L444.293 269.425C456.876 256.793 478.73 257.458 492.638 271.419L696.613 476.188C710.521 490.149 711.183 512.089 698.6 524.721L511.843 713.533Z" fill="#99DAEE" style="fill:#99DAEE;fill:color(display-p3 0.6000 0.8549 0.9333);fill-opacity:1;"></path><path d="M844.297 120.502C838.337 126.486 829.065 126.486 823.105 120.502C817.144 114.519 817.144 105.211 823.105 99.2273C829.065 93.2438 838.337 93.2438 844.297 99.2273C850.257 105.211 850.257 114.519 844.297 120.502Z" fill="#99DAEE" style="fill:#99DAEE;fill:color(display-p3 0.6000 0.8549 0.9333);fill-opacity:1;"></path><path d="M760.19 131.139C754.23 137.123 744.958 137.123 738.998 131.139C733.037 125.156 733.037 115.848 738.998 109.865C744.958 103.881 754.23 103.881 760.19 109.865C766.15 115.848 766.15 125.156 760.19 131.139Z" fill="#99DAEE" style="fill:#99DAEE;fill:color(display-p3 0.6000 0.8549 0.9333);fill-opacity:1;"></path><path d="M833.701 204.936C827.74 210.919 818.469 210.919 812.508 204.936C806.548 198.952 806.548 189.645 812.508 183.661C818.469 177.678 827.74 177.678 833.701 183.661C839.661 188.98 839.661 198.952 833.701 204.936Z" fill="#99DAEE" style="fill:#99DAEE;fill:color(display-p3 0.6000 0.8549 0.9333);fill-opacity:1;"></path><path d="M906.549 278.067C900.589 284.051 891.317 284.051 885.357 278.067C879.397 272.084 879.397 262.776 885.357 256.793C891.317 250.809 900.589 250.809 906.549 256.793C912.509 262.776 912.509 272.084 906.549 278.067Z" fill="#99DAEE" style="fill:#99DAEE;fill:color(display-p3 0.6000 0.8549 0.9333);fill-opacity:1;"></path><path d="M676.083 142.441C670.123 148.425 660.851 148.425 654.891 142.441C648.931 136.458 648.931 127.15 654.891 121.167C660.851 115.183 670.123 115.183 676.083 121.167C682.044 127.15 682.044 136.458 676.083 142.441Z" fill="#99DAEE" style="fill:#99DAEE;fill:color(display-p3 0.6000 0.8549 0.9333);fill-opacity:1;"></path><path d="M748.932 216.238C742.971 222.222 733.7 222.222 727.739 216.238C721.779 210.255 721.779 200.947 727.739 194.963C733.7 188.98 742.971 188.98 748.932 194.963C754.892 200.282 754.892 210.255 748.932 216.238Z" fill="#99DAEE" style="fill:#99DAEE;fill:color(display-p3 0.6000 0.8549 0.9333);fill-opacity:1;"></path><path d="M822.442 289.37C816.482 295.353 807.21 295.353 801.25 289.37C795.29 283.386 795.29 274.078 801.25 268.095C807.21 262.111 816.482 262.111 822.442 268.095C828.403 274.078 828.403 283.386 822.442 289.37Z" fill="#99DAEE" style="fill:#99DAEE;fill:color(display-p3 0.6000 0.8549 0.9333);fill-opacity:1;"></path><path d="M668.136 223.551C662.176 229.535 652.904 229.535 646.944 223.551C640.984 217.568 640.984 208.26 646.944 202.276C652.904 196.293 662.176 196.293 668.136 202.276C674.096 208.26 674.096 218.232 668.136 223.551Z" fill="#99DAEE" style="fill:#99DAEE;fill:color(display-p3 0.6000 0.8549 0.9333);fill-opacity:1;"></path><path d="M740.985 297.348C735.024 303.331 725.753 303.331 719.792 297.348C713.832 291.364 713.832 282.056 719.792 276.073C725.753 270.089 735.024 270.089 740.985 276.073C746.945 281.392 746.945 291.364 740.985 297.348Z" fill="#99DAEE" style="fill:#99DAEE;fill:color(display-p3 0.6000 0.8549 0.9333);fill-opacity:1;"></path><path d="M814.495 370.479C808.535 376.463 799.263 376.463 793.303 370.479C787.343 364.496 787.343 355.188 793.303 349.205C799.263 343.221 808.535 343.221 814.495 349.205C820.456 355.188 820.456 364.496 814.495 370.479Z" fill="#99DAEE" style="fill:#99DAEE;fill:color(display-p3 0.6000 0.8549 0.9333);fill-opacity:1;"></path><path d="M584.029 234.853C578.069 240.837 568.797 240.837 562.837 234.853C556.877 228.87 556.877 219.562 562.837 213.579C568.797 207.595 578.069 207.595 584.029 213.579C589.99 219.562 589.99 228.87 584.029 234.853Z" fill="#99DAEE" style="fill:#99DAEE;fill:color(display-p3 0.6000 0.8549 0.9333);fill-opacity:1;"></path><path d="M656.878 308.65C650.917 314.633 641.646 314.633 635.685 308.65C629.725 302.666 629.725 293.359 635.685 287.375C641.646 281.392 650.917 281.392 656.878 287.375C662.838 292.694 662.838 302.666 656.878 308.65Z" fill="#99DAEE" style="fill:#99DAEE;fill:color(display-p3 0.6000 0.8549 0.9333);fill-opacity:1;"></path><path d="M730.388 381.781C724.428 387.765 715.156 387.765 709.196 381.781C703.236 375.798 703.236 366.49 709.196 360.507C715.156 354.523 724.428 354.523 730.388 360.507C735.687 366.49 735.687 375.798 730.388 381.781Z" fill="#99DAEE" style="fill:#99DAEE;fill:color(display-p3 0.6000 0.8549 0.9333);fill-opacity:1;"></path><path d="M121.773 104.546C127.733 110.53 137.005 110.53 142.965 104.546C148.926 98.5625 148.926 89.2548 142.965 83.2713C137.005 77.2878 127.733 77.2878 121.773 83.2713C115.813 89.2548 115.813 98.5625 121.773 104.546Z" fill="#6DCEEC" style="fill:#6DCEEC;fill:color(display-p3 0.4275 0.8078 0.9255);fill-opacity:1;"></path><path d="M205.218 115.183C211.178 121.167 220.45 121.167 226.41 115.183C232.37 109.2 232.37 99.8922 226.41 93.9087C220.45 87.9252 211.178 87.9252 205.218 93.9087C199.257 99.8922 199.257 109.2 205.218 115.183Z" fill="#6DCEEC" style="fill:#6DCEEC;fill:color(display-p3 0.4275 0.8078 0.9255);fill-opacity:1;"></path><path d="M132.369 188.315C138.329 194.298 147.601 194.298 153.561 188.315C159.522 182.331 159.522 173.024 153.561 167.04C147.601 161.057 138.329 161.057 132.369 167.04C126.409 173.024 126.409 182.331 132.369 188.315Z" fill="#6DCEEC" style="fill:#6DCEEC;fill:color(display-p3 0.4275 0.8078 0.9255);fill-opacity:1;"></path><path d="M58.8585 262.111C64.8188 268.095 74.0904 268.095 80.0507 262.111C86.0111 256.128 86.0111 246.82 80.0507 240.837C74.0904 234.853 64.8188 234.853 58.8585 240.837C52.8981 246.155 52.8981 256.128 58.8585 262.111Z" fill="#6DCEEC" style="fill:#6DCEEC;fill:color(display-p3 0.4275 0.8078 0.9255);fill-opacity:1;"></path><path d="M289.987 126.486C295.947 132.469 305.219 132.469 311.179 126.486C317.139 120.502 317.139 111.194 311.179 105.211C305.219 99.2274 295.947 99.2274 289.987 105.211C284.026 110.53 284.026 120.502 289.987 126.486Z" fill="#6DCEEC" style="fill:#6DCEEC;fill:color(display-p3 0.4275 0.8078 0.9255);fill-opacity:1;"></path><path d="M216.476 199.617C222.436 205.601 231.708 205.601 237.668 199.617C243.629 193.634 243.629 184.326 237.668 178.342C231.708 172.359 222.436 172.359 216.476 178.342C210.516 184.326 210.516 193.634 216.476 199.617Z" fill="#6DCEEC" style="fill:#6DCEEC;fill:color(display-p3 0.4275 0.8078 0.9255);fill-opacity:1;"></path><path d="M143.628 273.414C149.588 279.397 158.859 279.397 164.82 273.414C170.78 267.43 170.78 258.122 164.82 252.139C158.859 246.155 149.588 246.155 143.628 252.139C137.667 257.458 137.667 267.43 143.628 273.414Z" fill="#6DCEEC" style="fill:#6DCEEC;fill:color(display-p3 0.4275 0.8078 0.9255);fill-opacity:1;"></path><path d="M297.271 207.595C303.232 213.579 312.503 213.579 318.464 207.595C324.424 201.612 324.424 192.304 318.464 186.32C312.503 180.337 303.232 180.337 297.271 186.32C291.311 192.304 291.311 201.612 297.271 207.595Z" fill="#6DCEEC" style="fill:#6DCEEC;fill:color(display-p3 0.4275 0.8078 0.9255);fill-opacity:1;"></path><path d="M224.423 280.727C230.383 286.71 239.655 286.71 245.615 280.727C251.576 274.743 251.576 265.436 245.615 259.452C239.655 253.469 230.383 253.469 224.423 259.452C218.463 265.436 218.463 275.408 224.423 280.727Z" fill="#6DCEEC" style="fill:#6DCEEC;fill:color(display-p3 0.4275 0.8078 0.9255);fill-opacity:1;"></path><path d="M151.575 354.523C157.535 360.507 166.807 360.507 172.767 354.523C178.727 348.54 178.727 339.232 172.767 333.249C166.807 327.265 157.535 327.265 151.575 333.249C145.614 338.567 145.614 348.54 151.575 354.523Z" fill="#6DCEEC" style="fill:#6DCEEC;fill:color(display-p3 0.4275 0.8078 0.9255);fill-opacity:1;"></path><path d="M382.041 218.897C388.001 224.881 397.272 224.881 403.233 218.897C409.193 212.914 409.193 203.606 403.233 197.623C397.272 191.639 388.001 191.639 382.041 197.623C376.08 203.606 376.08 212.914 382.041 218.897Z" fill="#6DCEEC" style="fill:#6DCEEC;fill:color(display-p3 0.4275 0.8078 0.9255);fill-opacity:1;"></path><path d="M308.53 292.029C314.49 298.012 323.762 298.012 329.722 292.029C335.682 286.045 335.682 276.738 329.722 270.754C323.762 264.771 314.49 264.771 308.53 270.754C302.57 276.738 302.57 286.045 308.53 292.029Z" fill="#6DCEEC" style="fill:#6DCEEC;fill:color(display-p3 0.4275 0.8078 0.9255);fill-opacity:1;"></path><path d="M235.681 365.825C241.642 371.809 250.913 371.809 256.874 365.825C262.834 359.842 262.834 350.534 256.874 344.551C250.913 338.567 241.642 338.567 235.681 344.551C229.721 349.869 229.721 359.842 235.681 365.825Z" fill="#6DCEEC" style="fill:#6DCEEC;fill:color(display-p3 0.4275 0.8078 0.9255);fill-opacity:1;"></path><path d="M396.61 464.886C396.61 478.182 385.352 489.484 372.107 489.484C358.862 489.484 347.603 478.182 347.603 464.886C347.603 451.589 358.862 440.287 372.107 440.287C385.352 440.287 396.61 451.589 396.61 464.886Z" fill="#16ACE3" style="fill:#16ACE3;fill:color(display-p3 0.0863 0.6745 0.8902);fill-opacity:1;"></path><path d="M431.048 544.001H313.166C313.166 515.413 339.656 492.809 372.107 492.809C404.557 492.809 431.048 515.413 431.048 544.001Z" fill="#16ACE3" style="fill:#16ACE3;fill:color(display-p3 0.0863 0.6745 0.8902);fill-opacity:1;"></path><path d="M618.467 464.886C618.467 478.182 607.208 489.484 593.963 489.484C580.718 489.484 569.46 478.182 569.46 464.886C569.46 451.589 580.718 440.287 593.963 440.287C607.208 440.287 618.467 450.924 618.467 464.886Z" fill="#16ACE3" style="fill:#16ACE3;fill:color(display-p3 0.0863 0.6745 0.8902);fill-opacity:1;"></path><path d="M652.904 544.001H535.022C535.022 515.413 561.513 492.809 593.963 492.809C626.414 492.809 652.904 515.413 652.904 544.001Z" fill="#16ACE3" style="fill:#16ACE3;fill:color(display-p3 0.0863 0.6745 0.8902);fill-opacity:1;"></path><path d="M510.519 581.231C510.519 594.528 499.26 605.83 486.015 605.83C472.77 605.83 461.512 594.528 461.512 581.231C461.512 567.935 472.77 556.633 486.015 556.633C499.923 556.633 510.519 567.935 510.519 581.231Z" fill="#16ACE3" style="fill:#16ACE3;fill:color(display-p3 0.0863 0.6745 0.8902);fill-opacity:1;"></path><path d="M544.956 660.347H427.736C427.736 631.759 454.227 609.154 486.677 609.154C519.128 609.154 544.956 631.759 544.956 660.347Z" fill="#16ACE3" style="fill:#16ACE3;fill:color(display-p3 0.0863 0.6745 0.8902);fill-opacity:1;"></path><path d="M499.26 321.282C499.26 337.902 486.015 351.199 469.459 351.199C452.902 351.199 439.657 337.902 439.657 321.282C439.657 304.661 452.902 291.364 469.459 291.364C486.015 291.364 499.26 304.661 499.26 321.282Z" fill="#16ACE3" style="fill:#16ACE3;fill:color(display-p3 0.0863 0.6745 0.8902);fill-opacity:1;"></path><path d="M541.645 419.012H397.272C397.272 384.441 429.723 355.853 469.459 355.853C509.194 355.853 541.645 383.776 541.645 419.012Z" fill="#16ACE3" style="fill:#16ACE3;fill:color(display-p3 0.0863 0.6745 0.8902);fill-opacity:1;"></path></g></svg> 