<?xml version="1.0" encoding="UTF-8"?> <svg xmlns="http://www.w3.org/2000/svg" width="36" height="36" viewBox="0 0 36 36" fill="none"><path d="M35.0425 30.8312L32.1976 27.9895C31.6038 27.3964 31.4791 26.4783 31.9053 25.7557C33.8511 22.4567 34.7294 18.46 34.0274 14.2288C32.8072 6.87528 26.734 1.06205 19.3294 0.137376C8.16658 -1.25659 -1.25798 8.15759 0.137528 19.3082C1.06322 26.7046 6.88286 32.7711 14.2445 33.9899C18.4803 34.6911 22.4814 33.8138 25.7841 31.8702C26.5076 31.4444 27.4265 31.569 28.0203 32.1622L30.997 35.1355C31.5734 35.7119 32.3298 36 33.0856 36C33.9132 36 34.7415 35.6545 35.3335 34.9634C36.3572 33.7682 36.1559 31.9434 35.0425 30.8312ZM6.06576 19.0168C4.79752 11.3546 11.3671 4.79236 19.0377 6.0592C23.6849 6.82665 27.4329 10.5707 28.2013 15.2128C29.4696 22.875 22.9 29.4373 15.2294 28.1704C10.5823 27.4028 6.83417 23.6588 6.06576 19.0168Z" fill="#0D76BD" style="fill:#0D76BD;fill:color(display-p3 0.0510 0.4627 0.7412);fill-opacity:1;"></path></svg> 