<?xml version="1.0" encoding="UTF-8"?> <svg xmlns="http://www.w3.org/2000/svg" width="55" height="47" viewBox="0 0 55 47" fill="none"><path d="M19.0383 21.3638H11.6344C10.7529 21.3638 10.0035 21.0524 9.38649 20.4292C8.76979 19.806 8.46103 19.0495 8.46103 18.159V17.0913C8.46103 14.7323 9.28751 12.7185 10.9404 11.0492C12.5931 9.38057 14.5875 8.54589 16.9231 8.54589H19.0383C19.6112 8.54589 20.1068 8.33439 20.5256 7.91173C20.9442 7.48883 21.1536 6.98831 21.1536 6.40968V2.13656C21.1536 1.55805 20.9441 1.05706 20.5256 0.634164C20.1069 0.211856 19.6113 0 19.0383 0H16.9231C14.6312 0 12.4447 0.45107 10.3621 1.35192C8.27974 2.25336 6.47859 3.47188 4.95795 5.0076C3.43744 6.54262 2.23123 8.36174 1.33876 10.465C0.446292 12.568 0 14.7768 0 17.0912V40.5907C0 42.3719 0.616705 43.8844 1.8507 45.1311C3.0848 46.3771 4.58356 47 6.34627 47H19.0391C20.8017 47 22.3 46.3771 23.5343 45.1311C24.768 43.8844 25.3851 42.3719 25.3851 40.5907V27.7731C25.3851 25.9922 24.768 24.4797 23.5334 23.2329C22.2998 21.987 20.8009 21.3638 19.0383 21.3638Z" fill="#0091D1" style="fill:#0091D1;fill:color(display-p3 0.0000 0.5686 0.8196);fill-opacity:1;"></path><path d="M53.1502 23.2329C51.9166 21.987 50.4182 21.3638 48.6551 21.3638H41.2513C40.3703 21.3638 39.6202 21.0524 39.0042 20.4292C38.3869 19.806 38.0788 19.0495 38.0788 18.159V17.0913C38.0788 14.7323 38.9052 12.7185 40.5573 11.0492C42.2094 9.38057 44.2037 8.54589 46.5405 8.54589H48.6552C49.2282 8.54589 49.7241 8.33439 50.1427 7.91173C50.5609 7.48883 50.771 6.98831 50.771 6.40968V2.13656C50.771 1.55805 50.561 1.05706 50.1427 0.634164C49.7243 0.211856 49.2283 0 48.6552 0H46.5405C44.2473 0 42.0612 0.45107 39.9781 1.35192C37.8961 2.25336 36.0955 3.47188 34.5749 5.0076C33.0542 6.54262 31.8474 8.36174 30.9553 10.465C30.0631 12.568 29.6162 14.7768 29.6162 17.0912V40.5907C29.6162 42.3719 30.2335 43.8844 31.4671 45.1311C32.7009 46.3771 34.1993 47 35.9622 47H48.6544C50.4175 47 51.9158 46.3771 53.1494 45.1311C54.384 43.8844 55 42.3719 55 40.5907V27.7731C55.0001 25.9921 54.384 24.4797 53.1502 23.2329Z" fill="#0091D1" style="fill:#0091D1;fill:color(display-p3 0.0000 0.5686 0.8196);fill-opacity:1;"></path></svg> 