<?xml version="1.0" encoding="UTF-8"?> <svg xmlns="http://www.w3.org/2000/svg" width="182" height="58" viewBox="0 0 182 58" fill="none"><path d="M26.3401 4.5514C20.3458 -1.54957 10.5808 -1.50077 4.53808 4.60021C-1.50461 10.7012 -1.50461 20.5604 4.48974 26.6125L35.09 57.5078L56.8437 35.3003L26.3401 4.5514Z" fill="#0D76BD" style="fill:#0D76BD;fill:color(display-p3 0.0510 0.4627 0.7412);fill-opacity:1;"></path><path d="M43.9848 4.74663C50.0275 -1.35434 59.7925 -1.35434 65.8352 4.74663C71.8779 10.8476 71.8779 20.7068 65.8352 26.8077L35.2833 57.7031L13.4329 35.642L43.9848 4.74663Z" fill="#16ACE3" style="fill:#16ACE3;fill:color(display-p3 0.0863 0.6745 0.8902);fill-opacity:1;"></path><path d="M37.362 52.383C36.4435 53.3104 34.8483 53.2616 33.8331 52.2366L18.8955 37.155C17.8804 36.13 17.832 34.5194 18.7505 33.592L32.4312 19.7794C33.3497 18.8521 34.9449 18.9009 35.9601 19.9258L50.8493 34.9586C51.8645 35.9836 51.9128 37.5943 50.9943 38.5216L37.362 52.383Z" fill="#99DAEE" style="fill:#99DAEE;fill:color(display-p3 0.6000 0.8549 0.9333);fill-opacity:1;"></path><path d="M61.6295 8.84648C61.1944 9.28575 60.5176 9.28575 60.0825 8.84648C59.6475 8.40721 59.6475 7.7239 60.0825 7.28463C60.5176 6.84536 61.1944 6.84536 61.6295 7.28463C62.0646 7.7239 62.0646 8.40721 61.6295 8.84648Z" fill="#99DAEE" style="fill:#99DAEE;fill:color(display-p3 0.6000 0.8549 0.9333);fill-opacity:1;"></path><path d="M55.4901 9.62741C55.055 10.0667 54.3782 10.0667 53.9432 9.62741C53.5081 9.18814 53.5081 8.50483 53.9432 8.06556C54.3782 7.62629 55.055 7.62629 55.4901 8.06556C55.9252 8.50483 55.9252 9.18814 55.4901 9.62741Z" fill="#99DAEE" style="fill:#99DAEE;fill:color(display-p3 0.6000 0.8549 0.9333);fill-opacity:1;"></path><path d="M60.856 15.0451C60.4209 15.4843 59.7442 15.4843 59.3091 15.0451C58.874 14.6058 58.874 13.9225 59.3091 13.4832C59.7442 13.044 60.4209 13.044 60.856 13.4832C61.2911 13.8737 61.2911 14.6058 60.856 15.0451Z" fill="#99DAEE" style="fill:#99DAEE;fill:color(display-p3 0.6000 0.8549 0.9333);fill-opacity:1;"></path><path d="M66.1736 20.4139C65.7385 20.8532 65.0617 20.8532 64.6267 20.4139C64.1916 19.9747 64.1916 19.2913 64.6267 18.8521C65.0617 18.4128 65.7385 18.4128 66.1736 18.8521C66.6087 19.2913 66.6087 19.9747 66.1736 20.4139Z" fill="#99DAEE" style="fill:#99DAEE;fill:color(display-p3 0.6000 0.8549 0.9333);fill-opacity:1;"></path><path d="M49.3507 10.4571C48.9156 10.8964 48.2389 10.8964 47.8038 10.4571C47.3687 10.0179 47.3687 9.33456 47.8038 8.89529C48.2389 8.45602 48.9156 8.45602 49.3507 8.89529C49.7858 9.33456 49.7858 10.0179 49.3507 10.4571Z" fill="#99DAEE" style="fill:#99DAEE;fill:color(display-p3 0.6000 0.8549 0.9333);fill-opacity:1;"></path><path d="M54.6683 15.8748C54.2332 16.3141 53.5564 16.3141 53.1214 15.8748C52.6863 15.4355 52.6863 14.7522 53.1214 14.313C53.5564 13.8737 54.2332 13.8737 54.6683 14.313C55.1034 14.7034 55.1034 15.4355 54.6683 15.8748Z" fill="#99DAEE" style="fill:#99DAEE;fill:color(display-p3 0.6000 0.8549 0.9333);fill-opacity:1;"></path><path d="M60.0342 21.2437C59.5991 21.6829 58.9223 21.6829 58.4873 21.2437C58.0522 20.8044 58.0522 20.1211 58.4873 19.6818C58.9223 19.2425 59.5991 19.2425 60.0342 19.6818C60.4693 20.1211 60.4693 20.8044 60.0342 21.2437Z" fill="#99DAEE" style="fill:#99DAEE;fill:color(display-p3 0.6000 0.8549 0.9333);fill-opacity:1;"></path><path d="M48.7706 16.4117C48.3355 16.851 47.6588 16.851 47.2237 16.4117C46.7886 15.9724 46.7886 15.2891 47.2237 14.8498C47.6588 14.4106 48.3355 14.4106 48.7706 14.8498C49.2057 15.2891 49.2057 16.0212 48.7706 16.4117Z" fill="#99DAEE" style="fill:#99DAEE;fill:color(display-p3 0.6000 0.8549 0.9333);fill-opacity:1;"></path><path d="M54.0882 21.8294C53.6531 22.2686 52.9763 22.2686 52.5413 21.8294C52.1062 21.3901 52.1062 20.7068 52.5413 20.2675C52.9763 19.8282 53.6531 19.8282 54.0882 20.2675C54.5233 20.658 54.5233 21.3901 54.0882 21.8294Z" fill="#99DAEE" style="fill:#99DAEE;fill:color(display-p3 0.6000 0.8549 0.9333);fill-opacity:1;"></path><path d="M59.4541 27.1982C59.019 27.6375 58.3423 27.6375 57.9072 27.1982C57.4721 26.7589 57.4721 26.0756 57.9072 25.6364C58.3423 25.1971 59.019 25.1971 59.4541 25.6364C59.8892 26.0756 59.8892 26.7589 59.4541 27.1982Z" fill="#99DAEE" style="fill:#99DAEE;fill:color(display-p3 0.6000 0.8549 0.9333);fill-opacity:1;"></path><path d="M42.6312 17.2414C42.1962 17.6807 41.5194 17.6807 41.0843 17.2414C40.6492 16.8022 40.6492 16.1188 41.0843 15.6796C41.5194 15.2403 42.1962 15.2403 42.6312 15.6796C43.0663 16.1188 43.0663 16.8022 42.6312 17.2414Z" fill="#99DAEE" style="fill:#99DAEE;fill:color(display-p3 0.6000 0.8549 0.9333);fill-opacity:1;"></path><path d="M47.9488 22.6591C47.5137 23.0984 46.837 23.0984 46.4019 22.6591C45.9668 22.2198 45.9668 21.5365 46.4019 21.0972C46.837 20.658 47.5137 20.658 47.9488 21.0972C48.3839 21.4877 48.3839 22.2198 47.9488 22.6591Z" fill="#99DAEE" style="fill:#99DAEE;fill:color(display-p3 0.6000 0.8549 0.9333);fill-opacity:1;"></path><path d="M53.3147 28.0279C52.8797 28.4672 52.2029 28.4672 51.7678 28.0279C51.3327 27.5887 51.3327 26.9054 51.7678 26.4661C52.2029 26.0268 52.8797 26.0268 53.3147 26.4661C53.7015 26.9054 53.7015 27.5887 53.3147 28.0279Z" fill="#99DAEE" style="fill:#99DAEE;fill:color(display-p3 0.6000 0.8549 0.9333);fill-opacity:1;"></path><path d="M8.88883 7.6751C9.3239 8.11437 10.0007 8.11437 10.4358 7.6751C10.8708 7.23583 10.8708 6.55252 10.4358 6.11325C10.0007 5.67398 9.3239 5.67398 8.88883 6.11325C8.45375 6.55252 8.45375 7.23583 8.88883 7.6751Z" fill="#6DCEEC" style="fill:#6DCEEC;fill:color(display-p3 0.4275 0.8078 0.9255);fill-opacity:1;"></path><path d="M14.9799 8.45602C15.4149 8.89529 16.0917 8.89529 16.5268 8.45602C16.9619 8.01675 16.9619 7.33344 16.5268 6.89417C16.0917 6.4549 15.4149 6.4549 14.9799 6.89417C14.5448 7.33344 14.5448 8.01675 14.9799 8.45602Z" fill="#6DCEEC" style="fill:#6DCEEC;fill:color(display-p3 0.4275 0.8078 0.9255);fill-opacity:1;"></path><path d="M9.66229 13.8249C10.0974 14.2641 10.7741 14.2641 11.2092 13.8249C11.6443 13.3856 11.6443 12.7023 11.2092 12.263C10.7741 11.8238 10.0974 11.8238 9.66229 12.263C9.22722 12.7023 9.22722 13.3856 9.66229 13.8249Z" fill="#6DCEEC" style="fill:#6DCEEC;fill:color(display-p3 0.4275 0.8078 0.9255);fill-opacity:1;"></path><path d="M4.29638 19.2425C4.73145 19.6818 5.40823 19.6818 5.84331 19.2425C6.27838 18.8033 6.27838 18.12 5.84331 17.6807C5.40823 17.2414 4.73145 17.2414 4.29638 17.6807C3.8613 18.0712 3.8613 18.8033 4.29638 19.2425Z" fill="#6DCEEC" style="fill:#6DCEEC;fill:color(display-p3 0.4275 0.8078 0.9255);fill-opacity:1;"></path><path d="M21.1676 9.28575C21.6027 9.72502 22.2794 9.72502 22.7145 9.28575C23.1496 8.84648 23.1496 8.16317 22.7145 7.7239C22.2794 7.28463 21.6027 7.28463 21.1676 7.7239C20.7325 8.11437 20.7325 8.84648 21.1676 9.28575Z" fill="#6DCEEC" style="fill:#6DCEEC;fill:color(display-p3 0.4275 0.8078 0.9255);fill-opacity:1;"></path><path d="M15.8017 14.6546C16.2367 15.0939 16.9135 15.0939 17.3486 14.6546C17.7837 14.2153 17.7837 13.532 17.3486 13.0928C16.9135 12.6535 16.2367 12.6535 15.8017 13.0928C15.3666 13.532 15.3666 14.2153 15.8017 14.6546Z" fill="#6DCEEC" style="fill:#6DCEEC;fill:color(display-p3 0.4275 0.8078 0.9255);fill-opacity:1;"></path><path d="M10.4841 20.0723C10.9192 20.5115 11.596 20.5115 12.031 20.0723C12.4661 19.633 12.4661 18.9497 12.031 18.5104C11.596 18.0712 10.9192 18.0712 10.4841 18.5104C10.049 18.9009 10.049 19.633 10.4841 20.0723Z" fill="#6DCEEC" style="fill:#6DCEEC;fill:color(display-p3 0.4275 0.8078 0.9255);fill-opacity:1;"></path><path d="M21.6993 15.2403C22.1344 15.6796 22.8112 15.6796 23.2463 15.2403C23.6813 14.801 23.6813 14.1177 23.2463 13.6785C22.8112 13.2392 22.1344 13.2392 21.6993 13.6785C21.2643 14.1177 21.2643 14.801 21.6993 15.2403Z" fill="#6DCEEC" style="fill:#6DCEEC;fill:color(display-p3 0.4275 0.8078 0.9255);fill-opacity:1;"></path><path d="M16.3818 20.6092C16.8168 21.0484 17.4936 21.0484 17.9287 20.6092C18.3638 20.1699 18.3638 19.4866 17.9287 19.0473C17.4936 18.608 16.8168 18.608 16.3818 19.0473C15.9467 19.4866 15.9467 20.2187 16.3818 20.6092Z" fill="#6DCEEC" style="fill:#6DCEEC;fill:color(display-p3 0.4275 0.8078 0.9255);fill-opacity:1;"></path><path d="M11.0642 26.0268C11.4993 26.4661 12.1761 26.4661 12.6111 26.0268C13.0462 25.5876 13.0462 24.9042 12.6111 24.465C12.1761 24.0257 11.4993 24.0257 11.0642 24.465C10.6291 24.8554 10.6291 25.5876 11.0642 26.0268Z" fill="#6DCEEC" style="fill:#6DCEEC;fill:color(display-p3 0.4275 0.8078 0.9255);fill-opacity:1;"></path><path d="M27.8871 16.07C28.3221 16.5093 28.9989 16.5093 29.434 16.07C29.8691 15.6308 29.8691 14.9475 29.434 14.5082C28.9989 14.0689 28.3221 14.0689 27.8871 14.5082C27.452 14.9475 27.452 15.6308 27.8871 16.07Z" fill="#6DCEEC" style="fill:#6DCEEC;fill:color(display-p3 0.4275 0.8078 0.9255);fill-opacity:1;"></path><path d="M22.5211 21.4389C22.9562 21.8782 23.633 21.8782 24.0681 21.4389C24.5032 20.9996 24.5032 20.3163 24.0681 19.877C23.633 19.4378 22.9562 19.4378 22.5211 19.877C22.0861 20.3163 22.0861 20.9996 22.5211 21.4389Z" fill="#6DCEEC" style="fill:#6DCEEC;fill:color(display-p3 0.4275 0.8078 0.9255);fill-opacity:1;"></path><path d="M17.2036 26.8566C17.6386 27.2958 18.3154 27.2958 18.7505 26.8566C19.1856 26.4173 19.1856 25.734 18.7505 25.2947C18.3154 24.8554 17.6386 24.8554 17.2036 25.2947C16.7685 25.6852 16.7685 26.4173 17.2036 26.8566Z" fill="#6DCEEC" style="fill:#6DCEEC;fill:color(display-p3 0.4275 0.8078 0.9255);fill-opacity:1;"></path><path d="M28.9506 34.1289C28.9506 35.1051 28.1288 35.9348 27.1619 35.9348C26.1951 35.9348 25.3733 35.1051 25.3733 34.1289C25.3733 33.1528 26.1951 32.323 27.1619 32.323C28.1288 32.323 28.9506 33.1528 28.9506 34.1289Z" fill="#16ACE3" style="fill:#16ACE3;fill:color(display-p3 0.0863 0.6745 0.8902);fill-opacity:1;"></path><path d="M31.4643 39.937H22.8595C22.8595 37.8383 24.7932 36.1788 27.1619 36.1788C29.5307 36.1788 31.4643 37.8383 31.4643 39.937Z" fill="#16ACE3" style="fill:#16ACE3;fill:color(display-p3 0.0863 0.6745 0.8902);fill-opacity:1;"></path><path d="M45.145 34.1289C45.145 35.1051 44.3232 35.9348 43.3564 35.9348C42.3895 35.9348 41.5677 35.1051 41.5677 34.1289C41.5677 33.1528 42.3895 32.323 43.3564 32.323C44.3232 32.323 45.145 33.104 45.145 34.1289Z" fill="#16ACE3" style="fill:#16ACE3;fill:color(display-p3 0.0863 0.6745 0.8902);fill-opacity:1;"></path><path d="M47.6588 39.937H39.054C39.054 37.8383 40.9876 36.1788 43.3564 36.1788C45.7251 36.1788 47.6588 37.8383 47.6588 39.937Z" fill="#16ACE3" style="fill:#16ACE3;fill:color(display-p3 0.0863 0.6745 0.8902);fill-opacity:1;"></path><path d="M37.2653 42.6703C37.2653 43.6464 36.4435 44.4762 35.4767 44.4762C34.5099 44.4762 33.688 43.6464 33.688 42.6703C33.688 41.6941 34.5099 40.8644 35.4767 40.8644C36.4919 40.8644 37.2653 41.6941 37.2653 42.6703Z" fill="#16ACE3" style="fill:#16ACE3;fill:color(display-p3 0.0863 0.6745 0.8902);fill-opacity:1;"></path><path d="M39.7791 48.4784H31.2226C31.2226 46.3797 33.1563 44.7202 35.525 44.7202C37.8938 44.7202 39.7791 46.3797 39.7791 48.4784Z" fill="#16ACE3" style="fill:#16ACE3;fill:color(display-p3 0.0863 0.6745 0.8902);fill-opacity:1;"></path><path d="M36.4435 23.5864C36.4435 24.8066 35.4767 25.7828 34.2682 25.7828C33.0596 25.7828 32.0928 24.8066 32.0928 23.5864C32.0928 22.3662 33.0596 21.3901 34.2682 21.3901C35.4767 21.3901 36.4435 22.3662 36.4435 23.5864Z" fill="#16ACE3" style="fill:#16ACE3;fill:color(display-p3 0.0863 0.6745 0.8902);fill-opacity:1;"></path><path d="M39.5374 30.7612H28.9989C28.9989 28.2232 31.3677 26.1244 34.2682 26.1244C37.1686 26.1244 39.5374 28.1744 39.5374 30.7612Z" fill="#16ACE3" style="fill:#16ACE3;fill:color(display-p3 0.0863 0.6745 0.8902);fill-opacity:1;"></path><path d="M64.7717 47.1606C64.7717 46.9165 64.82 46.1844 64.82 45.8428C64.82 45.3059 64.7717 44.9642 64.53 44.7202C64.2883 44.525 63.8048 44.0857 62.2096 44.0857C58.2939 44.0857 56.602 46.6237 56.602 49.6498C56.602 52.6759 58.4389 55.0674 62.4029 55.0674C64.0949 55.0674 64.7717 54.8234 65.1584 54.5306C65.4968 54.2865 65.5452 53.6032 65.5452 52.9687C65.5452 52.5783 65.4968 52.0414 65.4485 51.6021C65.8835 51.0164 68.1072 50.7236 68.5423 51.6021C68.5907 51.9437 68.6873 52.6759 68.6873 53.3104C68.6873 54.8722 68.6873 56.19 67.5271 56.9221C66.4153 57.6543 64.5783 58.0447 62.1612 57.9959C56.0702 57.9471 53.3631 54.1401 53.3631 49.6986C53.3631 45.1595 56.1669 41.1084 62.6446 41.1084C65.7385 41.1084 66.9471 41.7917 67.4305 42.2798C67.8655 42.7679 68.0106 44.0369 68.0106 45.2083C68.0106 45.794 68.0106 46.6237 67.9139 47.1606C67.0921 47.8927 65.3034 47.8439 64.7717 47.1606Z" fill="#0D76BD" style="fill:#0D76BD;fill:color(display-p3 0.0510 0.4627 0.7412);fill-opacity:1;"></path><path d="M75.5519 47.7463C75.5519 47.8927 75.6002 47.9903 75.7936 47.9903H79.9509C80.241 48.2344 80.386 48.7712 80.386 49.3569C80.386 49.9914 80.1926 50.4307 79.9509 50.7236H75.7936C75.6002 50.7236 75.5519 50.7724 75.5519 50.9676V54.8234C77.0504 54.8234 78.8874 54.9698 79.6125 54.9698C80.4827 54.9698 80.6761 54.7258 80.6761 53.9449C80.6761 53.2616 80.5794 52.5294 80.531 52.139C80.6277 51.4069 82.8514 50.9676 83.4315 51.7973C83.4799 52.2366 83.6249 53.1151 83.6249 54.2377C83.6249 56.4341 83.3832 57.7031 81.2562 57.7031C79.4675 57.7031 76.0836 57.5078 74.1016 57.5078C72.6514 57.5078 71.2495 57.6054 70.766 57.7031C70.0893 57.4102 69.7992 55.6531 70.3793 55.0674C70.8144 54.921 71.9262 54.8234 72.4097 54.8234V44.4274C72.4097 44.2809 72.3613 44.1833 72.1679 44.1833H71.0078C70.7177 44.1345 70.476 43.5 70.476 42.8167C70.476 42.1334 70.6694 41.5477 71.0078 41.4501H81.4495C82.7064 41.4501 82.9481 41.6453 83.0448 42.8655C83.0931 43.7929 83.0931 45.4035 83.0448 46.3797C82.513 47.063 80.5794 47.063 80.1443 46.3797C80.1443 46.038 80.1926 45.2571 80.1443 44.8666C80.1443 44.525 80.096 44.1833 79.5642 44.1833H75.5519V47.7463Z" fill="#0D76BD" style="fill:#0D76BD;fill:color(display-p3 0.0510 0.4627 0.7412);fill-opacity:1;"></path><path d="M90.6828 54.7258C90.6828 54.8722 90.7311 54.9698 90.9245 54.9698H92.8098C93.0998 55.0186 93.3416 55.6531 93.3416 56.3365C93.3416 57.0198 93.1482 57.6054 92.8098 57.7031H86.1387C85.8486 57.6054 85.6069 56.971 85.6069 56.3365C85.6069 55.6531 85.8486 55.0674 86.1387 54.9698H87.2989C87.4922 54.9698 87.5406 54.921 87.5406 54.7258V44.2321C87.2022 44.2321 86.4287 44.4274 86.0903 44.525C85.3652 44.3297 85.0268 42.475 85.5586 41.8405C86.1387 41.6941 88.2173 41.1084 91.7946 41.1084C95.4686 41.1084 98.9975 41.987 98.9975 46.1356C98.9975 50.2843 95.2269 51.9438 92.2297 51.9438C91.6013 51.6509 91.4562 49.5034 92.2297 49.1129C94.4534 49.1129 95.8553 48.0879 95.8553 46.3797C95.8553 44.769 94.8401 43.8417 91.6979 43.8417C91.3112 43.8417 90.9245 43.8417 90.7311 43.8905V54.7258H90.6828Z" fill="#0D76BD" style="fill:#0D76BD;fill:color(display-p3 0.0510 0.4627 0.7412);fill-opacity:1;"></path><path d="M102.14 44.4274C102.14 44.2809 102.091 44.1833 101.898 44.1833H100.738C100.448 44.1345 100.206 43.5 100.206 42.8167C100.206 42.1334 100.399 41.5477 100.738 41.4501H106.684C106.974 41.5477 107.216 42.1822 107.216 42.8167C107.216 43.5 106.974 44.0857 106.684 44.1833H105.524C105.33 44.1833 105.282 44.2321 105.282 44.4274V54.677C105.282 54.8234 105.33 54.921 105.524 54.921H106.684C106.974 54.9698 107.216 55.6043 107.216 56.2876C107.216 56.9709 107.022 57.5566 106.684 57.6543H100.738C100.448 57.5566 100.206 56.9221 100.206 56.2876C100.206 55.6043 100.448 55.0186 100.738 54.921H101.898C102.091 54.921 102.14 54.8722 102.14 54.677V44.4274Z" fill="#0D76BD" style="fill:#0D76BD;fill:color(display-p3 0.0510 0.4627 0.7412);fill-opacity:1;"></path><path d="M124.474 42.1334C125.054 41.0596 125.199 41.0108 125.875 41.1572L126.842 41.3525C127.374 41.4501 127.471 41.5965 127.616 42.6215L129.114 54.7258C129.114 54.8722 129.163 54.9698 129.356 54.9698H130.081C130.371 55.0186 130.613 55.6531 130.613 56.3364C130.613 57.0198 130.42 57.6054 130.081 57.7031H124.232C123.942 57.6054 123.7 56.9709 123.7 56.3364C123.7 55.6531 123.942 55.0674 124.232 54.9698H125.73C125.924 54.9698 125.972 54.8722 125.972 54.7258L125.15 47.307H125.102L120.606 56.1412C120.364 56.5805 120.074 56.9221 119.494 56.9221H119.204C118.721 56.9221 118.334 56.6293 118.044 56.1412L113.79 47.307H113.742L113.113 54.7258C113.113 54.8722 113.162 54.9698 113.355 54.9698H114.612C114.902 55.0186 115.144 55.6531 115.144 56.3364C115.144 57.0198 114.95 57.6054 114.612 57.7031H108.956C108.666 57.6054 108.424 56.9709 108.424 56.3364C108.424 55.6531 108.666 55.0674 108.956 54.9698H109.826C110.019 54.9698 110.019 54.8722 110.068 54.7258L111.421 42.7191C111.518 41.7429 111.711 41.5477 112.146 41.4501L113.21 41.206C113.983 41.0108 114.128 41.1572 114.709 42.231L119.543 52.0902H119.591L124.474 42.1334Z" fill="#0D76BD" style="fill:#0D76BD;fill:color(display-p3 0.0510 0.4627 0.7412);fill-opacity:1;"></path><path d="M140.088 44.0857C136.752 44.0857 134.867 46.3309 134.867 49.5522C134.867 52.6759 136.801 55.0674 140.088 55.0674C143.52 55.0674 145.309 52.7247 145.309 49.5522C145.309 46.3309 143.133 44.0857 140.088 44.0857ZM140.088 57.9959C134.529 57.9959 131.628 54.3353 131.628 49.5522C131.628 45.1595 134.577 41.1084 140.088 41.1084C145.454 41.1084 148.548 45.1107 148.548 49.5522C148.548 54.3353 145.454 57.9959 140.088 57.9959Z" fill="#0D76BD" style="fill:#0D76BD;fill:color(display-p3 0.0510 0.4627 0.7412);fill-opacity:1;"></path><path d="M163.388 46.3309C163.437 45.5987 163.388 44.525 163.292 44.2321C163.147 43.9393 162.76 43.7929 161.552 43.7929C159.956 43.7929 158.603 44.4274 158.603 45.6964C158.603 47.063 159.424 47.2582 162.228 48.0391C164.597 48.7224 167.159 49.5034 167.159 52.7247C167.159 56.19 164.21 57.9959 160.536 57.9959C158.699 57.9959 156.911 57.5566 155.751 56.5317C155.025 55.8972 154.929 55.5555 154.929 54.8722C154.929 53.7496 155.122 52.2366 155.364 51.6021C156.089 51.0652 157.829 51.2604 158.313 52.2366C158.168 53.0175 158.023 53.7984 158.023 54.1401C158.023 54.4329 158.168 54.5794 158.313 54.677C158.699 54.921 159.473 55.3115 160.875 55.3115C162.615 55.3115 163.969 54.6282 163.969 53.2128C163.969 51.7485 162.76 51.2604 160.101 50.5771C156.911 49.7962 155.412 48.4296 155.412 45.8916C155.412 42.8167 158.023 41.1084 162.035 41.1084C163.872 41.1084 165.467 41.4501 165.951 42.0358C166.434 42.6703 166.579 45.5011 166.434 46.3309C165.902 46.9654 163.775 46.9654 163.388 46.3309Z" fill="#99DAEE" style="fill:#99DAEE;fill:color(display-p3 0.6000 0.8549 0.9333);fill-opacity:1;"></path><path d="M173.927 47.7463C173.927 47.8927 173.975 47.9903 174.169 47.9903H178.326C178.616 48.2344 178.761 48.7712 178.761 49.3569C178.761 49.9914 178.568 50.4307 178.326 50.7236H174.169C173.975 50.7236 173.927 50.7724 173.927 50.9676V54.8234C175.426 54.8234 177.263 54.9698 177.988 54.9698C178.858 54.9698 179.051 54.7258 179.051 53.9449C179.051 53.2616 178.954 52.5294 178.906 52.139C179.003 51.4069 181.227 50.9676 181.807 51.7973C181.855 52.2366 182 53.1151 182 54.2377C182 56.4341 181.758 57.7031 179.631 57.7031C177.843 57.7031 174.459 57.5078 172.477 57.5078C171.026 57.5078 169.625 57.6054 169.141 57.7031C168.464 57.4102 168.174 55.6531 168.754 55.0674C169.189 54.921 170.301 54.8234 170.785 54.8234V44.4274C170.785 44.2809 170.736 44.1833 170.543 44.1833H169.383C169.093 44.1345 168.851 43.5 168.851 42.8167C168.851 42.1334 169.044 41.5477 169.383 41.4501H179.825C181.081 41.4501 181.323 41.6453 181.42 42.8655C181.468 43.7929 181.468 45.4035 181.42 46.3797C180.888 47.063 178.954 47.063 178.519 46.3797C178.519 46.038 178.568 45.2571 178.519 44.8666C178.519 44.525 178.471 44.1833 177.939 44.1833H173.927V47.7463Z" fill="#99DAEE" style="fill:#99DAEE;fill:color(display-p3 0.6000 0.8549 0.9333);fill-opacity:1;"></path></svg> 