<?xml version="1.0" encoding="UTF-8"?> <svg xmlns="http://www.w3.org/2000/svg" width="94" height="14" viewBox="0 0 94 14" fill="none"><path d="M7.80002 8.87987C7.6384 9.33836 7.38681 9.75994 7.06002 10.1199C6.75277 10.4736 6.37003 10.7538 5.94002 10.9399C5.49907 11.1461 5.01676 11.2488 4.53003 11.2399C4.02708 11.2491 3.52942 11.1359 3.08002 10.9099C2.69084 10.7333 2.36345 10.4442 2.14002 10.0799V13.4399H2.4741e-05V6.96987C-0.00971223 6.45082 0.0926143 5.93578 0.300025 5.45987C0.490691 5.02094 0.769839 4.62604 1.12002 4.29987C1.47853 3.95653 1.89943 3.68498 2.36002 3.49987C2.86858 3.31059 3.4074 3.2157 3.95002 3.21987C4.51417 3.21316 5.07434 3.31501 5.60002 3.51987C6.08473 3.71554 6.52639 4.00432 6.90002 4.36987C7.25853 4.74134 7.54054 5.17965 7.73002 5.65987C7.94318 6.18062 8.05518 6.73721 8.06002 7.29987C8.06983 7.83794 7.98173 8.37331 7.80002 8.87987ZM5.67002 6.40987C5.58299 6.17752 5.45795 5.96124 5.30002 5.76987C5.13918 5.5941 4.94555 5.45143 4.73002 5.34987C4.50632 5.25124 4.26451 5.20031 4.02002 5.20031C3.77554 5.20031 3.53373 5.25124 3.31002 5.34987C3.08795 5.44515 2.88983 5.58861 2.73002 5.76987C2.57566 5.96369 2.45096 6.17938 2.36002 6.40987C2.26825 6.67356 2.22094 6.95067 2.22002 7.22987C2.21756 7.50936 2.26497 7.78704 2.36002 8.04987C2.43462 8.2879 2.56097 8.50646 2.73002 8.68987C2.87959 8.8735 3.07186 9.01771 3.29002 9.10987C3.5164 9.2112 3.76202 9.26237 4.01003 9.25987C4.25819 9.264 4.50415 9.21275 4.73002 9.10987C4.94953 9.0151 5.14448 8.87145 5.30002 8.68987C5.46006 8.49997 5.58532 8.28332 5.67002 8.04987C5.76988 7.78833 5.81744 7.50973 5.81002 7.22987C5.81404 6.95027 5.76658 6.67231 5.67002 6.40987Z" fill="#E61C4A" style="fill:#E61C4A;fill:color(display-p3 0.9020 0.1098 0.2902);fill-opacity:1;"></path><path d="M13.01 5.20987C12.7918 5.20294 12.5744 5.23913 12.3702 5.31634C12.166 5.39356 11.979 5.5103 11.82 5.65987C11.6667 5.81042 11.5465 5.99141 11.4673 6.19119C11.388 6.39097 11.3515 6.60512 11.36 6.81987V11.1099H9.11002V6.66987C9.10469 6.19743 9.20371 5.72963 9.40002 5.29987C9.58885 4.88536 9.8612 4.51429 10.2 4.20987C10.5674 3.9007 10.9874 3.6602 11.44 3.49987C11.9433 3.31893 12.4753 3.23084 13.01 3.23987H13.95V5.23987L13.01 5.20987Z" fill="#E61C4A" style="fill:#E61C4A;fill:color(display-p3 0.9020 0.1098 0.2902);fill-opacity:1;"></path><path d="M14.95 5.61987C15.1451 5.14126 15.438 4.70868 15.81 4.34987C16.1875 3.99422 16.6285 3.71266 17.11 3.51987C18.184 3.11984 19.3661 3.11984 20.44 3.51987C20.9175 3.71459 21.3549 3.996 21.73 4.34987C22.102 4.70868 22.395 5.14126 22.59 5.61987C22.794 6.13187 22.8959 6.67879 22.89 7.22987C22.8966 7.78102 22.7947 8.32809 22.59 8.83987C22.3974 9.31977 22.1041 9.75283 21.73 10.1099C21.3517 10.4693 20.9067 10.7513 20.42 10.9399C19.3461 11.3399 18.164 11.3399 17.09 10.9399C16.6069 10.7502 16.1654 10.4683 15.79 10.1099C15.4159 9.75283 15.1227 9.31977 14.93 8.83987C14.5033 7.80894 14.5033 6.6508 14.93 5.61987H14.95ZM17.05 8.04987C17.1304 8.28747 17.2599 8.50552 17.43 8.68987C17.5946 8.87465 17.8001 9.01847 18.03 9.10987C18.2677 9.20889 18.5226 9.25987 18.78 9.25987C19.0375 9.25987 19.2924 9.20889 19.53 9.10987C19.754 9.01806 19.9529 8.87407 20.11 8.68987C20.2853 8.50199 20.4213 8.281 20.51 8.03987C20.6081 7.78132 20.6556 7.50634 20.65 7.22987C20.654 6.95026 20.6066 6.67231 20.51 6.40987C20.4164 6.17413 20.2809 5.9573 20.11 5.76987C19.9473 5.59182 19.75 5.44889 19.53 5.34987C19.2924 5.25085 19.0375 5.19987 18.78 5.19987C18.5226 5.19987 18.2677 5.25085 18.03 5.34987C17.804 5.44849 17.6 5.59129 17.43 5.76987C17.262 5.95575 17.1328 6.17335 17.05 6.40987C16.9503 6.67173 16.8994 6.94966 16.9 7.22987C16.8958 7.51039 16.9468 7.78901 17.05 8.04987Z" fill="#E61C4A" style="fill:#E61C4A;fill:color(display-p3 0.9020 0.1098 0.2902);fill-opacity:1;"></path><path d="M25.08 11.0599C24.5638 10.9586 24.0629 10.7905 23.59 10.5599L24.07 8.78987L24.74 9.04987C24.97 9.12987 25.22 9.19987 25.46 9.25987C25.6963 9.32389 25.937 9.37068 26.18 9.39987C26.3847 9.43689 26.5921 9.45696 26.8 9.45987C27.0882 9.47299 27.3737 9.39987 27.62 9.24987C27.7051 9.20193 27.7759 9.13219 27.8251 9.04783C27.8743 8.96348 27.9002 8.86753 27.9 8.76987C27.8974 8.70723 27.8807 8.64597 27.8513 8.5906C27.8219 8.53522 27.7805 8.48714 27.73 8.44987C27.6071 8.34073 27.4646 8.2559 27.31 8.19987C27.13 8.12987 26.94 8.04987 26.72 7.97987C26.5 7.90987 26.29 7.84987 26.06 7.75987C25.468 7.58897 24.9214 7.28836 24.46 6.87987C24.2687 6.71134 24.116 6.50347 24.0124 6.27046C23.9089 6.03746 23.8569 5.78483 23.86 5.52987C23.8535 5.19811 23.9295 4.86994 24.0814 4.57491C24.2333 4.27989 24.4562 4.02729 24.73 3.83987C25.4276 3.38882 26.2507 3.17165 27.08 3.21987C27.6352 3.21422 28.1891 3.27465 28.73 3.39987C29.2103 3.50889 29.6743 3.68035 30.11 3.90987L29.46 5.56987C29.0923 5.4012 28.7109 5.26404 28.32 5.15987C27.9609 5.06603 27.5912 5.01898 27.22 5.01987C26.9393 5.01375 26.6604 5.06478 26.4 5.16987C26.3126 5.20427 26.2368 5.26309 26.1819 5.33933C26.1269 5.41557 26.095 5.50602 26.09 5.59987C26.0919 5.64855 26.1045 5.69622 26.127 5.73944C26.1495 5.78267 26.1812 5.82038 26.22 5.84987C26.3227 5.9434 26.4412 6.01789 26.57 6.06987C26.7 6.13987 26.87 6.20987 27.04 6.27987L27.57 6.46987C28.2717 6.66709 28.9322 6.98888 29.52 7.41987C29.7255 7.58695 29.8894 7.79948 29.9987 8.04069C30.108 8.28191 30.1598 8.54522 30.15 8.80987C30.1614 9.15873 30.0785 9.5042 29.91 9.80987C29.7384 10.1134 29.503 10.3761 29.22 10.5799C28.8965 10.8035 28.5384 10.9724 28.16 11.0799C27.7077 11.2072 27.2399 11.2711 26.77 11.2699C26.2004 11.266 25.6333 11.1955 25.08 11.0599Z" fill="white" style="fill:white;fill-opacity:1;"></path><path d="M33.58 10.9399C33.1126 10.7782 32.6812 10.5268 32.31 10.1999C31.9565 9.89407 31.6734 9.51541 31.48 9.08987C31.2726 8.63866 31.1701 8.14636 31.18 7.64987V1.48987H33.43V3.35987H35.73V5.23987H33.43V7.49987C33.4257 7.73634 33.47 7.97118 33.56 8.18987C33.638 8.3946 33.761 8.57916 33.92 8.72987C34.081 8.88581 34.2713 9.00819 34.48 9.08987C34.6982 9.18161 34.9334 9.22593 35.17 9.21987H35.88V11.2199H35.17C34.6274 11.224 34.0886 11.1292 33.58 10.9399Z" fill="white" style="fill:white;fill-opacity:1;"></path><path d="M44.5 9.02987C44.3069 9.47285 44.0243 9.87117 43.67 10.1999C43.3036 10.5354 42.8758 10.7969 42.41 10.9699C41.9043 11.1559 41.3688 11.2474 40.83 11.2399C40.288 11.2472 39.7492 11.1557 39.24 10.9699C38.7708 10.8041 38.3416 10.5418 37.98 10.1999C37.6257 9.87337 37.346 9.4743 37.16 9.02987C36.9573 8.56656 36.8551 8.06556 36.86 7.55987V3.35987H39.11V7.51987C39.093 7.75289 39.1253 7.98688 39.2049 8.20655C39.2844 8.42622 39.4095 8.62661 39.5718 8.79463C39.7342 8.96264 39.9302 9.0945 40.147 9.18156C40.3638 9.26862 40.5966 9.30894 40.83 9.29987C41.0572 9.31008 41.284 9.27265 41.4958 9.18999C41.7076 9.10732 41.8998 8.98125 42.06 8.81987C42.2205 8.65486 42.3458 8.45899 42.4283 8.24412C42.5108 8.02925 42.5488 7.79987 42.54 7.56987V3.35987H44.79V7.55987C44.7935 8.06442 44.6949 8.56445 44.5 9.02987Z" fill="white" style="fill:white;fill-opacity:1;"></path><path d="M46.1 5.59987C46.2582 5.12393 46.506 4.68266 46.83 4.29987C47.15 3.96026 47.5296 3.68232 47.95 3.47987C48.3963 3.27913 48.8806 3.17682 49.37 3.17987C49.8715 3.17429 50.3675 3.28376 50.82 3.49987C51.2081 3.70001 51.5256 4.01406 51.73 4.39987V0.809871H53.89V7.48987C53.8953 8.0043 53.7967 8.5145 53.6 8.98987C53.4116 9.44801 53.1305 9.86221 52.7742 10.2064C52.418 10.5506 51.9944 10.8174 51.53 10.9899C51.0189 11.1824 50.4762 11.2773 49.93 11.2699C49.3653 11.2724 48.8053 11.1672 48.28 10.9599C47.7918 10.7654 47.3466 10.4765 46.97 10.1099C46.6008 9.74897 46.3142 9.31226 46.13 8.82987C45.9149 8.31008 45.806 7.75243 45.81 7.18987C45.8079 6.64653 45.9062 6.10748 46.1 5.59987ZM48.23 8.03987C48.3084 8.27712 48.4305 8.49759 48.59 8.68987C48.743 8.87847 48.9431 9.02335 49.17 9.10987C49.3894 9.21113 49.6285 9.26236 49.87 9.25987C50.1212 9.26225 50.3701 9.21111 50.6 9.10987C50.8182 9.01771 51.0105 8.8735 51.16 8.68987C51.3169 8.49946 51.4387 8.28278 51.52 8.04987C51.6199 7.78833 51.6674 7.50973 51.66 7.22987C51.6631 6.95195 51.6226 6.67526 51.54 6.40987C51.4491 6.17938 51.3244 5.96369 51.17 5.76987C51.0092 5.5941 50.8156 5.45143 50.6 5.34987C50.3687 5.25316 50.1208 5.20222 49.87 5.19987C49.629 5.20223 49.3909 5.25325 49.17 5.34987C48.9471 5.44364 48.7487 5.58733 48.59 5.76987C48.4352 5.96164 48.3135 6.17796 48.23 6.40987C48.1335 6.67231 48.086 6.95027 48.09 7.22987C48.0844 7.50634 48.1319 7.78132 48.23 8.03987Z" fill="white" style="fill:white;fill-opacity:1;"></path><path d="M58.86 5.61987C59.0618 5.14242 59.3577 4.7105 59.73 4.34987C60.1128 3.9961 60.5567 3.71486 61.04 3.51987C62.114 3.11984 63.2961 3.11984 64.37 3.51987C64.8534 3.71486 65.2973 3.9961 65.68 4.34987C66.0488 4.71142 66.3412 5.14327 66.54 5.61987C66.744 6.13187 66.8459 6.67879 66.84 7.22987C66.8466 7.78102 66.7447 8.32809 66.54 8.83987C66.3437 9.3178 66.0509 9.75013 65.68 10.1099C65.2998 10.467 64.8553 10.7486 64.37 10.9399C63.2961 11.3399 62.114 11.3399 61.04 10.9399C60.5548 10.7486 60.1102 10.467 59.73 10.1099C59.3591 9.75013 59.0664 9.3178 58.87 8.83987C58.4571 7.80625 58.4571 6.65349 58.87 5.61987H58.86ZM60.96 8.04987C61.0485 8.28587 61.1809 8.50302 61.35 8.68987C61.5128 8.87668 61.7188 9.02087 61.95 9.10987C62.1928 9.23016 62.4592 9.29505 62.73 9.29987C62.9876 9.30123 63.2428 9.25019 63.48 9.14987C63.704 9.05806 63.9029 8.91407 64.06 8.72987C64.2353 8.54199 64.3713 8.321 64.46 8.07987C64.5501 7.81948 64.5941 7.54537 64.59 7.26987C64.5925 6.99122 64.5486 6.71409 64.46 6.44987C64.3664 6.21413 64.2309 5.9973 64.06 5.80987C63.8973 5.63182 63.7 5.48889 63.48 5.38987C63.244 5.28041 62.9897 5.21598 62.73 5.19987C62.4727 5.20116 62.218 5.25209 61.98 5.34987C61.7526 5.44599 61.5482 5.58912 61.38 5.76987C61.2122 5.9577 61.08 6.17459 60.99 6.40987C60.895 6.67303 60.8443 6.95012 60.84 7.22987C60.8311 7.50815 60.8718 7.78581 60.96 8.04987Z" fill="white" style="fill:white;fill-opacity:1;"></path><path d="M67.73 9.49987C67.7951 9.3513 67.8866 9.21577 68 9.09987C68.1173 8.99064 68.2526 8.90266 68.4 8.83987C68.5546 8.77379 68.722 8.74304 68.89 8.74987C69.0544 8.7443 69.2181 8.77256 69.3711 8.8329C69.524 8.89324 69.663 8.98438 69.7792 9.10065C69.8955 9.21693 69.9867 9.35586 70.047 9.50883C70.1073 9.66179 70.1356 9.82553 70.13 9.98987C70.1344 10.1526 70.1057 10.3146 70.0455 10.4659C69.9853 10.6171 69.895 10.7546 69.78 10.8699C69.6671 10.9894 69.531 11.0847 69.38 11.1499C69.0584 11.2749 68.7016 11.2749 68.38 11.1499C68.2277 11.0871 68.0911 10.9915 67.98 10.8699C67.8648 10.7593 67.7729 10.6267 67.71 10.4799C67.6449 10.325 67.6142 10.1578 67.62 9.98987C67.6195 9.82036 67.6571 9.65289 67.73 9.49987Z" fill="#E61C4A" style="fill:#E61C4A;fill:color(display-p3 0.9020 0.1098 0.2902);fill-opacity:1;"></path><path d="M82.39 6.95987C82.4091 6.4944 82.2479 6.03952 81.94 5.68987C81.7912 5.53289 81.611 5.40901 81.4112 5.3263C81.2113 5.2436 80.9962 5.20393 80.78 5.20987C80.5539 5.21251 80.3302 5.25657 80.12 5.33987C79.9312 5.43061 79.7588 5.55229 79.61 5.69987C79.4613 5.85882 79.3457 6.04579 79.27 6.24987C79.18 6.47556 79.1358 6.71692 79.14 6.95987V11.1099H76.99V6.95987C77.0091 6.4944 76.8479 6.03952 76.54 5.68987C76.3886 5.5336 76.2065 5.41031 76.0051 5.32771C75.8038 5.24511 75.5876 5.20499 75.37 5.20987C75.1538 5.20393 74.9388 5.2436 74.7389 5.3263C74.539 5.40901 74.3588 5.53289 74.21 5.68987C74.049 5.85858 73.9235 6.05795 73.8411 6.27612C73.7586 6.4943 73.7208 6.72682 73.73 6.95987V11.1099H71.49V6.90987C71.4858 6.39878 71.5844 5.89206 71.78 5.41987C71.959 5.00113 72.217 4.62085 72.54 4.29987C72.8739 3.94995 73.28 3.67696 73.73 3.49987C74.2012 3.31366 74.7034 3.21864 75.21 3.21987C75.7813 3.21309 76.3463 3.33978 76.86 3.58987C77.3395 3.82295 77.7574 4.1655 78.08 4.58987C78.3968 4.16379 78.8119 3.82069 79.29 3.58987C79.8077 3.34103 80.3757 3.21444 80.95 3.21987C81.46 3.21737 81.9657 3.31241 82.44 3.49987C82.877 3.67977 83.2694 3.95278 83.59 4.29987C83.9202 4.63438 84.1848 5.02785 84.37 5.45987C84.5496 5.93608 84.641 6.44095 84.64 6.94987V11.1499H82.39V6.95987Z" fill="white" style="fill:white;fill-opacity:1;"></path><path d="M93.12 9.57987C92.8788 9.92104 92.5812 10.2186 92.24 10.4599C91.8857 10.7121 91.4944 10.9078 91.08 11.0399C90.6321 11.1727 90.1673 11.24 89.7 11.2399C89.1484 11.252 88.6003 11.1498 88.09 10.9399C87.6169 10.7481 87.1856 10.4662 86.82 10.1099C86.4649 9.74336 86.1831 9.31228 85.99 8.83987C85.799 8.32535 85.7107 7.77837 85.73 7.22987C85.7242 6.67879 85.8261 6.13187 86.03 5.61987C86.2255 5.1487 86.5069 4.71803 86.86 4.34987C87.2282 3.99679 87.6589 3.71533 88.13 3.51987C89.1935 3.10036 90.3766 3.10036 91.44 3.51987C91.9328 3.73645 92.3729 4.05713 92.73 4.45987C93.0881 4.8772 93.3631 5.3592 93.54 5.87987C93.7284 6.46807 93.8229 7.08226 93.82 7.69987H87.97C88.0188 8.17358 88.2309 8.61554 88.57 8.94987C88.8943 9.26314 89.3292 9.43565 89.78 9.42987C90.1537 9.43094 90.5216 9.33809 90.85 9.15987C91.1418 9.00655 91.3741 8.76019 91.51 8.45987H93.65C93.55 8.86488 93.3698 9.24573 93.12 9.57987ZM90.93 5.37987C90.6025 5.12343 90.1959 4.98906 89.78 4.99987C89.3653 4.98726 88.9601 5.12587 88.64 5.38987C88.3127 5.67821 88.0939 6.06992 88.02 6.49987H91.57C91.4938 6.06333 91.2674 5.66715 90.93 5.37987Z" fill="white" style="fill:white;fill-opacity:1;"></path><path d="M55.52 1.99987C55.624 2.10641 55.7504 2.1884 55.89 2.23987C56.0302 2.3078 56.1843 2.34204 56.34 2.33987C56.4989 2.34144 56.6561 2.30726 56.8 2.23987C56.938 2.18518 57.0638 2.1036 57.17 1.99987C57.2727 1.88331 57.357 1.75181 57.42 1.60987C57.4871 1.46974 57.5181 1.31503 57.51 1.15987C57.5151 1.00172 57.4843 0.844464 57.42 0.699871C57.3569 0.554919 57.2727 0.420121 57.17 0.299871C57.0586 0.202861 56.934 0.122064 56.8 0.0598714C56.6519 0.0106352 56.4958 -0.00973299 56.34 -0.000128641C56.1854 -0.00122379 56.0323 0.0294078 55.89 0.0898714C55.7534 0.14731 55.6282 0.228575 55.52 0.329871C55.4135 0.437951 55.3256 0.562987 55.26 0.699871C55.1957 0.844464 55.165 1.00172 55.17 1.15987C55.162 1.31503 55.1929 1.46974 55.26 1.60987C55.3229 1.75424 55.411 1.88629 55.52 1.99987Z" fill="white" style="fill:white;fill-opacity:1;"></path><path d="M55.24 7.00987L57.45 4.55987V3.34987H55.24V7.00987Z" fill="white" style="fill:white;fill-opacity:1;"></path><path d="M55.24 9.51987V11.0999H57.45V7.06987L55.24 9.51987Z" fill="white" style="fill:white;fill-opacity:1;"></path></svg> 