<?xml version="1.0" encoding="UTF-8"?> <svg xmlns="http://www.w3.org/2000/svg" width="94" height="14" viewBox="0 0 94 14" fill="none"><g clip-path="url(#clip0_2090_1928)"><path d="M7.7999 8.88004C7.63828 9.33853 7.38669 9.76011 7.0599 10.1201C6.75265 10.4738 6.36991 10.754 5.9399 10.9401C5.49895 11.1463 5.01664 11.249 4.52991 11.2401C4.02696 11.2493 3.5293 11.1361 3.0799 10.9101C2.69072 10.7335 2.36333 10.4444 2.1399 10.0801V13.4401H-9.73291e-05V6.97004C-0.0098343 6.45099 0.0924922 5.93595 0.299903 5.46004C0.490569 5.02111 0.769717 4.62621 1.1199 4.30004C1.47841 3.9567 1.89931 3.68515 2.3599 3.50004C2.86846 3.31076 3.40728 3.21587 3.9499 3.22004C4.51405 3.21333 5.07422 3.31518 5.5999 3.52004C6.08461 3.71571 6.52627 4.00449 6.8999 4.37004C7.25841 4.74151 7.54042 5.17982 7.7299 5.66004C7.94306 6.18079 8.05506 6.73738 8.0599 7.30004C8.06971 7.83811 7.98161 8.37348 7.7999 8.88004ZM5.6699 6.41004C5.58287 6.17769 5.45783 5.96141 5.2999 5.77004C5.13906 5.59427 4.94543 5.4516 4.7299 5.35004C4.5062 5.25141 4.26439 5.20048 4.0199 5.20048C3.77542 5.20048 3.53361 5.25141 3.3099 5.35004C3.08783 5.44532 2.88971 5.58878 2.7299 5.77004C2.57554 5.96386 2.45084 6.17955 2.3599 6.41004C2.26813 6.67373 2.22082 6.95084 2.2199 7.23004C2.21744 7.50953 2.26485 7.78721 2.3599 8.05004C2.4345 8.28807 2.56085 8.50663 2.7299 8.69004C2.87947 8.87367 3.07174 9.01788 3.2899 9.11004C3.51628 9.21137 3.7619 9.26254 4.00991 9.26004C4.25807 9.26417 4.50403 9.21292 4.7299 9.11004C4.94941 9.01527 5.14436 8.87162 5.2999 8.69004C5.45994 8.50014 5.5852 8.28349 5.6699 8.05004C5.76976 7.7885 5.81732 7.5099 5.8099 7.23004C5.81392 6.95044 5.76646 6.67248 5.6699 6.41004Z" fill="#E61C4A" style="fill:#E61C4A;fill:color(display-p3 0.9020 0.1098 0.2902);fill-opacity:1;"></path><path d="M13.01 5.20989C12.7918 5.20296 12.5744 5.23915 12.3702 5.31636C12.166 5.39358 11.979 5.51032 11.82 5.65989C11.6667 5.81044 11.5465 5.99143 11.4673 6.19121C11.388 6.39099 11.3515 6.60514 11.36 6.81989V11.1099H9.11007V6.66989C9.10474 6.19745 9.20376 5.72965 9.40007 5.29989C9.5889 4.88538 9.86125 4.51431 10.2 4.20989C10.5674 3.90072 10.9874 3.66022 11.44 3.49989C11.9433 3.31895 12.4753 3.23086 13.01 3.23989H13.95V5.23989L13.01 5.20989Z" fill="#E61C4A" style="fill:#E61C4A;fill:color(display-p3 0.9020 0.1098 0.2902);fill-opacity:1;"></path><path d="M14.9499 5.61975C15.145 5.14114 15.4379 4.70856 15.8099 4.34975C16.1874 3.9941 16.6284 3.71254 17.1099 3.51975C18.1839 3.11972 19.366 3.11972 20.4399 3.51975C20.9174 3.71447 21.3548 3.99588 21.7299 4.34975C22.1019 4.70856 22.3949 5.14114 22.5899 5.61975C22.7939 6.13175 22.8958 6.67867 22.8899 7.22975C22.8965 7.7809 22.7946 8.32797 22.5899 8.83975C22.3973 9.31965 22.104 9.75271 21.7299 10.1098C21.3516 10.4692 20.9066 10.7512 20.4199 10.9398C19.346 11.3398 18.1639 11.3398 17.0899 10.9398C16.6068 10.7501 16.1653 10.4682 15.7899 10.1098C15.4158 9.75271 15.1226 9.31965 14.9299 8.83975C14.5032 7.80882 14.5032 6.65068 14.9299 5.61975H14.9499ZM17.0499 8.04975C17.1303 8.28735 17.2598 8.5054 17.4299 8.68975C17.5945 8.87453 17.8 9.01835 18.0299 9.10975C18.2676 9.20877 18.5225 9.25975 18.7799 9.25975C19.0374 9.25975 19.2923 9.20877 19.5299 9.10975C19.7539 9.01794 19.9528 8.87395 20.1099 8.68975C20.2852 8.50187 20.4212 8.28088 20.5099 8.03975C20.608 7.7812 20.6555 7.50622 20.6499 7.22975C20.6539 6.95014 20.6065 6.67219 20.5099 6.40975C20.4163 6.17401 20.2808 5.95718 20.1099 5.76975C19.9472 5.5917 19.7499 5.44877 19.5299 5.34975C19.2923 5.25073 19.0374 5.19975 18.7799 5.19975C18.5225 5.19975 18.2676 5.25073 18.0299 5.34975C17.8039 5.44837 17.5999 5.59117 17.4299 5.76975C17.2619 5.95563 17.1327 6.17323 17.0499 6.40975C16.9502 6.67161 16.8993 6.94954 16.8999 7.22975C16.8957 7.51027 16.9467 7.78889 17.0499 8.04975Z" fill="#E61C4A" style="fill:#E61C4A;fill:color(display-p3 0.9020 0.1098 0.2902);fill-opacity:1;"></path><path d="M25.0801 11.06C24.5639 10.9587 24.063 10.7906 23.5901 10.56L24.0701 8.78997L24.7401 9.04997C24.9701 9.12997 25.2201 9.19997 25.4601 9.25997C25.6964 9.32399 25.9371 9.37078 26.1801 9.39997C26.3848 9.43699 26.5922 9.45706 26.8001 9.45997C27.0883 9.47309 27.3738 9.39997 27.6201 9.24997C27.7052 9.20203 27.776 9.13229 27.8252 9.04793C27.8744 8.96358 27.9003 8.86763 27.9001 8.76997C27.8975 8.70733 27.8808 8.64607 27.8514 8.5907C27.822 8.53532 27.7806 8.48724 27.7301 8.44997C27.6072 8.34083 27.4647 8.256 27.3101 8.19997C27.1301 8.12997 26.9401 8.04997 26.7201 7.97997C26.5001 7.90997 26.2901 7.84997 26.0601 7.75997C25.4681 7.58907 24.9215 7.28846 24.4601 6.87997C24.2688 6.71144 24.1161 6.50357 24.0125 6.27056C23.909 6.03756 23.857 5.78493 23.8601 5.52997C23.8536 5.19821 23.9296 4.87004 24.0815 4.57501C24.2334 4.27999 24.4563 4.02739 24.7301 3.83997C25.4277 3.38892 26.2508 3.17175 27.0801 3.21997C27.6353 3.21432 28.1892 3.27475 28.7301 3.39997C29.2104 3.50899 29.6744 3.68045 30.1101 3.90997L29.4601 5.56997C29.0924 5.4013 28.711 5.26414 28.3201 5.15997C27.961 5.06613 27.5913 5.01908 27.2201 5.01997C26.9394 5.01385 26.6605 5.06488 26.4001 5.16997C26.3127 5.20437 26.2369 5.26319 26.182 5.33943C26.127 5.41567 26.0951 5.50612 26.0901 5.59997C26.092 5.64865 26.1046 5.69632 26.1271 5.73954C26.1496 5.78277 26.1813 5.82048 26.2201 5.84997C26.3228 5.9435 26.4413 6.01799 26.5701 6.06997C26.7001 6.13997 26.8701 6.20997 27.0401 6.27997L27.5701 6.46997C28.2718 6.66719 28.9323 6.98898 29.5201 7.41997C29.7256 7.58705 29.8895 7.79958 29.9988 8.04079C30.1081 8.28201 30.1599 8.54532 30.1501 8.80997C30.1615 9.15883 30.0786 9.5043 29.9101 9.80997C29.7385 10.1135 29.5031 10.3762 29.2201 10.58C28.8966 10.8036 28.5385 10.9725 28.1601 11.08C27.7078 11.2073 27.24 11.2712 26.7701 11.27C26.2005 11.2661 25.6334 11.1956 25.0801 11.06Z" fill="black" style="fill:black;fill-opacity:1;"></path><path d="M33.5801 10.9398C33.1127 10.7781 32.6813 10.5267 32.3101 10.1998C31.9566 9.89395 31.6735 9.51529 31.4801 9.08975C31.2727 8.63854 31.1702 8.14624 31.1801 7.64975V1.48975H33.4301V3.35975H35.7301V5.23975H33.4301V7.49975C33.4258 7.73622 33.4701 7.97106 33.5601 8.18975C33.6381 8.39448 33.7611 8.57904 33.9201 8.72975C34.0811 8.88569 34.2714 9.00807 34.4801 9.08975C34.6983 9.18149 34.9335 9.22581 35.1701 9.21975H35.8801V11.2198H35.1701C34.6275 11.2239 34.0887 11.1291 33.5801 10.9398Z" fill="black" style="fill:black;fill-opacity:1;"></path><path d="M44.5 9.02986C44.3069 9.47284 44.0243 9.87116 43.67 10.1999C43.3036 10.5354 42.8758 10.7969 42.41 10.9699C41.9043 11.1559 41.3688 11.2474 40.83 11.2399C40.288 11.2472 39.7492 11.1557 39.24 10.9699C38.7708 10.8041 38.3416 10.5418 37.98 10.1999C37.6257 9.87336 37.346 9.47429 37.16 9.02986C36.9573 8.56655 36.8551 8.06555 36.86 7.55986V3.35986H39.11V7.51986C39.093 7.75288 39.1253 7.98687 39.2049 8.20654C39.2844 8.42621 39.4095 8.6266 39.5718 8.79462C39.7342 8.96263 39.9302 9.09449 40.147 9.18155C40.3638 9.26861 40.5966 9.30893 40.83 9.29986C41.0572 9.31007 41.284 9.27264 41.4958 9.18998C41.7076 9.10731 41.8998 8.98124 42.06 8.81986C42.2205 8.65485 42.3458 8.45898 42.4283 8.24411C42.5108 8.02924 42.5488 7.79986 42.54 7.56986V3.35986H44.79V7.55986C44.7935 8.06441 44.6949 8.56444 44.5 9.02986Z" fill="black" style="fill:black;fill-opacity:1;"></path><path d="M46.0999 5.60006C46.2581 5.12412 46.5059 4.68285 46.8299 4.30006C47.1499 3.96045 47.5295 3.68251 47.9499 3.48006C48.3962 3.27932 48.8805 3.17701 49.3699 3.18006C49.8714 3.17448 50.3674 3.28395 50.8199 3.50006C51.208 3.7002 51.5255 4.01425 51.7299 4.40006V0.810059H53.8899V7.49006C53.8952 8.00449 53.7966 8.51469 53.5999 8.99006C53.4115 9.4482 53.1304 9.8624 52.7741 10.2066C52.4179 10.5508 51.9943 10.8176 51.5299 10.9901C51.0188 11.1826 50.4761 11.2775 49.9299 11.2701C49.3652 11.2726 48.8052 11.1674 48.2799 10.9601C47.7917 10.7656 47.3465 10.4767 46.9699 10.1101C46.6007 9.74916 46.3141 9.31245 46.1299 8.83006C45.9148 8.31027 45.8059 7.75262 45.8099 7.19006C45.8078 6.64672 45.9061 6.10767 46.0999 5.60006ZM48.2299 8.04006C48.3083 8.27731 48.4304 8.49778 48.5899 8.69006C48.7429 8.87866 48.943 9.02354 49.1699 9.11006C49.3893 9.21132 49.6284 9.26255 49.8699 9.26006C50.1211 9.26244 50.37 9.2113 50.5999 9.11006C50.8181 9.0179 51.0104 8.87369 51.1599 8.69006C51.3168 8.49965 51.4386 8.28297 51.5199 8.05006C51.6198 7.78852 51.6673 7.50992 51.6599 7.23006C51.663 6.95214 51.6225 6.67545 51.5399 6.41006C51.449 6.17957 51.3243 5.96388 51.1699 5.77006C51.0091 5.59429 50.8155 5.45162 50.5999 5.35006C50.3686 5.25335 50.1207 5.20241 49.8699 5.20006C49.6289 5.20242 49.3908 5.25344 49.1699 5.35006C48.947 5.44383 48.7486 5.58752 48.5899 5.77006C48.4351 5.96183 48.3134 6.17815 48.2299 6.41006C48.1334 6.6725 48.0859 6.95046 48.0899 7.23006C48.0843 7.50653 48.1318 7.78151 48.2299 8.04006Z" fill="black" style="fill:black;fill-opacity:1;"></path><path d="M58.86 5.61975C59.0618 5.1423 59.3577 4.71038 59.73 4.34975C60.1128 3.99598 60.5567 3.71474 61.04 3.51975C62.114 3.11972 63.2961 3.11972 64.37 3.51975C64.8534 3.71474 65.2973 3.99598 65.68 4.34975C66.0488 4.7113 66.3412 5.14315 66.54 5.61975C66.744 6.13175 66.8459 6.67867 66.84 7.22975C66.8466 7.7809 66.7447 8.32797 66.54 8.83975C66.3437 9.31768 66.0509 9.75001 65.68 10.1098C65.2998 10.4669 64.8553 10.7485 64.37 10.9398C63.2961 11.3398 62.114 11.3398 61.04 10.9398C60.5548 10.7485 60.1102 10.4669 59.73 10.1098C59.3591 9.75001 59.0664 9.31768 58.87 8.83975C58.4571 7.80613 58.4571 6.65337 58.87 5.61975H58.86ZM60.96 8.04975C61.0485 8.28575 61.1809 8.5029 61.35 8.68975C61.5128 8.87656 61.7188 9.02075 61.95 9.10975C62.1928 9.23004 62.4592 9.29493 62.73 9.29975C62.9876 9.30111 63.2428 9.25007 63.48 9.14975C63.704 9.05794 63.9029 8.91395 64.06 8.72975C64.2353 8.54187 64.3713 8.32088 64.46 8.07975C64.5501 7.81936 64.5941 7.54525 64.59 7.26975C64.5925 6.9911 64.5486 6.71397 64.46 6.44975C64.3664 6.21401 64.2309 5.99718 64.06 5.80975C63.8973 5.6317 63.7 5.48877 63.48 5.38975C63.244 5.28029 62.9897 5.21586 62.73 5.19975C62.4727 5.20104 62.218 5.25197 61.98 5.34975C61.7526 5.44587 61.5482 5.589 61.38 5.76975C61.2122 5.95758 61.08 6.17447 60.99 6.40975C60.895 6.67291 60.8443 6.95 60.84 7.22975C60.8311 7.50803 60.8718 7.78569 60.96 8.04975Z" fill="black" style="fill:black;fill-opacity:1;"></path><path d="M67.7301 9.49996C67.7952 9.35139 67.8867 9.21586 68.0001 9.09996C68.1174 8.99073 68.2527 8.90275 68.4001 8.83996C68.5547 8.77388 68.7221 8.74313 68.8901 8.74996C69.0545 8.74439 69.2182 8.77265 69.3712 8.83299C69.5241 8.89333 69.6631 8.98447 69.7793 9.10074C69.8956 9.21702 69.9868 9.35595 70.0471 9.50892C70.1074 9.66188 70.1357 9.82562 70.1301 9.98996C70.1345 10.1527 70.1058 10.3147 70.0456 10.466C69.9854 10.6172 69.8951 10.7547 69.7801 10.87C69.6672 10.9895 69.5311 11.0848 69.3801 11.15C69.0585 11.275 68.7017 11.275 68.3801 11.15C68.2278 11.0872 68.0912 10.9916 67.9801 10.87C67.8649 10.7594 67.773 10.6268 67.7101 10.48C67.645 10.3251 67.6143 10.1579 67.6201 9.98996C67.6196 9.82045 67.6572 9.65298 67.7301 9.49996Z" fill="#E61C4A" style="fill:#E61C4A;fill:color(display-p3 0.9020 0.1098 0.2902);fill-opacity:1;"></path><path d="M82.3899 6.95998C82.409 6.49451 82.2478 6.03963 81.9399 5.68998C81.7911 5.533 81.6109 5.40913 81.4111 5.32642C81.2112 5.24372 80.9961 5.20404 80.7799 5.20998C80.5538 5.21262 80.3301 5.25668 80.1199 5.33998C79.9311 5.43072 79.7587 5.55241 79.6099 5.69999C79.4612 5.85894 79.3456 6.0459 79.2699 6.24998C79.1799 6.47567 79.1357 6.71703 79.1399 6.95998V11.11H76.9899V6.95998C77.009 6.49451 76.8478 6.03963 76.5399 5.68998C76.3885 5.53371 76.2064 5.41043 76.005 5.32783C75.8037 5.24523 75.5875 5.2051 75.3699 5.20998C75.1537 5.20404 74.9387 5.24372 74.7388 5.32642C74.5389 5.40913 74.3587 5.533 74.2099 5.68998C74.0489 5.85869 73.9234 6.05807 73.841 6.27624C73.7585 6.49442 73.7207 6.72693 73.7299 6.95998V11.11H71.4899V6.90999C71.4857 6.3989 71.5843 5.89217 71.7799 5.41998C71.9589 5.00124 72.2169 4.62096 72.5399 4.29998C72.8738 3.95006 73.2799 3.67708 73.7299 3.49999C74.2011 3.31378 74.7033 3.21876 75.2099 3.21999C75.7812 3.21321 76.3462 3.33989 76.8599 3.58998C77.3394 3.82306 77.7573 4.16561 78.0799 4.58998C78.3967 4.1639 78.8118 3.8208 79.2899 3.58998C79.8076 3.34114 80.3756 3.21456 80.9499 3.21999C81.4599 3.21749 81.9656 3.31253 82.4399 3.49999C82.8769 3.67989 83.2693 3.95289 83.5899 4.29998C83.9201 4.63449 84.1847 5.02796 84.3699 5.45998C84.5495 5.93619 84.6409 6.44107 84.6399 6.94999V11.15H82.3899V6.95998Z" fill="black" style="fill:black;fill-opacity:1;"></path><path d="M93.1199 9.57971C92.8787 9.92088 92.5811 10.2184 92.2399 10.4597C91.8856 10.7119 91.4943 10.9076 91.0799 11.0397C90.632 11.1725 90.1672 11.2398 89.6999 11.2397C89.1483 11.2518 88.6002 11.1496 88.0899 10.9397C87.6168 10.7479 87.1855 10.466 86.8199 10.1097C86.4648 9.7432 86.183 9.31212 85.9899 8.83971C85.7989 8.32519 85.7106 7.77821 85.7299 7.22971C85.7241 6.67863 85.826 6.13171 86.0299 5.61971C86.2254 5.14854 86.5068 4.71787 86.8599 4.34971C87.2281 3.99663 87.6588 3.71517 88.1299 3.51971C89.1934 3.1002 90.3765 3.1002 91.4399 3.51971C91.9327 3.73629 92.3728 4.05697 92.7299 4.45971C93.088 4.87704 93.363 5.35904 93.5399 5.87971C93.7283 6.46791 93.8228 7.0821 93.8199 7.69971H87.9699C88.0187 8.17342 88.2308 8.61538 88.5699 8.94971C88.8942 9.26298 89.3291 9.43549 89.7799 9.42971C90.1536 9.43078 90.5215 9.33793 90.8499 9.15971C91.1417 9.00639 91.374 8.76003 91.5099 8.45971H93.6499C93.5499 8.86472 93.3697 9.24557 93.1199 9.57971ZM90.9299 5.37971C90.6024 5.12327 90.1958 4.9889 89.7799 4.99971C89.3652 4.9871 88.96 5.12571 88.6399 5.38971C88.3126 5.67805 88.0938 6.06976 88.0199 6.49971H91.5699C91.4937 6.06317 91.2673 5.66699 90.9299 5.37971Z" fill="black" style="fill:black;fill-opacity:1;"></path><path d="M55.5199 1.99987C55.6239 2.10641 55.7503 2.1884 55.8899 2.23987C56.0301 2.3078 56.1842 2.34204 56.3399 2.33987C56.4988 2.34144 56.656 2.30726 56.7999 2.23987C56.9379 2.18518 57.0637 2.1036 57.1699 1.99987C57.2726 1.88331 57.3569 1.75181 57.4199 1.60987C57.487 1.46974 57.518 1.31503 57.5099 1.15987C57.515 1.00172 57.4842 0.844464 57.4199 0.699871C57.3568 0.554919 57.2726 0.420121 57.1699 0.299871C57.0585 0.202861 56.9339 0.122064 56.7999 0.0598714C56.6518 0.0106352 56.4957 -0.00973299 56.3399 -0.000128642C56.1853 -0.00122379 56.0322 0.0294078 55.8899 0.0898714C55.7533 0.14731 55.6281 0.228575 55.5199 0.329871C55.4134 0.437951 55.3255 0.562987 55.2599 0.699871C55.1956 0.844464 55.1649 1.00172 55.1699 1.15987C55.1619 1.31503 55.1928 1.46974 55.2599 1.60987C55.3228 1.75424 55.4109 1.88629 55.5199 1.99987Z" fill="black" style="fill:black;fill-opacity:1;"></path><path d="M55.24 7.0101L57.45 4.5601V3.3501H55.24V7.0101Z" fill="black" style="fill:black;fill-opacity:1;"></path><path d="M55.24 9.51982V11.0999H57.45V7.06982L55.24 9.51982Z" fill="black" style="fill:black;fill-opacity:1;"></path></g><defs><clipPath id="clip0_2090_1928"><rect width="94" height="14" fill="white" style="fill:white;fill-opacity:1;"></rect></clipPath></defs></svg> 