<svg width="400" height="250" fill="none" xmlns="http://www.w3.org/2000/svg"><g clip-path="url(#a)"><path fill="#FAFDFF" d="M0 0h400v250H0z"/><path fill="#fff" d="M52 49h297v151H52z"/><path d="M260.34 205.125h-8.38a1.21 1.21 0 0 0-1.21 1.21v8.38c0 .668.542 1.21 1.21 1.21h8.38a1.21 1.21 0 0 0 1.21-1.21v-8.38a1.21 1.21 0 0 0-1.21-1.21z" fill="#2667FF"/><path fill-rule="evenodd" clip-rule="evenodd" d="M337.95 205.38a.955.955 0 0 0-.955.955v8.38c0 .527.428.955.955.955h8.38a.955.955 0 0 0 .955-.955v-8.38a.954.954 0 0 0-.955-.955h-8.38zm-1.465.955c0-.809.656-1.465 1.465-1.465h8.38c.809 0 1.465.656 1.465 1.465v8.38c0 .809-.656 1.465-1.465 1.465h-8.38a1.465 1.465 0 0 1-1.465-1.465v-8.38z" fill="#DDF1FF"/><path fill-rule="evenodd" clip-rule="evenodd" d="M340.876 208.551a.51.51 0 0 1 .718.07l1.67 2.03a.511.511 0 0 1-.045.697l-1.67 1.56a.51.51 0 0 1-.697-.746l1.32-1.233-1.365-1.66a.51.51 0 0 1 .069-.718zM106.284 37.688a.51.51 0 0 1-.027.72l-1.8 1.67a.51.51 0 0 1-.695 0l-1.79-1.67a.51.51 0 0 1 .696-.746l1.443 1.346 1.452-1.347a.51.51 0 0 1 .721.027z" fill="#2667FF"/><path fill-rule="evenodd" clip-rule="evenodd" d="M85.5 33.51a.955.955 0 0 0-.955.955v8.38c0 .527.428.955.955.955h21.17a.955.955 0 0 0 .955-.955v-8.38a.955.955 0 0 0-.955-.955H85.5zm-1.465.955c0-.81.656-1.465 1.465-1.465h21.17c.809 0 1.465.656 1.465 1.465v8.38c0 .81-.656 1.465-1.465 1.465H85.5c-.809 0-1.465-.656-1.465-1.465v-8.38zM51 49.955a.51.51 0 0 1 .51-.51h296.03a.51.51 0 0 1 .51.51v149.05a.51.51 0 0 1-.51.51H51.51a.51.51 0 0 1-.51-.51V49.955zm1.02.51v148.03h295.01V50.465H52.02z" fill="#DDF1FF"/><path fill-rule="evenodd" clip-rule="evenodd" d="M51 180.345a.51.51 0 0 1 .51-.51h296.03a.51.51 0 0 1 0 1.02H51.51a.51.51 0 0 1-.51-.51zM51 161.685a.51.51 0 0 1 .51-.51h296.03a.51.51 0 1 1 0 1.02H51.51a.51.51 0 0 1-.51-.51zM51 143.025a.51.51 0 0 1 .51-.51h296.03a.51.51 0 1 1 0 1.02H51.51a.51.51 0 0 1-.51-.51zM51 124.355a.51.51 0 0 1 .51-.51h296.03a.51.51 0 0 1 0 1.02H51.51a.51.51 0 0 1-.51-.51zM51 105.695a.51.51 0 0 1 .51-.51h296.03a.51.51 0 1 1 0 1.02H51.51a.51.51 0 0 1-.51-.51zM51 87.035a.51.51 0 0 1 .51-.51h296.03a.51.51 0 1 1 0 1.02H51.51a.51.51 0 0 1-.51-.51zM51 68.375a.51.51 0 0 1 .51-.51h296.03a.51.51 0 1 1 0 1.02H51.51a.51.51 0 0 1-.51-.51z" fill="#DDF1FF"/><path d="M124.4 55.955h-2.72c-.1 0-.15-.11-.09-.18l1.35-1.64c.04-.05.13-.05.17 0l1.37 1.64c.06.07 0 .18-.09.18h.01zM121.69 58.385h2.72c.1 0 .15.11.09.18l-1.35 1.64c-.04.05-.13.05-.17 0l-1.37-1.64c-.06-.07 0-.18.09-.18h-.01zM155.45 55.955h-2.72c-.1 0-.15-.11-.09-.18l1.35-1.64c.04-.05.13-.05.17 0l1.37 1.64c.06.07 0 .18-.09.18h.01zM152.74 58.385h2.72c.1 0 .15.11.09.18l-1.35 1.64c-.04.05-.13.05-.17 0l-1.37-1.64c-.06-.07 0-.18.09-.18h-.01zM238.08 55.955h-2.72c-.1 0-.15-.11-.09-.18l1.35-1.64c.04-.05.13-.05.17 0l1.37 1.64c.06.07 0 .18-.09.18h.01zM235.36 58.385h2.72c.1 0 .15.11.09.18l-1.35 1.64c-.04.05-.13.05-.17 0l-1.37-1.64c-.06-.07 0-.18.09-.18h-.01zM288.42 55.955h-2.72c-.1 0-.15-.11-.09-.18l1.35-1.64c.04-.05.13-.05.17 0l1.37 1.64c.06.07 0 .18-.09.18h.01zM285.71 58.385h2.72c.1 0 .15.11.09.18l-1.35 1.64c-.04.05-.13.05-.17 0l-1.37-1.64c-.06-.07 0-.18.09-.18h-.01zM342.971 55.955h-2.72c-.1 0-.15-.11-.09-.18l1.35-1.64c.04-.05.13-.05.17 0l1.37 1.64c.06.07 0 .18-.09.18h.01zM340.251 58.385h2.72c.1 0 .15.11.09.18l-1.35 1.64c-.04.05-.13.05-.17 0l-1.37-1.64c-.06-.07 0-.18.09-.18h-.01z" fill="#DDF1FF"/><path fill-rule="evenodd" clip-rule="evenodd" d="M275.05 33.51a.955.955 0 0 0-.955.955v8.38c0 .527.428.955.955.955h70.92a.955.955 0 0 0 .955-.955v-8.38a.955.955 0 0 0-.955-.955h-70.92zm-1.465.955c0-.81.656-1.465 1.465-1.465h70.92c.809 0 1.465.656 1.465 1.465v8.38c0 .81-.656 1.465-1.465 1.465h-70.92a1.465 1.465 0 0 1-1.465-1.465v-8.38z" fill="#DDF1FF"/><path fill-rule="evenodd" clip-rule="evenodd" d="M280.13 36.775c-1.13 0-2.05.92-2.05 2.05s.92 2.05 2.05 2.05 2.05-.92 2.05-2.05-.92-2.05-2.05-2.05zm-2.51 2.05c0-1.39 1.12-2.51 2.51-2.51 1.39 0 2.51 1.12 2.51 2.51 0 .59-.21 1.16-.58 1.61l1.49 1.49c.09.09.1.23.01.33-.09.1-.23.1-.33.01l-.01-.01-1.49-1.49a2.51 2.51 0 0 1-3.54-.33c-.37-.45-.58-1.02-.58-1.61h.01zm1.93-.75c.11-.07.14-.21.07-.32a.229.229 0 0 0-.32-.07c-.4.25-.7.87-.58 1.59.02.13.14.21.27.19a.23.23 0 0 0 .19-.27c-.09-.56.16-.98.37-1.12z" fill="#2667FF"/><path d="M77.67 55.665H58.2a1.74 1.74 0 1 0 0 3.48h19.47a1.74 1.74 0 0 0 0-3.48z" fill="#2667FF"/><path d="M94.43 37.225h-5.52a1.16 1.16 0 1 0 0 2.32h5.52a1.16 1.16 0 0 0 0-2.32z" fill="#DDF1FF"/><path d="M318.23 37.225h-30a1.16 1.16 0 1 0 0 2.32h30a1.16 1.16 0 0 0 0-2.32z" fill="#7BC0EA"/><path d="M72.94 36.645H53.47a1.74 1.74 0 1 0 0 3.48h19.47a1.74 1.74 0 1 0 0-3.48z" fill="#2667FF"/><path d="M99.93 208.785H58.2a1.74 1.74 0 1 0 0 3.48h41.73a1.74 1.74 0 1 0 0-3.48z" fill="#7BC0EA"/><path d="M144.44 55.665h-11.31a1.74 1.74 0 1 0 0 3.48h11.31a1.74 1.74 0 1 0 0-3.48zM178.46 55.665h-11.31a1.74 1.74 0 1 0 0 3.48h11.31a1.74 1.74 0 1 0 0-3.48zM266.27 55.665h-17.66a1.74 1.74 0 1 0 0 3.48h17.66a1.74 1.74 0 1 0 0-3.48zM323.42 55.665h-23.96a1.74 1.74 0 1 0 0 3.48h23.96a1.74 1.74 0 1 0 0-3.48z" fill="#2667FF"/><path d="M98.07 76.775H58.2a1.74 1.74 0 1 0 0 3.48h39.87a1.74 1.74 0 0 0 0-3.48zM139.42 76.775h-6.29a1.74 1.74 0 1 0 0 3.48h6.29a1.74 1.74 0 1 0 0-3.48z" fill="#DDF1FF"/><path d="M173.44 76.775h-6.29a1.74 1.74 0 1 0 0 3.48h6.29a1.74 1.74 0 1 0 0-3.48z" fill="#7BC0EA"/><path d="M254.9 76.775h-6.29a1.74 1.74 0 1 0 0 3.48h6.29a1.74 1.74 0 1 0 0-3.48z" fill="#DDF1FF"/><path d="M314.93 76.775h-15.47a1.74 1.74 0 1 0 0 3.48h15.47a1.74 1.74 0 1 0 0-3.48z" fill="#7BC0EA"/><path d="M77.67 95.605H58.2a1.74 1.74 0 1 0 0 3.48h19.47a1.74 1.74 0 0 0 0-3.48zM139.42 95.605h-6.29a1.74 1.74 0 1 0 0 3.48h6.29a1.74 1.74 0 1 0 0-3.48z" fill="#DDF1FF"/><path d="M173.44 95.605h-6.29a1.74 1.74 0 1 0 0 3.48h6.29a1.74 1.74 0 1 0 0-3.48z" fill="#7BC0EA"/><path d="M254.9 95.605h-6.29a1.74 1.74 0 1 0 0 3.48h6.29a1.74 1.74 0 1 0 0-3.48z" fill="#DDF1FF"/><path d="M314.93 95.605h-15.47a1.74 1.74 0 1 0 0 3.48h15.47a1.74 1.74 0 1 0 0-3.48z" fill="#7BC0EA"/><path d="M87.87 113.285H58.2a1.74 1.74 0 1 0 0 3.48h29.67a1.74 1.74 0 0 0 0-3.48zM139.42 113.285h-6.29a1.74 1.74 0 1 0 0 3.48h6.29a1.74 1.74 0 1 0 0-3.48z" fill="#DDF1FF"/><path d="M173.44 113.285h-6.29a1.74 1.74 0 1 0 0 3.48h6.29a1.74 1.74 0 1 0 0-3.48z" fill="#7BC0EA"/><path d="M254.9 113.285h-6.29a1.74 1.74 0 1 0 0 3.48h6.29a1.74 1.74 0 1 0 0-3.48z" fill="#DDF1FF"/><path d="M314.93 113.285h-15.47a1.74 1.74 0 1 0 0 3.48h15.47a1.74 1.74 0 1 0 0-3.48z" fill="#7BC0EA"/><path d="M77.67 132.065H58.2a1.74 1.74 0 1 0 0 3.48h19.47a1.74 1.74 0 0 0 0-3.48zM139.42 132.065h-6.29a1.74 1.74 0 1 0 0 3.48h6.29a1.74 1.74 0 1 0 0-3.48z" fill="#DDF1FF"/><path d="M173.44 132.065h-6.29a1.74 1.74 0 1 0 0 3.48h6.29a1.74 1.74 0 1 0 0-3.48z" fill="#7BC0EA"/><path d="M254.9 132.065h-6.29a1.74 1.74 0 1 0 0 3.48h6.29a1.74 1.74 0 1 0 0-3.48z" fill="#DDF1FF"/><path d="M314.93 132.065h-15.47a1.74 1.74 0 1 0 0 3.48h15.47a1.74 1.74 0 1 0 0-3.48z" fill="#7BC0EA"/><path d="M98.07 150.975H58.2a1.74 1.74 0 1 0 0 3.48h39.87a1.74 1.74 0 0 0 0-3.48zM139.42 150.975h-6.29a1.74 1.74 0 1 0 0 3.48h6.29a1.74 1.74 0 1 0 0-3.48z" fill="#DDF1FF"/><path d="M173.44 150.975h-6.29a1.74 1.74 0 1 0 0 3.48h6.29a1.74 1.74 0 1 0 0-3.48z" fill="#7BC0EA"/><path d="M254.9 150.975h-6.29a1.74 1.74 0 1 0 0 3.48h6.29a1.74 1.74 0 1 0 0-3.48z" fill="#DDF1FF"/><path d="M314.93 150.975h-15.47a1.74 1.74 0 1 0 0 3.48h15.47a1.74 1.74 0 1 0 0-3.48z" fill="#7BC0EA"/><path d="M77.67 169.755H58.2a1.74 1.74 0 1 0 0 3.48h19.47a1.74 1.74 0 0 0 0-3.48zM139.42 169.755h-6.29a1.74 1.74 0 1 0 0 3.48h6.29a1.74 1.74 0 1 0 0-3.48z" fill="#DDF1FF"/><path d="M173.44 169.755h-6.29a1.74 1.74 0 1 0 0 3.48h6.29a1.74 1.74 0 1 0 0-3.48z" fill="#7BC0EA"/><path d="M254.9 169.755h-6.29a1.74 1.74 0 1 0 0 3.48h6.29a1.74 1.74 0 1 0 0-3.48z" fill="#DDF1FF"/><path d="M314.93 169.755h-15.47a1.74 1.74 0 1 0 0 3.48h15.47a1.74 1.74 0 1 0 0-3.48z" fill="#7BC0EA"/><path d="M87.87 187.965H58.2a1.74 1.74 0 1 0 0 3.48h29.67a1.74 1.74 0 0 0 0-3.48zM139.42 187.965h-6.29a1.74 1.74 0 1 0 0 3.48h6.29a1.74 1.74 0 1 0 0-3.48z" fill="#DDF1FF"/><path d="M173.44 187.965h-6.29a1.74 1.74 0 1 0 0 3.48h6.29a1.74 1.74 0 1 0 0-3.48z" fill="#7BC0EA"/><path d="M254.9 187.965h-6.29a1.74 1.74 0 1 0 0 3.48h6.29a1.74 1.74 0 1 0 0-3.48z" fill="#DDF1FF"/><path d="M314.93 187.965h-15.47a1.74 1.74 0 1 0 0 3.48h15.47a1.74 1.74 0 1 0 0-3.48z" fill="#7BC0EA"/><path d="M258.22 209.745h-4.14a.78.78 0 1 0 0 1.56h4.14a.78.78 0 1 0 0-1.56z" fill="#DDF1FF"/><path fill-rule="evenodd" clip-rule="evenodd" d="M266.69 205.38a.955.955 0 0 0-.955.955v8.38c0 .527.428.955.955.955h8.38a.955.955 0 0 0 .955-.955v-8.38a.954.954 0 0 0-.955-.955h-8.38zm-1.465.955c0-.809.656-1.465 1.465-1.465h8.38c.809 0 1.465.656 1.465 1.465v8.38c0 .809-.656 1.465-1.465 1.465h-8.38a1.465 1.465 0 0 1-1.465-1.465v-8.38z" fill="#DDF1FF"/><path d="M271.94 209.745h-2.1a.78.78 0 1 0 0 1.56h2.1a.78.78 0 1 0 0-1.56z" fill="#DDF1FF"/><path fill-rule="evenodd" clip-rule="evenodd" d="M280.95 205.38a.955.955 0 0 0-.955.955v8.38c0 .527.428.955.955.955h8.38a.955.955 0 0 0 .955-.955v-8.38a.954.954 0 0 0-.955-.955h-8.38zm-1.465.955c0-.809.656-1.465 1.465-1.465h8.38c.809 0 1.465.656 1.465 1.465v8.38c0 .809-.656 1.465-1.465 1.465h-8.38a1.465 1.465 0 0 1-1.465-1.465v-8.38z" fill="#DDF1FF"/><path d="M286.19 209.745h-2.1a.78.78 0 1 0 0 1.56h2.1a.78.78 0 1 0 0-1.56z" fill="#DDF1FF"/><path fill-rule="evenodd" clip-rule="evenodd" d="M295.2 205.38a.955.955 0 0 0-.955.955v8.38c0 .527.428.955.955.955h8.38a.955.955 0 0 0 .955-.955v-8.38a.954.954 0 0 0-.955-.955h-8.38zm-1.465.955c0-.809.656-1.465 1.465-1.465h8.38c.809 0 1.465.656 1.465 1.465v8.38c0 .809-.656 1.465-1.465 1.465h-8.38a1.465 1.465 0 0 1-1.465-1.465v-8.38z" fill="#DDF1FF"/><path d="M300.44 209.745h-2.1a.78.78 0 1 0 0 1.56h2.1a.78.78 0 1 0 0-1.56z" fill="#DDF1FF"/><path fill-rule="evenodd" clip-rule="evenodd" d="M309.45 205.38a.955.955 0 0 0-.955.955v8.38c0 .527.428.955.955.955h8.38a.955.955 0 0 0 .955-.955v-8.38a.954.954 0 0 0-.955-.955h-8.38zm-1.465.955c0-.809.656-1.465 1.465-1.465h8.38c.809 0 1.465.656 1.465 1.465v8.38c0 .809-.656 1.465-1.465 1.465h-8.38a1.465 1.465 0 0 1-1.465-1.465v-8.38z" fill="#DDF1FF"/><path d="M314.691 209.745h-2.1a.78.78 0 1 0 0 1.56h2.1a.78.78 0 0 0 0-1.56z" fill="#DDF1FF"/><path fill-rule="evenodd" clip-rule="evenodd" d="M323.7 205.38a.955.955 0 0 0-.955.955v8.38c0 .527.428.955.955.955h8.38a.955.955 0 0 0 .955-.955v-8.38a.954.954 0 0 0-.955-.955h-8.38zm-1.465.955c0-.809.656-1.465 1.465-1.465h8.38c.809 0 1.465.656 1.465 1.465v8.38c0 .809-.656 1.465-1.465 1.465h-8.38a1.465 1.465 0 0 1-1.465-1.465v-8.38z" fill="#DDF1FF"/><path d="M328.941 209.745h-2.1a.78.78 0 1 0 0 1.56h2.1a.78.78 0 0 0 0-1.56z" fill="#DDF1FF"/></g><defs><clipPath id="a"><path fill="#fff" d="M0 0h400v250H0z"/></clipPath></defs></svg>