<svg width="400" height="250" fill="none" xmlns="http://www.w3.org/2000/svg"><g clip-path="url(#a)"><path fill="#FAFDFF" d="M0 0h400v250H0z"/><path fill-rule="evenodd" clip-rule="evenodd" d="M79.7 38a5.7 5.7 0 0 0-5.7 5.7v162.87a5.7 5.7 0 0 0 5.7 5.7h241.44a5.7 5.7 0 0 0 5.7-5.7V43.7a5.7 5.7 0 0 0-5.7-5.7H79.7zM66 43.7C66 36.134 72.134 30 79.7 30h241.44c7.566 0 13.7 6.134 13.7 13.7v162.87c0 7.566-6.134 13.7-13.7 13.7H79.7c-7.566 0-13.7-6.134-13.7-13.7V43.7z" fill="#2667FF"/><path fill-rule="evenodd" clip-rule="evenodd" d="m147.383 149.178-.001.001-71.72 65.289-5.385-5.916 71.72-65.29.001-.001c6.341-5.769 16.09-5.573 22.185.455l70.72 69.94-5.626 5.688-70.72-69.94c-3.065-3.032-7.975-3.136-11.174-.226z" fill="#2667FF"/><path fill-rule="evenodd" clip-rule="evenodd" d="M267.338 115.414a8.12 8.12 0 0 0-11.472.007l-61.129 61.059-5.654-5.66 61.132-61.061c6.289-6.276 16.464-6.29 22.768-.013l60.671 60.461-5.647 5.666-60.669-60.459z" fill="#2667FF"/><path fill-rule="evenodd" clip-rule="evenodd" d="M110.5 62.1c-6.099 0-11.04 4.94-11.04 11.03 0 6.09 4.941 11.03 11.04 11.03 6.099 0 11.04-4.94 11.04-11.03 0-6.09-4.941-11.03-11.04-11.03zM95.46 73.13c0-8.302 6.735-15.03 15.04-15.03s15.04 6.728 15.04 15.03-6.735 15.03-15.04 15.03-15.04-6.728-15.04-15.03z" fill="#DDF1FF"/><path fill-rule="evenodd" clip-rule="evenodd" d="M103.13 72.94a2 2 0 0 1 2-2h10.74a2 2 0 0 1 0 4h-10.74a2 2 0 0 1-2-2z" fill="#DDF1FF"/><path fill-rule="evenodd" clip-rule="evenodd" d="M110.5 65.57a2 2 0 0 1 2 2v10.74a2 2 0 1 1-4 0V67.57a2 2 0 0 1 2-2z" fill="#DDF1FF"/><path fill-rule="evenodd" clip-rule="evenodd" d="M191.91 85.97c-12.081 0-21.87 9.78-21.87 21.84 0 12.059 9.789 21.84 21.87 21.84 12.081 0 21.87-9.781 21.87-21.84 0-12.06-9.789-21.84-21.87-21.84zm-26.09 21.84c0-14.395 11.684-26.06 26.09-26.06 14.407 0 26.09 11.665 26.09 26.06s-11.683 26.06-26.09 26.06c-14.406 0-26.09-11.665-26.09-26.06z" fill="#2667FF"/><path fill-rule="evenodd" clip-rule="evenodd" d="M179.44 107.49a2.11 2.11 0 0 1 2.11-2.11h20.72a2.11 2.11 0 0 1 0 4.22h-20.72a2.11 2.11 0 0 1-2.11-2.11z" fill="#2667FF"/><path fill-rule="evenodd" clip-rule="evenodd" d="M191.91 95.02a2.11 2.11 0 0 1 2.11 2.11v20.72a2.11 2.11 0 1 1-4.22 0V97.13a2.11 2.11 0 0 1 2.11-2.11z" fill="#2667FF"/><path fill-rule="evenodd" clip-rule="evenodd" d="M292.39 57.2c-7.513 0-13.6 6.082-13.6 13.58s6.087 13.58 13.6 13.58c7.514 0 13.6-6.082 13.6-13.58s-6.086-13.58-13.6-13.58zm-17.6 13.58c0-9.712 7.882-17.58 17.6-17.58 9.718 0 17.6 7.868 17.6 17.58 0 9.712-7.882 17.58-17.6 17.58-9.718 0-17.6-7.868-17.6-17.58z" fill="#DDF1FF"/><path fill-rule="evenodd" clip-rule="evenodd" d="M283.97 70.54a2 2 0 0 1 2-2h12.83a2 2 0 1 1 0 4h-12.83a2 2 0 0 1-2-2z" fill="#DDF1FF"/><path fill-rule="evenodd" clip-rule="evenodd" d="M292.39 62.13a2 2 0 0 1 2 2v12.83a2 2 0 1 1-4 0V64.13a2 2 0 0 1 2-2z" fill="#DDF1FF"/></g><defs><clipPath id="a"><path fill="#fff" d="M0 0h400v250H0z"/></clipPath></defs></svg>