<svg width="400" height="250" viewBox="0 0 400 250" fill="none" xmlns="http://www.w3.org/2000/svg">
<g clip-path="url(#clip0_319_2)">
<rect width="400" height="250" fill="#FAFDFF"/>
<path fill-rule="evenodd" clip-rule="evenodd" d="M187.97 157.64H109.05C108.65 157.64 108.261 157.597 107.885 157.516C107.651 157.592 107.405 157.63 107.16 157.63L107.17 157.64C106.62 157.64 106.08 157.45 105.64 157.05C105.242 156.694 104.998 156.232 104.911 155.746C104.082 154.787 103.58 153.537 103.58 152.17V97.47C103.58 94.45 106.03 92 109.05 92H187.97C190.99 92 193.44 94.45 193.44 97.47V152.18C193.44 155.2 190.99 157.65 187.97 157.65V157.64ZM108.18 150.766V97.47C108.18 96.99 108.57 96.6001 109.05 96.6001H187.97C188.45 96.6001 188.84 96.99 188.84 97.47V129.778L175.58 116.58C172.96 113.96 168.69 113.96 166.07 116.58L145.757 136.875L137.58 127.69C136.47 126.45 134.89 125.73 133.23 125.73C131.58 125.73 130 126.44 128.89 127.67L108.18 150.766ZM172.33 119.83L188.84 136.263V152.18C188.84 152.66 188.45 153.05 187.97 153.05H160.157L148.813 140.308L169.31 119.83C170.14 119 171.5 119 172.33 119.83ZM112.295 153.05L132.3 130.74C132.62 130.38 133.01 130.33 133.22 130.33C133.43 130.33 133.82 130.39 134.14 130.75L153.993 153.05H112.295ZM290.24 157.64H211.32C211.217 157.64 211.115 157.637 211.013 157.631C210.952 157.628 210.89 157.624 210.829 157.618C210.6 157.598 210.375 157.563 210.156 157.516C210.011 157.563 209.862 157.595 209.712 157.613C209.618 157.624 209.524 157.63 209.43 157.63V157.64C208.88 157.64 208.34 157.45 207.9 157.05C207.498 156.69 207.253 156.223 207.169 155.731C206.347 154.774 205.85 153.53 205.85 152.17V97.47C205.85 94.45 208.3 92 211.32 92H290.24C293.26 92 295.71 94.45 295.71 97.47V152.18C295.71 155.2 293.26 157.65 290.24 157.65V157.64ZM210.45 150.755V97.47C210.45 96.99 210.84 96.6001 211.32 96.6001H290.24C290.72 96.6001 291.11 96.99 291.11 97.47V129.778L277.85 116.58C275.23 113.96 270.96 113.96 268.34 116.58L248.027 136.875L239.85 127.69C238.74 126.45 237.16 125.73 235.5 125.73H235.49C233.84 125.73 232.26 126.44 231.15 127.67L210.45 150.755ZM274.6 119.83L291.11 136.263V152.18C291.11 152.66 290.72 153.05 290.24 153.05H262.427L251.083 140.308L271.58 119.83C272.41 119 273.77 119 274.6 119.83ZM214.565 153.05L234.57 130.74C234.89 130.38 235.28 130.33 235.49 130.33C235.505 130.33 235.521 130.331 235.537 130.331L235.589 130.334C235.641 130.339 235.699 130.347 235.761 130.361C235.961 130.407 236.2 130.514 236.41 130.75L256.263 153.05H214.565ZM308.11 97.47C308.11 94.45 310.56 92 313.58 92H353.3V96.6001H313.58C313.1 96.6001 312.71 96.99 312.71 97.47V150.79L333.42 127.69C334.52 126.46 336.1 125.75 337.76 125.75C339.42 125.76 341.01 126.47 342.11 127.71L353.29 140.26V147.17L338.68 130.76C338.502 130.555 338.303 130.448 338.125 130.394C337.982 130.35 337.853 130.34 337.76 130.34C337.55 130.34 337.16 130.39 336.84 130.75L316.85 153.05H353.3V157.65H313.58C313.18 157.65 312.8 157.6 312.42 157.52C311.24 157.27 310.21 156.63 309.45 155.75C308.62 154.79 308.11 153.55 308.11 152.18V97.47ZM336.73 113.02C336.73 108.29 340.58 104.44 345.32 104.44V104.43C348.93 104.43 352.02 106.68 353.29 109.84V116.19C352.03 119.36 348.93 121.6 345.32 121.6C340.58 121.6 336.73 117.75 336.73 113.02ZM341.33 113.02C341.33 115.22 343.12 117.01 345.32 117.01C347.52 117.01 349.31 115.22 349.31 113.02C349.31 110.82 347.52 109.03 345.32 109.03C343.12 109.03 341.33 110.82 341.33 113.02ZM234.47 113.02C234.47 117.75 238.32 121.6 243.06 121.6C247.8 121.6 251.65 117.75 251.65 113.02C251.65 108.29 247.8 104.44 243.06 104.44C238.32 104.44 234.47 108.29 234.47 113.02ZM239.07 113.02C239.07 110.82 240.86 109.03 243.06 109.03C245.26 109.03 247.05 110.82 247.05 113.02C247.05 115.22 245.26 117.01 243.06 117.01C240.86 117.01 239.07 115.22 239.07 113.02ZM132.21 113.02C132.21 117.75 136.06 121.6 140.8 121.6C145.54 121.6 149.39 117.75 149.39 113.02C149.39 108.29 145.54 104.44 140.8 104.44C136.06 104.44 132.21 108.29 132.21 113.02ZM136.81 113.02C136.81 110.82 138.6 109.03 140.8 109.03C143 109.03 144.79 110.82 144.79 113.02C144.79 115.22 143 117.01 140.8 117.01C138.6 117.01 136.81 115.22 136.81 113.02ZM46 121.6V117C48.2 117 49.99 115.21 49.99 113.01C49.99 110.81 48.2 109.02 46 109.02V104.42C50.74 104.42 54.5901 108.27 54.5901 113C54.5901 117.73 50.74 121.6 46 121.6ZM46 92H85.71C88.73 92 91.1799 94.45 91.1799 97.47V152.17C91.1799 155.19 88.73 157.64 85.71 157.64H46V153.04H51.75L46 146.59V139.68L57.8999 153.05H85.71C86.1899 153.05 86.5801 152.66 86.5801 152.18V97.47C86.5801 96.99 86.1899 96.6001 85.71 96.6001H46V92Z" fill="#2667FF"/>
</g>
<defs>
<clipPath id="clip0_319_2">
<rect width="400" height="250" fill="white"/>
</clipPath>
</defs>
</svg>
