<svg
  width="{400}"
  height="{250}"
  viewBox="0 0 400 250"
  fill="none"
  xmlns="http://www.w3.org/2000/svg"
>
  <g clippath="url(#clip0_397_2)">
    <rect width="{400}" height="{250}" fill="#FAFDFF" />
    <path
      fillrule="evenodd"
      cliprule="evenodd"
      d="M75.673 178.401C73.4048 178.401 71.566 180.24 71.566 182.508V206.473C71.566 208.742 73.4048 210.58 75.673 210.58H174.233C176.501 210.58 178.34 208.742 178.34 206.473V182.508C178.34 180.24 176.501 178.401 174.233 178.401H75.673ZM68 182.508C68 178.271 71.4353 174.835 75.673 174.835H174.233C178.471 174.835 181.906 178.271 181.906 182.508V206.473C181.906 210.711 178.471 214.146 174.233 214.146H75.673C71.4353 214.146 68 210.711 68 206.473V182.508Z"
      fill="#2667FF"
    />
    <path
      fillrule="evenodd"
      cliprule="evenodd"
      d="M69.2205 38.9825C69.2205 36.783 71.0035 35 73.203 35H327.389C329.588 35 331.371 36.783 331.371 38.9825C331.371 41.182 329.588 42.965 327.389 42.965H73.203C71.0035 42.965 69.2205 41.182 69.2205 38.9825Z"
      fill="#DDF1FF"
    />
    <path
      fillrule="evenodd"
      cliprule="evenodd"
      d="M69.2205 80.2735C69.2205 78.074 71.0035 76.291 73.203 76.291H272.938C275.137 76.291 276.92 78.074 276.92 80.2735C276.92 82.473 275.137 84.256 272.938 84.256H73.203C71.0035 84.256 69.2205 82.473 69.2205 80.2735Z"
      fill="#DDF1FF"
    />
    <path
      fillrule="evenodd"
      cliprule="evenodd"
      d="M69.2205 121.534C69.2205 119.334 71.0035 117.551 73.203 117.551H216.424C218.623 117.551 220.406 119.334 220.406 121.534C220.406 123.733 218.623 125.516 216.424 125.516H73.203C71.0035 125.516 69.2205 123.733 69.2205 121.534Z"
      fill="#DDF1FF"
    />
    <path
      fillrule="evenodd"
      cliprule="evenodd"
      d="M82.9189 195.161C82.9189 194.092 83.7862 193.224 84.8559 193.224H132.77C133.84 193.224 134.707 194.092 134.707 195.161C134.707 196.231 133.84 197.098 132.77 197.098H84.8559C83.7862 197.098 82.9189 196.231 82.9189 195.161Z"
      fill="#DDF1FF"
    />
    <path
      fillrule="evenodd"
      cliprule="evenodd"
      d="M159.123 185.501C160.193 185.501 161.06 186.369 161.06 187.438V201.543C161.06 202.613 160.193 203.48 159.123 203.48C158.053 203.48 157.186 202.613 157.186 201.543V187.438C157.186 186.369 158.053 185.501 159.123 185.501Z"
      fill="#DDF1FF"
    />
    <path
      fillrule="evenodd"
      cliprule="evenodd"
      d="M166.659 194.759C167.374 195.554 167.31 196.779 166.515 197.495L160.419 202.983C159.624 203.699 158.399 203.634 157.683 202.839C156.968 202.044 157.032 200.82 157.827 200.104L163.923 194.616C164.718 193.9 165.943 193.964 166.659 194.759Z"
      fill="#DDF1FF"
    />
    <path
      fillrule="evenodd"
      cliprule="evenodd"
      d="M151.587 194.759C152.303 193.964 153.528 193.9 154.323 194.616L160.419 200.104C161.214 200.82 161.278 202.044 160.562 202.839C159.847 203.634 158.622 203.699 157.827 202.983L151.731 197.495C150.936 196.779 150.872 195.554 151.587 194.759Z"
      fill="#DDF1FF"
    />
  </g>
  <defs>
    <clipPath id="clip0_397_2">
      <rect width="{400}" height="{250}" fill="white" />
    </clipPath>
  </defs>
</svg>
