<?xml version="1.0" encoding="UTF-8"?>
<svg id="Layer_1" data-name="Layer 1" xmlns="http://www.w3.org/2000/svg" viewBox="0 0 500 500">
  <rect width="500" height="500" rx="25.01" ry="25.01" style="fill: #2600ff;"/>
  <g>
    <polygon points="103.17 226.52 231.75 96.57 102.54 96.57 103.17 226.52" style="fill: #add7f6;"/>
    <path d="m364.59,182.7l-50.84,50.82c7.52,8.42,16.43,21.91,16.43,33.99,0,14.51-5.79,26.59-15.12,36.23-9.02,9.34-20.8,13.91-34.71,13.91h-110.43l224.8-221.05h-103.82l-187.84,186.95v120.72l71.64-.52h105.54c37.15,0,68.01-11.48,93.67-34.4,25.07-22.92,37.75-60.36,37.75-95.96,0-37.63-18.97-69.29-47.1-90.69h.03Z" style="fill: #fff;"/>
  </g>
</svg>