<svg fill="#19ace4" height="24" viewBox="0 0 24 24" width="24" xmlns="http://www.w3.org/2000/svg" id="fi_16796598"><path clip-rule="evenodd" d="m2 12c0-5.52285 4.47715-10 10-10 5.5228 0 10 4.47715 10 10 0 5.5228-4.4772 10-10 10-5.52285 0-10-4.4772-10-10zm14.6402-3.7682c.4243.35357.4816.98413.128 1.40841l-5 5.99999c-.1745.2095-.4271.3386-.6991.3574-.2721.0189-.54-.0742-.7418-.2576l-2.99997-2.7273c-.40865-.3715-.43877-1.004-.06726-1.4126.3715-.4087 1.00395-.4388 1.41261-.0673l2.22752 2.025 4.3316-5.19796c.3536-.42428.9841-.4816 1.4084-.12804z"  fill-rule="evenodd"></path></svg>