<svg width="29" height="29" viewBox="0 0 29 29" fill="none" xmlns="http://www.w3.org/2000/svg">
<path d="M17.0642 12.6357C16.4893 11.8302 15.5464 11.3008 14.4885 11.3008C13.4306 11.3008 12.4877 11.8302 11.9128 12.6357C11.5448 13.1651 11.3148 13.8095 11.3148 14.5C11.3148 16.2492 12.7407 17.6762 14.4885 17.6762C16.2363 17.6762 17.6622 16.2492 17.6622 14.5C17.6622 13.8095 17.4322 13.1651 17.0642 12.6357Z" fill="#0091D1" style="fill:#0091D1;fill:color(display-p3 0.0000 0.5686 0.8196);fill-opacity:1;"/>
<path d="M19.065 12.6587C19.295 13.119 19.433 13.8556 19.433 14.5C19.433 17.2159 17.2252 19.4484 14.4885 19.4484C11.7518 19.4484 9.54401 17.2389 9.54401 14.5C9.54401 13.8325 9.682 13.119 9.91197 12.6587H7.12926V20.0468C7.12926 21.0135 7.98017 21.8651 8.94607 21.8651H20.0309C20.9968 21.8651 21.8477 21.0135 21.8477 20.0468V12.6587H19.065Z" fill="#0091D1" style="fill:#0091D1;fill:color(display-p3 0.0000 0.5686 0.8196);fill-opacity:1;"/>
<path d="M21.0198 7.54921H18.3521V10.6103H21.3878V7.52619L21.0198 7.54921Z" fill="#0091D1" style="fill:#0091D1;fill:color(display-p3 0.0000 0.5686 0.8196);fill-opacity:1;"/>
<path d="M21.7098 0H7.26725C3.26566 0 0 3.26825 0 7.27302V21.75C0 25.7317 3.26566 29 7.26725 29H21.7328C25.7343 29 29 25.7317 29 21.727V7.27302C28.977 3.26825 25.7113 0 21.7098 0ZM23.4576 20.0468C23.4576 21.9802 21.9627 23.4762 20.0309 23.4762H8.94607C7.01427 23.4762 5.51943 21.9802 5.51943 20.0468V8.95317C5.51943 7.01984 7.01427 5.52381 8.94607 5.52381H20.0309C21.9627 5.52381 23.4576 7.01984 23.4576 8.95317V20.0468Z" fill="#0091D1" style="fill:#0091D1;fill:color(display-p3 0.0000 0.5686 0.8196);fill-opacity:1;"/>
</svg>
