<svg width="22" height="16" viewBox="0 0 22 16" fill="none" xmlns="http://www.w3.org/2000/svg">
<path d="M20.3438 2.96991L10.0418 0.398403C9.76766 0.335001 9.47591 0.380773 9.22941 0.525862C8.98291 0.670952 8.80138 0.903751 8.72394 1.17412C8.64649 1.44448 8.67931 1.73078 8.81534 1.97136C8.95136 2.21193 9.17971 2.38752 9.45119 2.46032L17.241 4.40475L0.627229 13.9967C0.376676 14.1413 0.191907 14.3762 0.11357 14.6497C0.0352333 14.9232 0.0697455 15.2128 0.209515 15.4549C0.349283 15.697 0.582859 15.8717 0.858859 15.9406C1.13486 16.0095 1.43067 15.9669 1.68123 15.8223L18.295 6.23033L16.084 13.9487C16.0424 14.085 16.0286 14.2273 16.0433 14.3672C16.0581 14.5072 16.1012 14.642 16.1701 14.7638C16.239 14.8856 16.3323 14.992 16.4446 15.0768C16.5568 15.1615 16.6858 15.2229 16.824 15.2574C16.9622 15.2919 17.1068 15.2988 17.2494 15.2777C17.392 15.2565 17.5297 15.2078 17.6545 15.1343C17.7794 15.0609 17.8888 14.9641 17.9764 14.8497C18.0641 14.7353 18.1282 14.6056 18.165 14.4681L21.089 4.26059C21.1673 3.98717 21.1327 3.69759 20.993 3.45556C20.8533 3.21352 20.6198 3.03883 20.3438 2.96991Z" fill="#0D76BD" style="fill:#0D76BD;fill:color(display-p3 0.0510 0.4627 0.7412);fill-opacity:1;"/>
</svg>
