<svg id="fi_9583035" enable-background="new 0 0 512 512" height="512" viewBox="0 0 512 512" width="512" xmlns="http://www.w3.org/2000/svg"><g><path d="m282.673 84.727c-5.857-5.858-15.355-5.858-21.213 0s-5.858 15.355 0 21.213l21.527 21.527-35.02 35.02 24.1 24.1c5.858 5.858 5.858 15.355 0 21.213-5.857 5.858-15.355 5.858-21.213 0l-24.1-24.1-35.021 35.021 24.1 24.1c5.858 5.858 5.858 15.355 0 21.213-5.857 5.858-15.355 5.858-21.213 0l-24.1-24.1-35.02 35.02 24.099 24.099c5.858 5.858 5.858 15.355 0 21.213s-15.356 5.858-21.213 0l-24.1-24.1-20.149 20.149c-8.902 8.902-13.805 20.739-13.805 33.328v60.81l-75.94 75.94c-5.858 5.858-5.858 15.355 0 21.213 5.857 5.858 15.355 5.858 21.213 0l75.94-75.94h60.81c12.589 0 24.426-4.903 33.329-13.805l188.848-188.849 21.527 21.527c5.856 5.857 15.355 5.859 21.213 0 5.858-5.858 5.858-15.355 0-21.213z"></path><path d="m507.607 106.641-102.248-102.247c-5.857-5.858-15.355-5.858-21.213 0s-5.858 15.355 0 21.213l40.517 40.517-59.083 59.083 21.213 21.213 59.083-59.083 40.518 40.518c5.856 5.857 15.355 5.859 21.213 0 5.857-5.859 5.857-15.356 0-21.214z"></path></g></svg>