<svg width="25" height="25" viewBox="0 0 25 25" fill="none" xmlns="http://www.w3.org/2000/svg">
<path d="M6.77295 6.68945H6.45947L5.87368 9.61914H7.35874L6.77295 6.68945Z" fill="#0091D1" style="fill:#0091D1;fill:color(display-p3 0.0000 0.5686 0.8196);fill-opacity:1;"/>
<path d="M18.6218 12.5488C18.938 13.3984 19.3587 14.0861 19.8242 14.6712C20.2897 14.0861 20.7592 13.3983 21.0755 12.5488H18.6218Z" fill="#0091D1" style="fill:#0091D1;fill:color(display-p3 0.0000 0.5686 0.8196);fill-opacity:1;"/>
<path d="M22.8027 4.44336H13.7069L15.6035 19.6621C15.637 20.2845 15.4668 20.8706 15.0606 21.3293L11.8488 25H22.8027C24.0144 25 25 24.0144 25 22.8027V6.68945C25 5.47783 24.0144 4.44336 22.8027 4.44336ZM22.8027 12.5488H22.6071C22.1904 13.8859 21.5295 14.9321 20.8427 15.7569C21.3807 16.2488 21.9561 16.6523 22.5281 17.1043C22.8435 17.3568 22.895 17.8174 22.6418 18.1335C22.3897 18.4492 21.9273 18.5004 21.6125 18.2473C20.991 17.7567 20.4076 17.346 19.8242 16.8107C19.2408 17.346 18.7062 17.7567 18.0847 18.2473C17.7699 18.5004 17.3075 18.4492 17.0555 18.1335C16.8022 17.8174 16.8538 17.3568 17.1692 17.1043C17.7412 16.6523 18.2677 16.2488 18.8058 15.7569C18.1189 14.9322 17.5068 13.8859 17.0901 12.5488H16.8945C16.4897 12.5488 16.1621 12.2212 16.1621 11.8164C16.1621 11.4116 16.4897 11.084 16.8945 11.084H19.0918V10.3516C19.0918 9.94673 19.4194 9.61914 19.8242 9.61914C20.2291 9.61914 20.5566 9.94673 20.5566 10.3516V11.084H22.8027C23.2076 11.084 23.5352 11.4116 23.5352 11.8164C23.5352 12.2212 23.2076 12.5488 22.8027 12.5488Z" fill="#0091D1" style="fill:#0091D1;fill:color(display-p3 0.0000 0.5686 0.8196);fill-opacity:1;"/>
<path d="M11.9221 1.92476C11.7854 0.827539 10.8478 0 9.74199 0H2.19727C0.985645 0 0 0.985645 0 2.19727V18.4082C0 19.6198 0.985645 20.6055 2.19727 20.6055C6.57568 20.6055 9.72544 20.6055 13.7476 20.6055C13.9613 20.3612 14.1404 20.2083 14.1479 19.8895C14.1498 19.8096 11.932 2.00405 11.9221 1.92476ZM8.98164 13.9994C8.59326 14.0793 8.19985 13.8271 8.11978 13.425L7.65166 11.084H5.58081L5.1127 13.425C5.03403 13.8212 4.65205 14.0816 4.25083 13.9994C3.85459 13.92 3.59707 13.5345 3.67646 13.1375L5.14126 5.81328C5.20991 5.47139 5.51035 5.22461 5.85938 5.22461H7.37305C7.72207 5.22461 8.02251 5.47139 8.09116 5.81328L9.55601 13.1375C9.6354 13.5345 9.37793 13.92 8.98164 13.9994Z" fill="#0091D1" style="fill:#0091D1;fill:color(display-p3 0.0000 0.5686 0.8196);fill-opacity:1;"/>
<path d="M8.55767 22.0703L8.68335 23.0752C8.76714 23.7482 9.21431 24.4345 9.94985 24.7772C11.3379 23.2492 10.4981 24.1736 12.4088 22.0703H8.55767Z" fill="#0091D1" style="fill:#0091D1;fill:color(display-p3 0.0000 0.5686 0.8196);fill-opacity:1;"/>
</svg>
