<svg width="29" height="29" viewBox="0 0 29 29" fill="none" xmlns="http://www.w3.org/2000/svg">
<path d="M21.727 0H7.25C3.26825 0 0 3.26825 0 7.27302V21.75C0 25.7317 3.26825 29 7.25 29H21.727C25.7317 29 29 25.7317 29 21.727V7.27302C29 3.26825 25.7317 0 21.727 0ZM18.3897 14.5H15.6508V23.4762H12.1984V14.5H10.3571V10.8175H11.9683V9.25238C11.9683 7.77937 12.7048 5.45476 15.8119 5.45476H18.6429V8.51587H16.6405C16.3183 8.51587 15.881 8.72302 15.881 9.43651V10.8175H18.7119L18.3897 14.5Z" fill="#0091D1" style="fill:#0091D1;fill:color(display-p3 0.0000 0.5686 0.8196);fill-opacity:1;"/>
</svg>
