<svg width="29" height="29" viewBox="0 0 29 29" fill="none" xmlns="http://www.w3.org/2000/svg">
<path d="M12.6357 11.646V16.9397L17.5151 14.3159L12.6357 11.646Z" fill="#0091D1" style="fill:#0091D1;fill:color(display-p3 0.0000 0.5686 0.8196);fill-opacity:1;"/>
<path d="M21.727 0H7.25C3.26825 0 0 3.26825 0 7.27302V21.75C0 25.7317 3.26825 29 7.25 29H21.727C25.7317 29 29 25.7317 29 21.727V7.27302C29 3.26825 25.7317 0 21.727 0ZM23.4762 15.2135C23.4762 16.7325 23.3381 18.2746 23.3381 18.2746C23.3381 18.2746 23.177 19.5635 22.6476 20.1389C21.9571 20.8984 21.1976 20.8984 20.8524 20.9444C18.3206 21.1286 14.523 21.1516 14.523 21.1516C14.523 21.1516 9.80476 21.0825 8.35476 20.9444C7.96349 20.8754 7.04286 20.8984 6.35238 20.1389C5.8 19.5635 5.6619 18.2746 5.6619 18.2746C5.6619 18.2746 5.52381 16.7325 5.52381 15.2135V13.7865C5.52381 12.2675 5.6619 10.7254 5.6619 10.7254C5.6619 10.7254 5.82302 9.43651 6.35238 8.86111C7.04286 8.10159 7.80238 8.07857 8.14762 8.03254C10.7024 7.84841 14.5 7.8254 14.5 7.8254C14.5 7.8254 18.2976 7.84841 20.8294 8.03254C21.1746 8.07857 21.9571 8.10159 22.6476 8.8381C23.2 9.41349 23.3381 10.7254 23.3381 10.7254C23.3381 10.7254 23.4762 12.2675 23.4762 13.7865V15.2135Z" fill="#0091D1" style="fill:#0091D1;fill:color(display-p3 0.0000 0.5686 0.8196);fill-opacity:1;"/>
</svg>
