<svg width="87" height="106" viewBox="0 0 87 106" fill="none" xmlns="http://www.w3.org/2000/svg">
<path d="M62.777 48.0558C55.5748 53.5828 47.3437 57.6497 38.5541 60.0242C39.1518 79.1666 44.4355 95.3373 62.777 104.416C81.1248 95.3373 86.4085 79.1666 87 60.0242C78.2104 57.6497 69.9793 53.5828 62.777 48.0558ZM67.9245 80.8084V88.4984H57.6355V80.8076H49.8726V70.6151H57.6355V62.9255H67.9245V70.6151H75.6879V80.8076L67.9245 80.8084ZM8.89905 31.3166V29.6637C8.89901 29.3351 9.01183 29.0163 9.21897 28.7597C9.42611 28.503 9.71523 28.3238 10.0388 28.2516C10.3624 28.1793 10.7011 28.2183 10.9994 28.362C11.2977 28.5058 11.5377 28.7458 11.68 29.0426H13.6941C13.7634 28.839 13.8473 28.6405 13.9449 28.4486L12.5202 27.0385C12.207 27.1496 11.865 27.1517 11.5505 27.0444C11.236 26.9372 10.9678 26.727 10.7901 26.4484C10.6124 26.1699 10.5358 25.8397 10.573 25.5123C10.6101 25.1849 10.7588 24.8798 10.9945 24.6473L12.1778 23.4809C12.4121 23.2488 12.719 23.1025 13.0483 23.0661C13.3776 23.0297 13.7096 23.1053 13.9897 23.2806C14.2698 23.4558 14.4814 23.7202 14.5898 24.0304C14.6981 24.3405 14.6968 24.678 14.5859 24.9872L16.0144 26.4025C16.2086 26.3062 16.4094 26.2236 16.6153 26.1553V24.155C16.3146 24.0153 16.0709 23.7783 15.9245 23.483C15.7782 23.1877 15.7379 22.8517 15.8103 22.5306C15.8827 22.2096 16.0635 21.9226 16.3229 21.717C16.5822 21.5115 16.9045 21.3997 17.2366 21.4002H18.9109C19.243 21.3997 19.5654 21.5115 19.8247 21.717C20.084 21.9226 20.2648 22.2096 20.3372 22.5306C20.4097 22.8517 20.3694 23.1877 20.223 23.483C20.0767 23.7783 19.833 24.0153 19.5323 24.155V26.1545C19.7385 26.2226 19.9395 26.3052 20.1338 26.4017L21.5617 24.9872C21.4508 24.678 21.4494 24.3405 21.5578 24.0304C21.6661 23.7202 21.8777 23.4558 22.1579 23.2806C22.438 23.1053 22.77 23.0297 23.0993 23.0661C23.4285 23.1025 23.7355 23.2488 23.9697 23.4809L25.1531 24.6473C25.3888 24.8798 25.5374 25.1849 25.5746 25.5123C25.6117 25.8397 25.5351 26.1699 25.3574 26.4484C25.1797 26.727 24.9115 26.9372 24.597 27.0444C24.2825 27.1517 23.9405 27.1496 23.6274 27.0385L22.2037 28.449C22.301 28.6409 22.3845 28.8394 22.4535 29.043H24.4676C24.6099 28.7462 24.8499 28.5062 25.1482 28.3624C25.4464 28.2187 25.7852 28.1797 26.1088 28.252C26.4323 28.3243 26.7215 28.5034 26.9286 28.7601C27.1357 29.0167 27.2486 29.3355 27.2485 29.6641V31.317C27.2486 31.6456 27.1357 31.9644 26.9286 32.2211C26.7215 32.4777 26.4323 32.6569 26.1088 32.7291C25.7852 32.8014 25.4464 32.7625 25.1482 32.6187C24.8499 32.475 24.6099 32.2349 24.4676 31.9381H22.4537C22.3844 32.1423 22.3006 32.3413 22.2029 32.5338L23.6268 33.9484C23.9391 33.8379 24.2802 33.8359 24.5938 33.9429C24.9074 34.0498 25.175 34.2593 25.3525 34.5368C25.53 34.8144 25.6069 35.1435 25.5706 35.4701C25.5342 35.7967 25.3868 36.1013 25.1525 36.3339L23.9691 37.5061C23.7343 37.7382 23.4268 37.8842 23.0971 37.9202C22.7675 37.9563 22.4352 37.8801 22.155 37.7042C21.8748 37.5284 21.6634 37.2633 21.5554 36.9527C21.4475 36.642 21.4495 36.3042 21.561 35.9947L20.1363 34.5834C19.941 34.6804 19.7389 34.7634 19.5317 34.8318V36.826C19.8324 36.9656 20.076 37.2026 20.2224 37.498C20.3687 37.7933 20.409 38.1292 20.3366 38.4503C20.2642 38.7714 20.0834 39.0584 19.8241 39.2639C19.5648 39.4694 19.2424 39.5812 18.9103 39.5807H17.236C16.9039 39.5812 16.5816 39.4694 16.3222 39.2639C16.0629 39.0584 15.8821 38.7714 15.8097 38.4503C15.7373 38.1292 15.7776 37.7933 15.9239 37.498C16.0703 37.2026 16.3139 36.9656 16.6147 36.826V34.8308C16.4076 34.7623 16.2058 34.6793 16.0107 34.5824L14.5853 35.9943C14.6969 36.3037 14.6988 36.6416 14.5909 36.9522C14.4829 37.2629 14.2715 37.528 13.9913 37.7038C13.7111 37.8797 13.3789 37.9558 13.0492 37.9198C12.7195 37.8838 12.412 37.7378 12.1772 37.5057L10.9938 36.3334C10.7595 36.1009 10.6121 35.7963 10.5757 35.4697C10.5394 35.1431 10.6163 34.814 10.7938 34.5364C10.9713 34.2589 11.2389 34.0494 11.5525 33.9425C11.8662 33.8355 12.2072 33.8375 12.5195 33.948L13.9434 32.5332C13.8458 32.3408 13.7619 32.1418 13.6926 31.9377H11.68C11.5377 32.2345 11.2977 32.4745 10.9994 32.6183C10.7011 32.7621 10.3624 32.801 10.0388 32.7287C9.71523 32.6565 9.42611 32.4773 9.21897 32.2206C9.01183 31.964 8.89901 31.6452 8.89905 31.3166ZM57.0674 29.1295L49.021 24.5226L52.1977 20.1503C52.8546 19.2477 53.9019 18.7789 54.7243 19.2477L55.5171 19.699L66.5756 0.721769C66.6715 0.557446 66.7992 0.413452 66.9514 0.298011C67.1035 0.182569 67.2771 0.0979399 67.4622 0.0489552C67.6474 -2.94558e-05 67.8404 -0.0124103 68.0304 0.0125194C68.2204 0.0374492 68.4036 0.0992015 68.5694 0.19425C68.7353 0.289299 68.8807 0.415783 68.9972 0.566481C69.1138 0.717179 69.1992 0.889139 69.2486 1.07254C69.2981 1.25595 69.3106 1.4472 69.2854 1.63539C69.2603 1.82358 69.1979 2.00502 69.102 2.16934L58.0378 21.1476L58.8305 21.5989C59.6529 22.0737 59.771 23.1989 59.3039 24.2187L57.0674 29.1295ZM20.0048 12.315C20.0048 11.7376 20.1777 11.1732 20.5015 10.6932C20.8253 10.2131 21.2855 9.83897 21.824 9.61802C22.3625 9.39708 22.955 9.33927 23.5266 9.4519C24.0983 9.56454 24.6233 9.84256 25.0355 10.2508C25.4476 10.6591 25.7283 11.1792 25.842 11.7455C25.9557 12.3117 25.8973 12.8987 25.6743 13.4321C25.4512 13.9655 25.0735 14.4214 24.5889 14.7422C24.1043 15.0629 23.5345 15.2341 22.9517 15.2341C22.1703 15.2335 21.4211 14.9258 20.8686 14.3785C20.3161 13.8311 20.0054 13.089 20.0048 12.315ZM22.4069 104.586C22.0252 105.235 21.3998 105.709 20.6672 105.903C19.9346 106.097 19.1542 105.997 18.4961 105.624L1.43215 95.8648C0.773869 95.4879 0.293708 94.8673 0.0973027 94.1397C-0.0991027 93.4121 0.00433546 92.6369 0.384862 91.9848C0.765388 91.3327 1.39183 90.8571 2.12638 90.6625C2.86093 90.468 3.64342 90.5704 4.30171 90.9474L21.3598 100.706C22.0175 101.084 22.4971 101.704 22.6934 102.432C22.8897 103.159 22.7866 103.934 22.4069 104.586ZM37.7846 57.2344L35.5658 57.8321L35.6369 60.1122C35.8202 65.9967 36.4415 71.6058 37.7076 76.8404L34.5955 82.1858L13.8751 70.3346L15.6855 67.2223L21.6733 70.6452C21.8388 70.7394 22.0214 70.8005 22.2107 70.8249C22.4 70.8493 22.5924 70.8365 22.7767 70.7872C22.961 70.738 23.1338 70.6532 23.285 70.5378C23.4363 70.4225 23.5632 70.2787 23.6583 70.1147C23.7535 69.9508 23.8152 69.7699 23.8398 69.5824C23.8644 69.3948 23.8515 69.2043 23.8017 69.0217C23.752 68.8391 23.6665 68.668 23.55 68.5181C23.4335 68.3683 23.2884 68.2426 23.1229 68.1483L17.1411 64.7249L18.7563 61.9585L22.9749 64.3731C23.1404 64.4674 23.323 64.5285 23.5124 64.5528C23.7017 64.5772 23.894 64.5644 24.0783 64.5152C24.2627 64.4659 24.4354 64.3812 24.5867 64.2658C24.7379 64.1504 24.8648 64.0066 24.96 63.8427C25.0552 63.6787 25.1168 63.4978 25.1414 63.3103C25.166 63.1227 25.1531 62.9322 25.1034 62.7496C25.0537 62.567 24.9681 62.3959 24.8516 62.2461C24.7352 62.0962 24.59 61.9706 24.4245 61.8763L20.2117 59.4615L21.821 56.7011L27.8028 60.1238C28.1375 60.3104 28.533 60.3588 28.9034 60.2584C29.2739 60.1581 29.5895 59.9171 29.7819 59.5878C29.9742 59.2585 30.0277 58.8674 29.9308 58.4992C29.8339 58.131 29.5945 57.8156 29.2643 57.6212L23.2765 54.1983L24.8918 51.4377L29.1105 53.8467C29.4445 54.0322 29.8388 54.0796 30.2078 53.9788C30.5769 53.878 30.891 53.6371 31.0818 53.3083C31.2727 52.9796 31.3249 52.5895 31.2273 52.2228C31.1296 51.8561 30.8899 51.5424 30.5601 51.3497L26.3415 48.9409L27.9568 46.1745L33.9327 49.5974C34.0983 49.6949 34.2818 49.759 34.4726 49.7858C34.6634 49.8126 34.8576 49.8016 35.0441 49.7536C35.2305 49.7055 35.4055 49.6213 35.5589 49.5058C35.7123 49.3903 35.8411 49.2458 35.9377 49.0807C36.0343 48.9156 36.0969 48.7331 36.1219 48.5438C36.1469 48.3546 36.1337 48.1623 36.0831 47.9781C36.0326 47.794 35.9456 47.6215 35.8273 47.4709C35.7091 47.3202 35.5618 47.1943 35.394 47.1004L29.4123 43.6775L31.0216 40.9111L35.2402 43.326C35.4061 43.4203 35.5891 43.4813 35.7788 43.5055C35.9685 43.5297 36.1611 43.5167 36.3457 43.4672C36.5303 43.4176 36.7033 43.3326 36.8547 43.2169C37.0061 43.1011 37.133 42.957 37.2282 42.7927C37.3234 42.6283 37.385 42.447 37.4094 42.2591C37.4339 42.0712 37.4207 41.8804 37.3707 41.6976C37.3207 41.5147 37.2349 41.3434 37.1181 41.1934C37.0012 41.0434 36.8557 40.9176 36.6898 40.8234L32.477 38.4143L34.0924 35.648L40.0746 39.0708C40.2401 39.1651 40.4227 39.2262 40.612 39.2506C40.8013 39.2749 40.9937 39.2621 41.178 39.2129C41.3623 39.1636 41.5351 39.0789 41.6863 38.9635C41.8376 38.8481 41.9644 38.7044 42.0596 38.5404C42.1548 38.3765 42.2165 38.1956 42.2411 38.008C42.2657 37.8205 42.2527 37.63 42.203 37.4474C42.1533 37.2648 42.0678 37.0937 41.9513 36.9438C41.8348 36.794 41.6897 36.6683 41.5242 36.574L35.5424 33.1511L37.1578 30.3848L41.3762 32.7994C41.5417 32.8937 41.7243 32.9548 41.9137 32.9792C42.103 33.0036 42.2953 32.9908 42.4797 32.9415C42.664 32.8923 42.8368 32.8075 42.988 32.6922C43.1393 32.5768 43.2662 32.433 43.3614 32.2691C43.4566 32.1051 43.5182 31.9242 43.5429 31.7367C43.5675 31.5491 43.5546 31.3586 43.5048 31.176C43.4551 30.9934 43.3696 30.8223 43.2531 30.6724C43.1367 30.5226 42.9915 30.3969 42.826 30.3026L38.6132 27.8938L39.1222 27.0145C39.6831 26.061 40.6017 25.3658 41.6779 25.0803C42.7541 24.7949 43.9005 24.9424 44.8673 25.4907L58.3043 33.1745C59.2672 33.7298 59.9694 34.6398 60.2576 35.706C60.5458 36.7722 60.3966 37.908 59.8425 38.8657L52.6417 51.2209C47.955 53.8173 42.9657 55.8367 37.7846 57.2344ZM13.9992 83.6445L22.8921 88.7319L18.7385 95.8648L9.84561 90.7774L13.9992 83.6445ZM35.9023 89.5524C35.522 90.203 34.8971 90.6781 34.1642 90.8736C33.4313 91.0691 32.6501 90.9693 31.9913 90.5959L7.82814 76.7754C7.49831 76.5912 7.20861 76.344 6.97578 76.0482C6.74295 75.7524 6.57162 75.4138 6.47168 75.052C6.37174 74.6902 6.34518 74.3124 6.39352 73.9403C6.44187 73.5683 6.56417 73.2095 6.75336 72.8845C6.94255 72.5596 7.19486 72.2751 7.49573 72.0473C7.7966 71.8196 8.14005 71.6531 8.50624 71.5577C8.87243 71.4622 9.25408 71.4395 9.62915 71.4911C10.0042 71.5426 10.3653 71.6672 10.6914 71.8578L34.8559 85.6782C35.513 86.0547 35.9925 86.6742 36.1889 87.4006C36.3852 88.1271 36.2825 88.901 35.9032 89.5524H35.9023Z" fill="#0D76BD" style="fill:#0D76BD;fill:color(display-p3 0.0510 0.4627 0.7412);fill-opacity:1;"/>
</svg>
