<svg width="47" height="47" viewBox="0 0 47 47" fill="none" xmlns="http://www.w3.org/2000/svg">
<path d="M0.0605469 23.2242C0.0605469 10.4312 10.4313 0.0604248 23.2243 0.0604248C36.0173 0.0604248 46.3881 10.4312 46.3881 23.2242C46.3881 36.0172 36.0173 46.3879 23.2243 46.3879C10.4313 46.3879 0.0605469 36.0172 0.0605469 23.2242Z" fill="white" style="fill:white;fill-opacity:1;"/>
<path d="M34.9623 22.2965L27.3263 14.9185C27.1205 14.7265 26.845 14.6202 26.559 14.6226C26.2729 14.625 25.9993 14.7359 25.7971 14.9313C25.5948 15.1267 25.4801 15.3911 25.4776 15.6674C25.4751 15.9438 25.5851 16.21 25.7838 16.4088L31.5577 21.9876H12.3738C12.0845 21.9876 11.8071 22.0987 11.6025 22.2963C11.3979 22.494 11.283 22.7621 11.283 23.0416C11.283 23.3212 11.3979 23.5893 11.6025 23.7869C11.8071 23.9846 12.0845 24.0956 12.3738 24.0956H31.5577L25.7838 29.6744C25.6796 29.7717 25.5965 29.888 25.5393 30.0166C25.4822 30.1452 25.4521 30.2835 25.4508 30.4234C25.4495 30.5634 25.4771 30.7021 25.532 30.8317C25.5868 30.9612 25.6678 31.0789 25.7703 31.1779C25.8727 31.2768 25.9945 31.3551 26.1286 31.4081C26.2626 31.4611 26.4063 31.4877 26.5511 31.4865C26.696 31.4853 26.8391 31.4562 26.9722 31.401C27.1053 31.3458 27.2256 31.2655 27.3263 31.1648L34.9623 23.7868C35.1668 23.5892 35.2817 23.3211 35.2817 23.0416C35.2817 22.7621 35.1668 22.4941 34.9623 22.2965Z" fill="#0D76BD" style="fill:#0D76BD;fill:color(display-p3 0.0510 0.4627 0.7412);fill-opacity:1;"/>
</svg>
