<svg width="186" height="47" viewBox="0 0 186 47" fill="none" xmlns="http://www.w3.org/2000/svg">
<path d="M98.6519 1.66528V8.78707H97.5509V0.370416H99.0189L102.597 7.5847V0.370416H103.606V8.78707H102.23L98.6519 1.66528Z" fill="#0075BF" style="fill:#0075BF;fill:color(display-p3 0.0000 0.4588 0.7490);fill-opacity:1;"/>
<path d="M109.752 8.78757H108.835L108.743 8.32512C108.193 8.69508 107.55 8.88007 106.817 8.88007C105.716 8.88007 105.165 8.23263 105.165 7.12274C105.165 5.82788 105.807 5.36541 107.001 5.36541H108.651V4.44051C108.651 3.70058 108.285 3.42311 107.367 3.42311C106.817 3.42311 105.991 3.5156 105.532 3.60809L105.44 2.77568C105.991 2.59069 106.817 2.4982 107.459 2.4982C109.202 2.4982 109.752 3.14564 109.752 4.44051V8.78757ZM108.651 6.38281H107.092C106.45 6.38281 106.174 6.5678 106.174 7.21523C106.174 7.86267 106.266 8.14014 107.001 8.14014C107.55 8.14014 108.101 7.95516 108.56 7.67768V6.38281H108.651Z" fill="#0075BF" style="fill:#0075BF;fill:color(display-p3 0.0000 0.4588 0.7490);fill-opacity:1;"/>
<path d="M110.854 6.7529V4.81059C110.854 3.42323 111.405 2.59081 113.24 2.59081C113.791 2.59081 114.341 2.6833 114.708 2.77579L114.616 3.7007C114.157 3.60821 113.699 3.6082 113.24 3.6082C112.231 3.6082 111.863 3.88568 111.863 4.90308V6.7529C111.863 7.67781 112.231 8.04777 113.24 8.04777C113.699 8.04777 114.065 8.04777 114.616 7.95528L114.708 8.88019C114.433 8.97268 113.791 9.06516 113.24 9.06516C111.405 8.97268 110.854 8.14026 110.854 6.7529Z" fill="#0075BF" style="fill:#0075BF;fill:color(display-p3 0.0000 0.4588 0.7490);fill-opacity:1;"/>
<path d="M116.083 1.75766V0.277811H117.092V1.75766H116.083ZM116.083 8.78695V2.68257H117.092V8.78695H116.083Z" fill="#0075BF" style="fill:#0075BF;fill:color(display-p3 0.0000 0.4588 0.7490);fill-opacity:1;"/>
<path d="M120.948 8.97268C119.205 8.97268 118.471 7.95527 118.471 6.66041V4.90308C118.471 3.6082 119.205 2.59081 120.948 2.59081C122.691 2.59081 123.425 3.6082 123.425 4.90308V6.66041C123.425 7.95527 122.691 8.97268 120.948 8.97268ZM120.948 3.51571C120.03 3.51571 119.572 3.97817 119.572 4.90308V6.7529C119.572 7.6778 120.03 8.14025 120.948 8.14025C121.866 8.14025 122.324 7.6778 122.324 6.7529V4.90308C122.324 3.97817 121.866 3.51571 120.948 3.51571Z" fill="#0075BF" style="fill:#0075BF;fill:color(display-p3 0.0000 0.4588 0.7490);fill-opacity:1;"/>
<path d="M128.379 4.07065C128.379 3.70069 128.196 3.51571 127.828 3.51571C127.37 3.51571 126.453 3.79319 125.81 4.16315V8.78769H124.801V2.6833H125.626L125.718 3.23824C126.361 2.86828 127.462 2.59081 128.196 2.59081C129.205 2.59081 129.48 3.23824 129.48 4.16315V8.88019H128.379V4.07065Z" fill="#0075BF" style="fill:#0075BF;fill:color(display-p3 0.0000 0.4588 0.7490);fill-opacity:1;"/>
<path d="M135.354 8.78757H134.436L134.345 8.32512C133.794 8.69508 133.152 8.88007 132.417 8.88007C131.316 8.88007 130.766 8.23263 130.766 7.12274C130.766 5.82788 131.408 5.36541 132.601 5.36541H134.253V4.44051C134.253 3.70058 133.885 3.42311 132.968 3.42311C132.417 3.42311 131.592 3.5156 131.132 3.60809L131.042 2.77568C131.592 2.59069 132.417 2.4982 133.06 2.4982C134.803 2.4982 135.354 3.14564 135.354 4.44051V8.78757ZM134.345 6.38281H132.784C132.143 6.38281 131.867 6.5678 131.867 7.21523C131.867 7.86267 131.959 8.14014 132.693 8.14014C133.244 8.14014 133.794 7.95516 134.253 7.67768V6.38281H134.345Z" fill="#0075BF" style="fill:#0075BF;fill:color(display-p3 0.0000 0.4588 0.7490);fill-opacity:1;"/>
<path d="M136.91 8.78661V0.184982L137.919 0V8.78661H136.91Z" fill="#0075BF" style="fill:#0075BF;fill:color(display-p3 0.0000 0.4588 0.7490);fill-opacity:1;"/>
<path d="M143.335 4.07065C143.335 3.70069 143.151 3.51571 142.784 3.51571C142.326 3.51571 141.407 3.79319 140.765 4.16315V8.78769H139.756V2.6833H140.582L140.674 3.23824C141.315 2.86828 142.416 2.59081 143.151 2.59081C144.16 2.59081 144.436 3.23824 144.436 4.16315V8.88019H143.335V4.07065Z" fill="#0075BF" style="fill:#0075BF;fill:color(display-p3 0.0000 0.4588 0.7490);fill-opacity:1;"/>
<path d="M145.902 1.75766V0.277811H146.911V1.75766H145.902ZM145.902 8.78695V2.68257H146.911V8.78695H145.902Z" fill="#0075BF" style="fill:#0075BF;fill:color(display-p3 0.0000 0.4588 0.7490);fill-opacity:1;"/>
<path d="M151.043 1.75766V0.277811H152.052V1.75766H151.043ZM151.043 8.78695V2.68257H152.052V8.78695H151.043Z" fill="#0075BF" style="fill:#0075BF;fill:color(display-p3 0.0000 0.4588 0.7490);fill-opacity:1;"/>
<path d="M157.373 4.07065C157.373 3.70069 157.189 3.51571 156.823 3.51571C156.363 3.51571 155.446 3.79319 154.803 4.16315V8.78769H153.794V2.6833H154.621L154.712 3.23824C155.354 2.86828 156.455 2.59081 157.189 2.59081C158.199 2.59081 158.474 3.23824 158.474 4.16315V8.88019H157.373V4.07065Z" fill="#0075BF" style="fill:#0075BF;fill:color(display-p3 0.0000 0.4588 0.7490);fill-opacity:1;"/>
<path d="M161.776 8.97205C161.134 8.97205 160.308 8.87956 159.849 8.60209L159.941 7.76967C160.491 7.95465 161.134 8.04715 161.684 8.04715C162.602 8.04715 162.785 7.86216 162.785 7.21472C162.785 6.5673 162.693 6.47481 161.501 6.19733C160.033 5.82737 159.849 5.54989 159.849 4.25503C159.849 3.14514 160.308 2.5902 161.959 2.5902C162.51 2.5902 163.152 2.68268 163.703 2.77517L163.611 3.60759C163.06 3.5151 162.418 3.42261 161.959 3.42261C161.042 3.42261 160.95 3.60759 160.95 4.16254C160.95 4.80997 160.95 4.99495 161.959 5.17993C163.703 5.64239 163.886 5.82737 163.886 7.02975C163.886 8.41711 163.519 8.97205 161.776 8.97205ZM163.519 0.925362C162.968 1.29533 162.51 1.57279 161.867 2.12774C161.226 1.66528 160.766 1.29533 160.216 0.925362L160.583 0.370416C161.134 0.647888 161.501 0.832871 161.867 1.20283C162.235 0.832871 162.602 0.647888 163.152 0.370416L163.519 0.925362Z" fill="#0075BF" style="fill:#0075BF;fill:color(display-p3 0.0000 0.4588 0.7490);fill-opacity:1;"/>
<path d="M168.381 8.69326C168.015 8.78575 167.556 8.87825 167.097 8.87825C166.087 8.87825 165.629 8.50829 165.629 7.49088V3.51378H164.528V2.58888H165.629V1.20152L166.638 1.01654V2.68137H168.381L168.289 3.60627H166.638V7.39838C166.638 7.86085 166.73 8.04582 167.28 8.04582C167.556 8.04582 167.831 7.95333 168.289 7.86085L168.381 8.69326Z" fill="#0075BF" style="fill:#0075BF;fill:color(display-p3 0.0000 0.4588 0.7490);fill-opacity:1;"/>
<path d="M169.485 1.75766V0.277811H170.494V1.75766H169.485ZM169.485 8.78695V2.68257H170.494V8.78695H169.485Z" fill="#0075BF" style="fill:#0075BF;fill:color(display-p3 0.0000 0.4588 0.7490);fill-opacity:1;"/>
<path d="M175.356 8.69326C174.99 8.78575 174.531 8.87825 174.073 8.87825C173.063 8.87825 172.604 8.50829 172.604 7.49088V3.51378H171.503V2.58888H172.604V1.20152L173.614 1.01654V2.68137H175.356L175.266 3.60627H173.614V7.39838C173.614 7.86085 173.705 8.04582 174.255 8.04582C174.531 8.04582 174.806 7.95333 175.266 7.86085L175.356 8.69326Z" fill="#0075BF" style="fill:#0075BF;fill:color(display-p3 0.0000 0.4588 0.7490);fill-opacity:1;"/>
<path d="M177.467 2.68341V7.40043C177.467 7.7704 177.65 7.95538 178.017 7.95538C178.477 7.95538 179.394 7.67791 180.036 7.30794V2.68341H181.045V8.7878H180.219L180.128 8.23286C179.578 8.60281 178.477 8.97278 177.742 8.97278C176.733 8.97278 176.457 8.32535 176.457 7.40043V2.68341H177.467Z" fill="#0075BF" style="fill:#0075BF;fill:color(display-p3 0.0000 0.4588 0.7490);fill-opacity:1;"/>
<path d="M186 8.69326C185.633 8.78575 185.175 8.87825 184.716 8.87825C183.707 8.87825 183.247 8.50829 183.247 7.49088V3.51378H182.146V2.58888H183.247V1.20152L184.258 1.01654V2.68137H186L185.909 3.60627H184.258V7.39838C184.258 7.86085 184.348 8.04582 184.899 8.04582C185.175 8.04582 185.449 7.95333 185.909 7.86085L186 8.69326Z" fill="#0075BF" style="fill:#0075BF;fill:color(display-p3 0.0000 0.4588 0.7490);fill-opacity:1;"/>
<path d="M97.367 15.1681H101.588V16.0006L98.468 20.4401H101.588V21.2725H97.2753V20.4401L100.395 16.0006H97.367V15.1681Z" fill="#0075BF" style="fill:#0075BF;fill:color(display-p3 0.0000 0.4588 0.7490);fill-opacity:1;"/>
<path d="M107.187 21.2724H106.269L106.177 20.8099C105.627 21.1799 104.985 21.3648 104.251 21.3648C103.15 21.3648 102.599 20.7174 102.599 19.6075C102.599 18.3127 103.241 17.8502 104.434 17.8502H106.177V16.9253C106.177 16.1854 105.811 15.9079 104.893 15.9079C104.343 15.9079 103.517 16.0005 103.058 16.0929L102.966 15.2605C103.425 15.168 104.251 15.0755 104.893 15.0755C106.636 15.0755 107.187 15.723 107.187 17.0178V21.2724ZM106.177 18.7751H104.618C103.976 18.7751 103.7 18.9601 103.7 19.6075C103.7 20.2549 103.792 20.5324 104.526 20.5324C105.076 20.5324 105.627 20.3475 106.086 20.07V18.7751H106.177Z" fill="#0075BF" style="fill:#0075BF;fill:color(display-p3 0.0000 0.4588 0.7490);fill-opacity:1;"/>
<path d="M109.846 22.7533C110.397 22.1983 110.763 21.9209 110.763 21.3659V15.169H112.599V21.5509C112.599 22.2908 112.048 22.9382 110.947 23.8632L109.846 22.7533ZM110.763 14.4291V12.4868H112.599V14.4291H110.763Z" fill="#0075BF" style="fill:#0075BF;fill:color(display-p3 0.0000 0.4588 0.7490);fill-opacity:1;"/>
<path d="M117.095 21.2724L117.003 20.9025C116.27 21.2724 115.719 21.4574 115.259 21.4574C114.158 21.4574 113.7 20.625 113.7 19.6075C113.7 18.4052 114.25 17.8502 115.535 17.8502H116.82V17.3877C116.82 16.7403 116.728 16.5554 115.719 16.5554C115.169 16.5554 114.618 16.6479 114.068 16.7403L113.792 15.3529C114.342 15.168 115.259 15.0755 115.994 15.0755C118.104 15.0755 118.563 15.723 118.563 17.3877V21.2724H117.095ZM116.728 19.0526H115.902C115.535 19.0526 115.351 19.1451 115.351 19.5151C115.351 19.885 115.443 19.9776 115.81 19.9776C116.178 19.9776 116.452 19.885 116.728 19.7926V19.0526Z" fill="#0075BF" style="fill:#0075BF;fill:color(display-p3 0.0000 0.4588 0.7490);fill-opacity:1;"/>
<path d="M123.148 21.2725H120.854L118.928 15.1681H120.764L121.955 19.5152L123.148 15.1681H124.984L123.148 21.2725Z" fill="#0075BF" style="fill:#0075BF;fill:color(display-p3 0.0000 0.4588 0.7490);fill-opacity:1;"/>
<path d="M129.112 21.2724V17.2028C129.112 16.9253 129.02 16.7403 128.654 16.7403C128.287 16.7403 127.736 16.9253 127.369 17.2028V21.2724H125.534V15.168H126.91L127.094 15.6304C127.827 15.2605 128.837 15.0755 129.479 15.0755C130.489 15.0755 130.856 15.8154 130.856 17.0178V21.2724H129.112Z" fill="#0075BF" style="fill:#0075BF;fill:color(display-p3 0.0000 0.4588 0.7490);fill-opacity:1;"/>
<path d="M131.866 18.9601V17.5727C131.866 16.2779 132.416 15.0755 134.618 15.0755C136.82 15.0755 137.371 16.2779 137.371 17.5727V18.9601C137.371 20.2549 136.82 21.4574 134.618 21.4574C132.416 21.4574 131.866 20.1625 131.866 18.9601ZM135.537 18.9601V17.4803C135.537 16.9253 135.261 16.5554 134.618 16.5554C133.977 16.5554 133.701 16.9253 133.701 17.4803V18.9601C133.701 19.5151 133.977 19.885 134.618 19.885C135.261 19.885 135.537 19.6075 135.537 18.9601Z" fill="#0075BF" style="fill:#0075BF;fill:color(display-p3 0.0000 0.4588 0.7490);fill-opacity:1;"/>
<path d="M140.397 15.1681H144.984V16.5555L142.507 19.8851H145.076V21.2725H140.397V19.8851L142.874 16.5555H140.397V15.1681Z" fill="#0075BF" style="fill:#0075BF;fill:color(display-p3 0.0000 0.4588 0.7490);fill-opacity:1;"/>
<path d="M145.721 17.2962C145.721 15.8163 146.363 15.0764 147.74 15.0764C148.198 15.0764 148.841 15.1689 149.299 15.2614V12.6717L151.134 12.3943V21.2732H149.758L149.574 20.8109C149.116 21.0883 148.381 21.4583 147.74 21.4583C146.547 21.4583 145.812 20.7184 145.812 19.2385V17.2962H145.721ZM149.299 16.7413C149.024 16.6487 148.565 16.5563 148.106 16.5563C147.648 16.5563 147.464 16.8337 147.464 17.2037V19.0536C147.464 19.5159 147.648 19.701 148.106 19.701C148.473 19.701 149.024 19.4235 149.299 19.2385V16.7413Z" fill="#0075BF" style="fill:#0075BF;fill:color(display-p3 0.0000 0.4588 0.7490);fill-opacity:1;"/>
<path d="M154.254 17.5726V21.2723H152.419V15.1679H153.886L153.978 15.7229C154.345 15.4454 155.079 15.0754 155.63 14.9829L155.814 16.6478C155.263 16.9252 154.621 17.2952 154.254 17.5726Z" fill="#0075BF" style="fill:#0075BF;fill:color(display-p3 0.0000 0.4588 0.7490);fill-opacity:1;"/>
<path d="M159.665 21.2724L159.573 20.9025C158.84 21.2724 158.289 21.4574 157.831 21.4574C156.73 21.4574 156.27 20.625 156.27 19.6075C156.27 18.4052 156.821 17.8502 158.106 17.8502H159.39V17.3877C159.39 16.7403 159.298 16.5554 158.289 16.5554C157.739 16.5554 157.188 16.6479 156.638 16.7403L156.362 15.3529C156.913 15.168 157.831 15.0755 158.564 15.0755C160.674 15.0755 161.134 15.723 161.134 17.3877V21.2724H159.665ZM159.39 19.0526H158.472C158.105 19.0526 157.922 19.1451 157.922 19.5151C157.922 19.885 158.014 19.9776 158.381 19.9776C158.748 19.9776 159.023 19.885 159.298 19.7926V19.0526H159.39Z" fill="#0075BF" style="fill:#0075BF;fill:color(display-p3 0.0000 0.4588 0.7490);fill-opacity:1;"/>
<path d="M165.815 21.2725H163.521L161.595 15.1681H163.43L164.622 19.5152L165.815 15.1681H167.65L165.815 21.2725Z" fill="#0075BF" style="fill:#0075BF;fill:color(display-p3 0.0000 0.4588 0.7490);fill-opacity:1;"/>
<path d="M167.19 22.7533C167.74 22.1983 168.108 21.9209 168.108 21.3659V15.169H169.942V21.5509C169.942 22.2908 169.392 22.9382 168.291 23.8632L167.19 22.7533ZM168.199 14.4291V12.4868H170.034V14.4291H168.199Z" fill="#0075BF" style="fill:#0075BF;fill:color(display-p3 0.0000 0.4588 0.7490);fill-opacity:1;"/>
<path d="M172.696 18.8677V19.0526C172.696 19.7926 172.97 19.9776 173.797 19.9776C174.347 19.9776 175.081 19.885 175.631 19.7001L175.907 21.0874C175.356 21.2724 174.438 21.4574 173.613 21.4574C171.686 21.4574 170.86 20.44 170.86 18.9601V17.5727C170.86 16.2779 171.411 15.0755 173.429 15.0755C175.448 15.0755 175.907 16.2779 175.907 17.5727V18.8677H172.696ZM174.255 17.2028C174.255 16.7403 174.163 16.4628 173.521 16.4628C172.879 16.4628 172.696 16.8329 172.696 17.2028V17.4803H174.255V17.2028Z" fill="#0075BF" style="fill:#0075BF;fill:color(display-p3 0.0000 0.4588 0.7490);fill-opacity:1;"/>
<path d="M4.2802 6.01035V35.8814H0V0.782924H6.17337L21.3187 30.8199V0.782924H25.5989V35.8814H19.4256L4.2802 6.01035Z" fill="#0075BF" style="fill:#0075BF;fill:color(display-p3 0.0000 0.4588 0.7490);fill-opacity:1;"/>
<path d="M36.4643 35.8814H31.9373V0.782924H36.4643V35.8814Z" fill="#0075BF" style="fill:#0075BF;fill:color(display-p3 0.0000 0.4588 0.7490);fill-opacity:1;"/>
<path d="M38.7686 41.4407C42.555 38.3706 42.9665 37.7898 42.9665 35.8814V0.782924H50.786V37.126C50.786 40.445 47.9875 43.432 43.3781 47L38.7686 41.4407Z" fill="#0075BF" style="fill:#0075BF;fill:color(display-p3 0.0000 0.4588 0.7490);fill-opacity:1;"/>
<path d="M64.7813 29.4093H80.1736V35.8814H55.8093V29.4922L71.1193 7.25497H56.5501V0.782924H80.0088V7.25497L64.7813 29.4093Z" fill="#0075BF" style="fill:#0075BF;fill:color(display-p3 0.0000 0.4588 0.7490);fill-opacity:1;"/>
</svg>
