<?xml version="1.0" encoding="UTF-8" standalone="no"?>
<!DOCTYPE svg PUBLIC "-//W3C//DTD SVG 1.1//EN" "http://www.w3.org/Graphics/SVG/1.1/DTD/svg11.dtd">
<svg width="100%" height="100%" viewBox="0 0 2555 641" version="1.1" xmlns="http://www.w3.org/2000/svg" xmlns:xlink="http://www.w3.org/1999/xlink" xml:space="preserve" xmlns:serif="http://www.serif.com/" style="fill-rule:evenodd;clip-rule:evenodd;stroke-linejoin:round;stroke-miterlimit:2;">
    <g id="Artboard1" transform="matrix(0.977427,0,0,0.875301,-224.606,-134.851)">
        <rect x="229.793" y="154.063" width="2613.21" height="732.15" style="fill:none;"/>
        <g id="Layer-1" serif:id="Layer 1" transform="matrix(4.2629,0,0,4.76027,-24.6021,-92.1525)">
            <g transform="matrix(1,0,0,1,384.794,76.4579)">
                <path d="M0,-19.167L0,4.053L-3.359,4.053L-3.359,-23.22L1.473,-23.22L13.35,0.12L13.35,-23.22L16.707,-23.22L16.707,4.053L11.875,4.053L0,-19.167Z" style="fill:rgb(128,130,133);fill-rule:nonzero;"/>
            </g>
            <g transform="matrix(1,0,0,1,417.882,68.6372)">
                <path d="M0,3.805L-5.08,3.805C-7.209,3.805 -7.986,4.462 -7.986,6.466C-7.986,8.515 -7.617,9.336 -5.16,9.336C-3.44,9.336 -1.517,8.678 0,7.695L0,3.805ZM3.439,11.874L0.531,11.874L0.326,10.399C-1.434,11.628 -3.728,12.285 -6.145,12.285C-9.869,12.285 -11.426,10.073 -11.426,6.552C-11.426,2.413 -9.338,0.941 -5.325,0.941L0,0.941L0,-2.174C0,-4.67 -1.106,-5.53 -4.342,-5.53C-6.268,-5.53 -8.766,-5.204 -10.321,-4.876L-10.689,-7.619C-8.805,-8.111 -6.268,-8.48 -4.138,-8.48C1.556,-8.48 3.439,-6.267 3.439,-2.008L3.439,11.874Z" style="fill:rgb(128,130,133);fill-rule:nonzero;"/>
            </g>
            <g transform="matrix(1,0,0,1,425.087,67.4082)">
                <path d="M0,6.263L0,-0.002C0,-4.59 1.719,-7.251 7.944,-7.251C9.705,-7.251 11.672,-6.965 12.695,-6.636L12.409,-3.769C10.853,-4.098 9.42,-4.221 8.025,-4.221C4.586,-4.221 3.439,-3.237 3.439,-0.125L3.439,6.386C3.439,9.498 4.586,10.482 8.025,10.482C9.42,10.482 10.853,10.359 12.409,10.03L12.736,12.9C11.712,13.225 9.705,13.514 7.944,13.514C1.557,13.514 0,10.85 0,6.263" style="fill:rgb(128,130,133);fill-rule:nonzero;"/>
            </g>
            <g transform="matrix(1,0,0,1,-8.50389,-108.295)">
                <path d="M450.505,168.861L453.944,168.861L453.944,188.806L450.505,188.806L450.505,168.861ZM450.505,160.712L453.944,160.712L453.944,165.668L450.505,165.668L450.505,160.712Z" style="fill:rgb(128,130,133);fill-rule:nonzero;"/>
            </g>
            <g transform="matrix(1,0,0,1,458.011,77.9323)">
                <path d="M0,-14.785C-3.112,-14.785 -4.669,-13.313 -4.669,-10.404L-4.669,-4.384C-4.669,-1.477 -3.112,-0.002 0,-0.002C3.113,-0.002 4.669,-1.477 4.669,-4.384L4.669,-10.404C4.669,-13.313 3.113,-14.785 0,-14.785M0,2.99C-5.814,2.99 -8.108,-0.328 -8.108,-4.507L-8.108,-10.281C-8.108,-14.456 -5.814,-17.775 0,-17.775C5.814,-17.775 8.109,-14.456 8.109,-10.281L8.109,-4.507C8.109,-0.328 5.814,2.99 0,2.99" style="fill:rgb(128,130,133);fill-rule:nonzero;"/>
            </g>
            <g transform="matrix(1,0,0,1,482.623,60.1571)">
                <path d="M0,20.354L0,5.12C0,3.811 -0.655,3.276 -1.924,3.276C-3.398,3.276 -6.471,4.179 -8.6,5.283L-8.6,20.354L-12.039,20.354L-12.039,0.409L-9.256,0.409L-8.928,2.13C-6.716,1.064 -3.275,0 -0.9,0C2.293,0 3.44,2.007 3.44,5.077L3.44,20.354L0,20.354Z" style="fill:rgb(128,130,133);fill-rule:nonzero;"/>
            </g>
            <g transform="matrix(1,0,0,1,502.034,68.6372)">
                <path d="M0,3.805L-5.079,3.805C-7.208,3.805 -7.985,4.462 -7.985,6.466C-7.985,8.515 -7.617,9.336 -5.161,9.336C-3.44,9.336 -1.517,8.678 0,7.695L0,3.805ZM3.439,11.874L0.532,11.874L0.327,10.399C-1.434,11.628 -3.728,12.285 -6.144,12.285C-9.87,12.285 -11.426,10.073 -11.426,6.552C-11.426,2.413 -9.338,0.941 -5.325,0.941L0,0.941L0,-2.174C0,-4.67 -1.106,-5.53 -4.342,-5.53C-6.267,-5.53 -8.765,-5.204 -10.321,-4.876L-10.688,-7.619C-8.805,-8.111 -6.267,-8.48 -4.138,-8.48C1.556,-8.48 3.439,-6.267 3.439,-2.008L3.439,11.874Z" style="fill:rgb(128,130,133);fill-rule:nonzero;"/>
            </g>
            <g transform="matrix(0,-1,-1,0,526.479,67.9391)">
                <path d="M-12.572,16.013L15.522,16.013L16.013,12.572L-12.572,12.572L-12.572,16.013Z" style="fill:rgb(128,130,133);fill-rule:nonzero;"/>
            </g>
            <g transform="matrix(1,0,0,1,531.435,60.1571)">
                <path d="M0,20.354L0,5.12C0,3.811 -0.654,3.276 -1.924,3.276C-3.398,3.276 -6.471,4.179 -8.6,5.283L-8.6,20.354L-12.039,20.354L-12.039,0.409L-9.256,0.409L-8.928,2.13C-6.716,1.064 -3.275,0 -0.9,0C2.293,0 3.441,2.007 3.441,5.077L3.441,20.354L0,20.354Z" style="fill:rgb(128,130,133);fill-rule:nonzero;"/>
            </g>
            <g transform="matrix(1,0,0,1,-8.50389,-108.295)">
                <path d="M548.66,168.861L552.1,168.861L552.1,188.806L548.66,188.806L548.66,168.861ZM548.66,160.712L552.1,160.712L552.1,165.668L548.66,165.668L548.66,160.712Z" style="fill:rgb(128,130,133);fill-rule:nonzero;"/>
            </g>
            <g transform="matrix(1,0,0,1,-8.50389,-108.295)">
                <path d="M565.326,168.861L568.767,168.861L568.767,188.806L565.326,188.806L565.326,168.861ZM565.326,160.712L568.767,160.712L568.767,165.668L565.326,165.668L565.326,160.712Z" style="fill:rgb(128,130,133);fill-rule:nonzero;"/>
            </g>
            <g transform="matrix(1,0,0,1,577.789,60.1571)">
                <path d="M0,20.354L0,5.12C0,3.811 -0.655,3.276 -1.924,3.276C-3.398,3.276 -6.471,4.179 -8.6,5.283L-8.6,20.354L-12.041,20.354L-12.041,0.409L-9.256,0.409L-8.928,2.13C-6.717,1.064 -3.276,0 -0.9,0C2.293,0 3.44,2.007 3.44,5.077L3.44,20.354L0,20.354Z" style="fill:rgb(128,130,133);fill-rule:nonzero;"/>
            </g>
            <g transform="matrix(1,0,0,1,597.896,78.9963)">
                <path d="M0,-24.161C-1.926,-23.017 -3.44,-21.951 -5.447,-20.313C-7.453,-21.951 -8.97,-23.017 -10.895,-24.161L-9.666,-26.087C-7.782,-25.064 -6.799,-24.449 -5.447,-23.343C-4.096,-24.449 -3.113,-25.064 -1.229,-26.087L0,-24.161ZM-5.857,1.926C-7.904,1.926 -10.607,1.472 -12.205,0.86L-11.754,-1.844C-10.034,-1.352 -7.782,-1.023 -6.062,-1.023C-2.908,-1.023 -2.376,-1.598 -2.376,-3.727C-2.376,-5.857 -2.54,-6.102 -6.553,-7.086C-11.508,-8.315 -11.959,-9.338 -11.959,-13.474C-11.959,-17.161 -10.32,-18.839 -5.078,-18.839C-3.154,-18.839 -1.065,-18.593 0.572,-18.144L0.326,-15.317C-1.353,-15.643 -3.563,-15.889 -5.201,-15.889C-8.15,-15.889 -8.56,-15.194 -8.56,-13.394C-8.56,-11.182 -8.52,-10.77 -5.161,-9.953C0.572,-8.52 1.022,-7.823 1.022,-3.85C1.022,0.04 -0.165,1.926 -5.857,1.926" style="fill:rgb(128,130,133);fill-rule:nonzero;"/>
            </g>
            <g transform="matrix(1,0,0,1,613.824,55.8989)">
                <path d="M0,24.286C-1.227,24.735 -2.702,25.023 -4.177,25.023C-7.535,25.023 -9.131,23.794 -9.131,20.476L-9.131,7.534L-12.654,7.534L-12.654,4.667L-9.131,4.667L-9.131,-0.246L-5.691,-0.737L-5.691,4.667L-0.039,4.667L-0.326,7.534L-5.691,7.534L-5.691,19.904C-5.691,21.376 -5.487,22.114 -3.644,22.114C-2.702,22.114 -1.719,21.951 -0.449,21.622L0,24.286Z" style="fill:rgb(128,130,133);fill-rule:nonzero;"/>
            </g>
            <g transform="matrix(1,0,0,1,-8.50389,-108.295)">
                <path d="M625.971,168.861L629.411,168.861L629.411,188.806L625.971,188.806L625.971,168.861ZM625.971,160.712L629.411,160.712L629.411,165.668L625.971,165.668L625.971,160.712Z" style="fill:rgb(128,130,133);fill-rule:nonzero;"/>
            </g>
            <g transform="matrix(1,0,0,1,636.796,55.8989)">
                <path d="M0,24.286C-1.229,24.735 -2.701,25.023 -4.176,25.023C-7.535,25.023 -9.131,23.794 -9.131,20.476L-9.131,7.534L-12.654,7.534L-12.654,4.667L-9.131,4.667L-9.131,-0.246L-5.691,-0.737L-5.691,4.667L-0.039,4.667L-0.326,7.534L-5.691,7.534L-5.691,19.904C-5.691,21.376 -5.486,22.114 -3.644,22.114C-2.701,22.114 -1.719,21.951 -0.449,21.622L0,24.286Z" style="fill:rgb(128,130,133);fill-rule:nonzero;"/>
            </g>
            <g transform="matrix(1,0,0,1,643.675,80.9223)">
                <path d="M0,-20.356L0,-5.119C0,-3.81 0.656,-3.278 1.926,-3.278C3.4,-3.278 6.471,-4.179 8.601,-5.285L8.601,-20.356L12.041,-20.356L12.041,-0.411L9.256,-0.411L8.928,-2.132C6.717,-1.066 3.277,0 0.902,0C-2.292,0 -3.439,-2.009 -3.439,-5.082L-3.439,-20.356L0,-20.356Z" style="fill:rgb(128,130,133);fill-rule:nonzero;"/>
            </g>
            <g transform="matrix(1,0,0,1,671.603,55.8989)">
                <path d="M0,24.286C-1.228,24.735 -2.702,25.023 -4.178,25.023C-7.535,25.023 -9.132,23.794 -9.132,20.476L-9.132,7.534L-12.654,7.534L-12.654,4.667L-9.132,4.667L-9.132,-0.246L-5.691,-0.737L-5.691,4.667L-0.04,4.667L-0.327,7.534L-5.691,7.534L-5.691,19.904C-5.691,21.376 -5.488,22.114 -3.645,22.114C-2.702,22.114 -1.719,21.951 -0.45,21.622L0,24.286Z" style="fill:rgb(128,130,133);fill-rule:nonzero;"/>
            </g>
            <g transform="matrix(1,0,0,1,380.617,121.086)">
                <path d="M0,-19.944L13.76,-19.944L13.718,-17.16L3.563,-2.786L13.883,-2.786L13.883,0L-0.206,0L-0.206,-2.786L9.951,-17.16L0,-17.16L0,-19.944Z" style="fill:rgb(128,130,133);fill-rule:nonzero;"/>
            </g>
            <g transform="matrix(1,0,0,1,409.529,109.208)">
                <path d="M0,3.812L-5.079,3.812C-7.209,3.812 -7.986,4.464 -7.986,6.473C-7.986,8.52 -7.617,9.337 -5.16,9.337C-3.439,9.337 -1.516,8.686 0,7.702L0,3.812ZM3.439,11.878L0.531,11.878L0.327,10.403C-1.434,11.632 -3.727,12.287 -6.144,12.287C-9.869,12.287 -11.426,10.075 -11.426,6.553C-11.426,2.417 -9.338,0.943 -5.324,0.943L0,0.943L0,-2.167C0,-4.668 -1.105,-5.528 -4.342,-5.528C-6.267,-5.528 -8.765,-5.2 -10.32,-4.871L-10.689,-7.615C-8.805,-8.106 -6.267,-8.475 -4.136,-8.475C1.557,-8.475 3.439,-6.266 3.439,-2.004L3.439,11.878Z" style="fill:rgb(128,130,133);fill-rule:nonzero;"/>
            </g>
            <g transform="matrix(1,0,0,1,-8.50389,-19.28)">
                <path d="M433.181,111.659L439.079,111.659L439.079,117.924L433.181,117.924L433.181,111.659ZM430.111,144.994C431.954,143.276 433.181,142.293 433.181,140.529L433.181,120.422L439.08,120.422L439.08,141.31C439.08,143.682 437.318,145.814 433.673,148.844L430.111,144.994Z" style="fill:rgb(0,125,197);fill-rule:nonzero;"/>
            </g>
            <g transform="matrix(1,0,0,1,444.253,108.31)">
                <path d="M0,5.608L-2.826,5.608C-4.096,5.608 -4.588,5.937 -4.588,7.043C-4.588,8.149 -4.137,8.6 -2.99,8.6C-1.761,8.6 -0.902,8.312 0,7.903L0,5.608ZM1.064,12.776L0.654,11.507C-1.639,12.776 -3.686,13.185 -5.037,13.185C-8.723,13.185 -10.238,10.524 -10.238,7.126C-10.238,3.112 -8.396,1.515 -4.301,1.515L0,1.515L0,-0.003C0,-2.049 -0.369,-2.744 -3.523,-2.744C-5.283,-2.744 -7.045,-2.541 -8.928,-2.172L-9.707,-6.594C-7.822,-7.168 -4.834,-7.577 -2.539,-7.577C4.381,-7.577 5.896,-5.491 5.896,0.04L5.896,12.776L1.064,12.776Z" style="fill:rgb(0,125,197);fill-rule:nonzero;"/>
            </g>
            <g transform="matrix(1,0,0,1,465.341,101.142)">
                <path d="M0,19.944L-7.534,19.944L-13.801,0L-7.822,0L-3.768,14.128L0.287,0L6.267,0L0,19.944Z" style="fill:rgb(0,125,197);fill-rule:nonzero;"/>
            </g>
            <g transform="matrix(1,0,0,1,485.041,100.733)">
                <path d="M0,20.353L0,7.168C0,6.265 -0.41,5.733 -1.434,5.733C-2.498,5.733 -4.465,6.471 -5.734,7.168L-5.734,20.353L-11.631,20.353L-11.631,0.409L-7.249,0.409L-6.635,1.926C-4.178,0.737 -0.984,0 1.311,0C4.709,0 5.897,2.541 5.897,6.388L5.897,20.353L0,20.353Z" style="fill:rgb(0,125,197);fill-rule:nonzero;"/>
            </g>
            <g transform="matrix(1,0,0,1,506.087,108.636)">
                <path d="M0,4.956L0,-0C0,-1.883 -0.982,-2.947 -3.112,-2.947C-5.242,-2.947 -6.225,-1.883 -6.225,-0L-6.225,4.956C-6.225,6.84 -5.242,7.906 -3.112,7.906C-0.982,7.906 0,6.84 0,4.956M-12.123,4.79L-12.123,0.163C-12.123,-3.93 -10.197,-7.903 -3.112,-7.903C3.973,-7.903 5.896,-3.93 5.896,0.163L5.896,4.79C5.896,8.889 3.973,12.859 -3.112,12.859C-10.197,12.859 -12.123,8.889 -12.123,4.79" style="fill:rgb(0,125,197);fill-rule:nonzero;"/>
            </g>
            <g transform="matrix(1,0,0,1,521.976,121.086)">
                <path d="M0,-19.944L15.07,-19.944L15.07,-15.439L6.797,-4.504L15.316,-4.504L15.316,0L-0.041,0L-0.041,-4.504L8.189,-15.439L0,-15.439L0,-19.944Z" style="fill:rgb(0,125,197);fill-rule:nonzero;"/>
            </g>
            <g transform="matrix(1,0,0,1,551.294,107.327)">
                <path d="M0,-0.983C-1.023,-1.229 -2.537,-1.475 -3.767,-1.475C-5.322,-1.475 -5.896,-0.532 -5.896,0.777L-5.896,6.797C-5.896,8.189 -5.322,9.049 -3.767,9.049C-2.414,9.049 -0.859,8.232 0,7.494L0,-0.983ZM-11.794,0.777C-11.794,-3.933 -9.746,-6.594 -5.077,-6.594C-3.439,-6.594 -1.35,-6.348 0,-6.02L0,-14.334L5.898,-15.151L5.898,13.759L1.271,13.759L0.656,12.162C-0.736,13.062 -3.316,14.168 -5.487,14.168C-9.541,14.168 -11.794,11.673 -11.794,6.797L-11.794,0.777Z" style="fill:rgb(0,125,197);fill-rule:nonzero;"/>
            </g>
            <g transform="matrix(1,0,0,1,567.348,112.897)">
                <path d="M0,-3.975L0,8.189L-5.896,8.189L-5.896,-11.755L-0.983,-11.755L-0.573,-9.831C0.655,-10.649 3.194,-11.835 4.792,-12.164L5.283,-6.593C3.522,-5.899 1.269,-4.873 0,-3.975" style="fill:rgb(0,125,197);fill-rule:nonzero;"/>
            </g>
            <g transform="matrix(1,0,0,1,584.137,108.31)">
                <path d="M0,5.608L-2.825,5.608C-4.096,5.608 -4.587,5.937 -4.587,7.043C-4.587,8.149 -4.136,8.6 -2.989,8.6C-1.761,8.6 -0.901,8.312 0,7.903L0,5.608ZM1.065,12.776L0.655,11.507C-1.638,12.776 -3.686,13.185 -5.038,13.185C-8.724,13.185 -10.238,10.524 -10.238,7.126C-10.238,3.112 -8.396,1.515 -4.3,1.515L0,1.515L0,-0.003C0,-2.049 -0.368,-2.744 -3.522,-2.744C-5.283,-2.744 -7.044,-2.541 -8.928,-2.172L-9.706,-6.594C-7.821,-7.168 -4.833,-7.577 -2.54,-7.577C4.382,-7.577 5.896,-5.491 5.896,0.04L5.896,12.776L1.065,12.776Z" style="fill:rgb(0,125,197);fill-rule:nonzero;"/>
            </g>
            <g transform="matrix(1,0,0,1,605.225,101.142)">
                <path d="M0,19.944L-7.534,19.944L-13.801,0L-7.821,0L-3.767,14.128L0.288,0L6.267,0L0,19.944Z" style="fill:rgb(0,125,197);fill-rule:nonzero;"/>
            </g>
            <g transform="matrix(1,0,0,1,-8.50389,-19.28)">
                <path d="M621.592,111.659L627.489,111.659L627.489,117.924L621.592,117.924L621.592,111.659ZM618.521,144.994C620.365,143.276 621.592,142.293 621.592,140.529L621.592,120.422L627.49,120.422L627.49,141.31C627.49,143.682 625.73,145.814 622.083,148.844L618.521,144.994Z" style="fill:rgb(0,125,197);fill-rule:nonzero;"/>
            </g>
            <g transform="matrix(1,0,0,1,633.072,114.328)">
                <path d="M0,-6.426C0,-7.821 -0.409,-8.967 -2.457,-8.967C-4.505,-8.967 -5.16,-7.821 -5.16,-6.426L-5.16,-5.569L0,-5.569L0,-6.426ZM-5.16,-1.147L-5.16,-0.57C-5.16,1.722 -4.26,2.337 -1.557,2.337C0.287,2.337 2.744,2.009 4.506,1.477L5.364,5.899C3.564,6.553 0.656,7.168 -2.13,7.168C-8.6,7.168 -11.057,3.972 -11.057,-0.939L-11.057,-5.609C-11.057,-9.91 -9.133,-13.594 -2.498,-13.594C4.137,-13.594 5.57,-9.664 5.57,-5.323L5.57,-1.147L-5.16,-1.147Z" style="fill:rgb(0,125,197);fill-rule:nonzero;"/>
            </g>
            <g transform="matrix(1,0,0,1,74.1148,151.593)">
                <path d="M0,-81.312L0,17.203L-14.248,17.203L-14.248,-98.515L6.255,-98.515L56.645,0.521L56.645,-98.515L70.89,-98.515L70.89,17.203L50.387,17.203L0,-81.312Z" style="fill:rgb(128,130,133);fill-rule:nonzero;"/>
            </g>
            <g transform="matrix(-1,0,0,1,355.57,-19.349)">
                <rect x="174.567" y="72.427" width="14.94" height="115.718" style="fill:rgb(128,130,133);"/>
            </g>
            <g transform="matrix(1,0,0,1,188.789,71.4964)">
                <path d="M0,115.542C12.683,105.288 14.072,103.38 14.072,97.299L14.072,-18.419L40.135,-18.419L40.135,101.296C40.135,112.239 30.926,121.97 15.465,133.961L0,115.542Z" style="fill:rgb(0,125,197);fill-rule:nonzero;"/>
            </g>
            <g transform="matrix(1,0,0,1,275.139,74.4517)">
                <path d="M0,72.97L51.255,72.97L51.255,94.344L-29.71,94.344L-29.71,73.146L21.198,0L-27.452,0L-27.452,-21.374L50.386,-21.374L50.386,0L0,72.97Z" style="fill:rgb(0,125,197);fill-rule:nonzero;"/>
            </g>
        </g>
    </g>
</svg>
