<svg width="243" height="77" viewBox="0 0 243 77" fill="none" xmlns="http://www.w3.org/2000/svg">
<path d="M35.1684 6.04237C27.165 -2.05719 14.1271 -1.9924 6.05909 6.10717C-2.00891 14.2067 -2.00891 27.2956 5.99455 35.3304L46.8509 76.3466L75.8957 46.8642L35.1684 6.04237Z" fill="#0D76BD" style="fill:#0D76BD;fill:color(display-p3 0.0510 0.4627 0.7412);fill-opacity:1;"/>
<path d="M58.727 6.30156C66.795 -1.79801 79.8328 -1.79801 87.9008 6.30156C95.9688 14.4011 95.9688 27.49 87.9008 35.5896L47.1091 76.6058L17.9352 47.3178L58.727 6.30156Z" fill="#16ACE3" style="fill:#16ACE3;fill:color(display-p3 0.0863 0.6745 0.8902);fill-opacity:1;"/>
<path d="M49.8844 69.543C48.6581 70.7741 46.5282 70.7093 45.1727 69.3486L25.2286 49.3265C23.8732 47.9657 23.8087 45.8274 25.035 44.5963L43.301 26.2589C44.5273 25.0278 46.6572 25.0926 48.0127 26.4533L67.8922 46.4106C69.2476 47.7713 69.3122 49.9096 68.0858 51.1408L49.8844 69.543Z" fill="#99DAEE" style="fill:#99DAEE;fill:color(display-p3 0.6000 0.8549 0.9333);fill-opacity:1;"/>
<path d="M82.2855 11.7445C81.7046 12.3276 80.801 12.3276 80.2201 11.7445C79.6392 11.1613 79.6392 10.2541 80.2201 9.67098C80.801 9.08781 81.7046 9.08781 82.2855 9.67098C82.8664 10.2541 82.8664 11.1613 82.2855 11.7445Z" fill="#99DAEE" style="fill:#99DAEE;fill:color(display-p3 0.6000 0.8549 0.9333);fill-opacity:1;"/>
<path d="M74.0884 12.7812C73.5075 13.3644 72.6039 13.3644 72.023 12.7812C71.4421 12.198 71.4421 11.2909 72.023 10.7077C72.6039 10.1246 73.5075 10.1246 74.0884 10.7077C74.6693 11.2909 74.6693 12.198 74.0884 12.7812Z" fill="#99DAEE" style="fill:#99DAEE;fill:color(display-p3 0.6000 0.8549 0.9333);fill-opacity:1;"/>
<path d="M81.2528 19.9736C80.6719 20.5568 79.7683 20.5568 79.1874 19.9736C78.6065 19.3905 78.6065 18.4833 79.1874 17.9001C79.7683 17.317 80.6719 17.317 81.2528 17.9001C81.8337 18.4185 81.8337 19.3905 81.2528 19.9736Z" fill="#99DAEE" style="fill:#99DAEE;fill:color(display-p3 0.6000 0.8549 0.9333);fill-opacity:1;"/>
<path d="M88.3526 27.1012C87.7718 27.6844 86.8681 27.6844 86.2872 27.1012C85.7063 26.5181 85.7063 25.6109 86.2872 25.0278C86.8681 24.4446 87.7718 24.4446 88.3526 25.0278C88.9335 25.6109 88.9335 26.5181 88.3526 27.1012Z" fill="#99DAEE" style="fill:#99DAEE;fill:color(display-p3 0.6000 0.8549 0.9333);fill-opacity:1;"/>
<path d="M65.8913 13.8828C65.3104 14.4659 64.4068 14.4659 63.8259 13.8828C63.245 13.2996 63.245 12.3924 63.8259 11.8093C64.4068 11.2261 65.3104 11.2261 65.8913 11.8093C66.4722 12.3924 66.4722 13.2996 65.8913 13.8828Z" fill="#99DAEE" style="fill:#99DAEE;fill:color(display-p3 0.6000 0.8549 0.9333);fill-opacity:1;"/>
<path d="M72.9912 21.0752C72.4103 21.6583 71.5067 21.6583 70.9258 21.0752C70.3449 20.492 70.3449 19.5848 70.9258 19.0017C71.5067 18.4185 72.4103 18.4185 72.9912 19.0017C73.5721 19.5201 73.5721 20.492 72.9912 21.0752Z" fill="#99DAEE" style="fill:#99DAEE;fill:color(display-p3 0.6000 0.8549 0.9333);fill-opacity:1;"/>
<path d="M80.1556 28.2028C79.5747 28.786 78.6711 28.786 78.0902 28.2028C77.5093 27.6196 77.5093 26.7125 78.0902 26.1293C78.6711 25.5461 79.5747 25.5461 80.1556 26.1293C80.7365 26.7125 80.7365 27.6196 80.1556 28.2028Z" fill="#99DAEE" style="fill:#99DAEE;fill:color(display-p3 0.6000 0.8549 0.9333);fill-opacity:1;"/>
<path d="M65.1168 21.7879C64.5359 22.3711 63.6323 22.3711 63.0514 21.7879C62.4705 21.2048 62.4705 20.2976 63.0514 19.7144C63.6323 19.1313 64.5359 19.1313 65.1168 19.7144C65.6977 20.2976 65.6977 21.2696 65.1168 21.7879Z" fill="#99DAEE" style="fill:#99DAEE;fill:color(display-p3 0.6000 0.8549 0.9333);fill-opacity:1;"/>
<path d="M72.2167 28.9803C71.6358 29.5635 70.7321 29.5635 70.1512 28.9803C69.5704 28.3972 69.5704 27.49 70.1512 26.9069C70.7321 26.3237 71.6358 26.3237 72.2167 26.9069C72.7975 27.4252 72.7975 28.3972 72.2167 28.9803Z" fill="#99DAEE" style="fill:#99DAEE;fill:color(display-p3 0.6000 0.8549 0.9333);fill-opacity:1;"/>
<path d="M79.381 36.108C78.8001 36.6911 77.8965 36.6911 77.3156 36.108C76.7347 35.5248 76.7347 34.6176 77.3156 34.0345C77.8965 33.4513 78.8001 33.4513 79.381 34.0345C79.9619 34.6176 79.9619 35.5248 79.381 36.108Z" fill="#99DAEE" style="fill:#99DAEE;fill:color(display-p3 0.6000 0.8549 0.9333);fill-opacity:1;"/>
<path d="M56.9197 22.8895C56.3388 23.4726 55.4352 23.4726 54.8543 22.8895C54.2734 22.3063 54.2734 21.3992 54.8543 20.816C55.4352 20.2328 56.3388 20.2328 56.9197 20.816C57.5006 21.3992 57.5006 22.3063 56.9197 22.8895Z" fill="#99DAEE" style="fill:#99DAEE;fill:color(display-p3 0.6000 0.8549 0.9333);fill-opacity:1;"/>
<path d="M64.0196 30.0819C63.4387 30.6651 62.5351 30.6651 61.9542 30.0819C61.3733 29.4987 61.3733 28.5916 61.9542 28.0084C62.5351 27.4252 63.4387 27.4252 64.0196 28.0084C64.6005 28.5268 64.6005 29.4987 64.0196 30.0819Z" fill="#99DAEE" style="fill:#99DAEE;fill:color(display-p3 0.6000 0.8549 0.9333);fill-opacity:1;"/>
<path d="M71.184 37.2095C70.6031 37.7927 69.6994 37.7927 69.1185 37.2095C68.5377 36.6263 68.5377 35.7192 69.1185 35.136C69.6994 34.5528 70.6031 34.5528 71.184 35.136C71.7003 35.7192 71.7003 36.6263 71.184 37.2095Z" fill="#99DAEE" style="fill:#99DAEE;fill:color(display-p3 0.6000 0.8549 0.9333);fill-opacity:1;"/>
<path d="M11.868 10.1894C12.4489 10.7725 13.3526 10.7725 13.9335 10.1894C14.5143 9.60618 14.5143 8.69903 13.9335 8.11586C13.3526 7.53269 12.4489 7.53269 11.868 8.11586C11.2872 8.69903 11.2872 9.60618 11.868 10.1894Z" fill="#6DCEEC" style="fill:#6DCEEC;fill:color(display-p3 0.4275 0.8078 0.9255);fill-opacity:1;"/>
<path d="M20.0006 11.2261C20.5815 11.8093 21.4851 11.8093 22.066 11.2261C22.6469 10.6429 22.6469 9.73578 22.066 9.15261C21.4851 8.56944 20.5815 8.56944 20.0006 9.15261C19.4197 9.73578 19.4197 10.6429 20.0006 11.2261Z" fill="#6DCEEC" style="fill:#6DCEEC;fill:color(display-p3 0.4275 0.8078 0.9255);fill-opacity:1;"/>
<path d="M12.9008 18.3537C13.4816 18.9369 14.3853 18.9369 14.9662 18.3537C15.5471 17.7705 15.5471 16.8634 14.9662 16.2802C14.3853 15.6971 13.4816 15.6971 12.9008 16.2802C12.3199 16.8634 12.3199 17.7705 12.9008 18.3537Z" fill="#6DCEEC" style="fill:#6DCEEC;fill:color(display-p3 0.4275 0.8078 0.9255);fill-opacity:1;"/>
<path d="M5.73637 25.5461C6.31727 26.1293 7.22088 26.1293 7.80178 25.5461C8.38267 24.963 8.38267 24.0558 7.80178 23.4726C7.22088 22.8895 6.31727 22.8895 5.73637 23.4726C5.15547 23.991 5.15547 24.963 5.73637 25.5461Z" fill="#6DCEEC" style="fill:#6DCEEC;fill:color(display-p3 0.4275 0.8078 0.9255);fill-opacity:1;"/>
<path d="M28.2622 12.3276C28.8431 12.9108 29.7467 12.9108 30.3276 12.3276C30.9085 11.7445 30.9085 10.8373 30.3276 10.2541C29.7467 9.67098 28.8431 9.67098 28.2622 10.2541C27.6813 10.7725 27.6813 11.7445 28.2622 12.3276Z" fill="#6DCEEC" style="fill:#6DCEEC;fill:color(display-p3 0.4275 0.8078 0.9255);fill-opacity:1;"/>
<path d="M21.0978 19.4553C21.6787 20.0384 22.5823 20.0384 23.1632 19.4553C23.7441 18.8721 23.7441 17.9649 23.1632 17.3818C22.5823 16.7986 21.6787 16.7986 21.0978 17.3818C20.5169 17.9649 20.5169 18.8721 21.0978 19.4553Z" fill="#6DCEEC" style="fill:#6DCEEC;fill:color(display-p3 0.4275 0.8078 0.9255);fill-opacity:1;"/>
<path d="M13.998 26.6477C14.5789 27.2308 15.4825 27.2308 16.0634 26.6477C16.6443 26.0645 16.6443 25.1574 16.0634 24.5742C15.4825 23.991 14.5789 23.991 13.998 24.5742C13.4171 25.0926 13.4171 26.0645 13.998 26.6477Z" fill="#6DCEEC" style="fill:#6DCEEC;fill:color(display-p3 0.4275 0.8078 0.9255);fill-opacity:1;"/>
<path d="M28.9722 20.2328C29.5531 20.816 30.4567 20.816 31.0376 20.2328C31.6185 19.6496 31.6185 18.7425 31.0376 18.1593C30.4567 17.5762 29.5531 17.5762 28.9722 18.1593C28.3913 18.7425 28.3913 19.6496 28.9722 20.2328Z" fill="#6DCEEC" style="fill:#6DCEEC;fill:color(display-p3 0.4275 0.8078 0.9255);fill-opacity:1;"/>
<path d="M21.8724 27.3604C22.4533 27.9436 23.3569 27.9436 23.9378 27.3604C24.5187 26.7773 24.5187 25.8701 23.9378 25.2869C23.3569 24.7038 22.4533 24.7038 21.8724 25.2869C21.2915 25.8701 21.2915 26.8421 21.8724 27.3604Z" fill="#6DCEEC" style="fill:#6DCEEC;fill:color(display-p3 0.4275 0.8078 0.9255);fill-opacity:1;"/>
<path d="M14.7725 34.5528C15.3534 35.136 16.257 35.136 16.8379 34.5528C17.4188 33.9697 17.4188 33.0625 16.8379 32.4794C16.257 31.8962 15.3534 31.8962 14.7725 32.4794C14.1916 32.9977 14.1916 33.9697 14.7725 34.5528Z" fill="#6DCEEC" style="fill:#6DCEEC;fill:color(display-p3 0.4275 0.8078 0.9255);fill-opacity:1;"/>
<path d="M37.2338 21.3344C37.8147 21.9175 38.7183 21.9175 39.2992 21.3344C39.8801 20.7512 39.8801 19.844 39.2992 19.2609C38.7183 18.6777 37.8147 18.6777 37.2338 19.2609C36.6529 19.844 36.6529 20.7512 37.2338 21.3344Z" fill="#6DCEEC" style="fill:#6DCEEC;fill:color(display-p3 0.4275 0.8078 0.9255);fill-opacity:1;"/>
<path d="M30.0694 28.462C30.6503 29.0451 31.554 29.0451 32.1349 28.462C32.7157 27.8788 32.7157 26.9717 32.1349 26.3885C31.554 25.8053 30.6503 25.8053 30.0694 26.3885C29.4885 26.9717 29.4885 27.8788 30.0694 28.462Z" fill="#6DCEEC" style="fill:#6DCEEC;fill:color(display-p3 0.4275 0.8078 0.9255);fill-opacity:1;"/>
<path d="M22.9696 35.6544C23.5505 36.2376 24.4541 36.2376 25.035 35.6544C25.6159 35.0712 25.6159 34.1641 25.035 33.5809C24.4541 32.9977 23.5505 32.9977 22.9696 33.5809C22.3887 34.0993 22.3887 35.0712 22.9696 35.6544Z" fill="#6DCEEC" style="fill:#6DCEEC;fill:color(display-p3 0.4275 0.8078 0.9255);fill-opacity:1;"/>
<path d="M38.6538 45.3091C38.6538 46.605 37.5565 47.7065 36.2657 47.7065C34.9748 47.7065 33.8775 46.605 33.8775 45.3091C33.8775 44.0131 34.9748 42.9116 36.2657 42.9116C37.5565 42.9116 38.6538 44.0131 38.6538 45.3091Z" fill="#16ACE3" style="fill:#16ACE3;fill:color(display-p3 0.0863 0.6745 0.8902);fill-opacity:1;"/>
<path d="M42.0101 53.0199H30.5213C30.5213 50.2336 33.103 48.0305 36.2657 48.0305C39.4283 48.0305 42.0101 50.2336 42.0101 53.0199Z" fill="#16ACE3" style="fill:#16ACE3;fill:color(display-p3 0.0863 0.6745 0.8902);fill-opacity:1;"/>
<path d="M60.276 45.3091C60.276 46.605 59.1788 47.7065 57.8879 47.7065C56.597 47.7065 55.4998 46.605 55.4998 45.3091C55.4998 44.0131 56.597 42.9116 57.8879 42.9116C59.1788 42.9116 60.276 43.9483 60.276 45.3091Z" fill="#16ACE3" style="fill:#16ACE3;fill:color(display-p3 0.0863 0.6745 0.8902);fill-opacity:1;"/>
<path d="M63.6323 53.0199H52.1435C52.1435 50.2336 54.7252 48.0305 57.8879 48.0305C61.0506 48.0305 63.6323 50.2336 63.6323 53.0199Z" fill="#16ACE3" style="fill:#16ACE3;fill:color(display-p3 0.0863 0.6745 0.8902);fill-opacity:1;"/>
<path d="M49.7554 56.6485C49.7554 57.9444 48.6581 59.0459 47.3672 59.0459C46.0764 59.0459 44.9791 57.9444 44.9791 56.6485C44.9791 55.3525 46.0764 54.251 47.3672 54.251C48.7227 54.251 49.7554 55.3525 49.7554 56.6485Z" fill="#16ACE3" style="fill:#16ACE3;fill:color(display-p3 0.0863 0.6745 0.8902);fill-opacity:1;"/>
<path d="M53.1116 64.3593H41.6874C41.6874 61.573 44.2691 59.3699 47.4318 59.3699C50.5944 59.3699 53.1116 61.573 53.1116 64.3593Z" fill="#16ACE3" style="fill:#16ACE3;fill:color(display-p3 0.0863 0.6745 0.8902);fill-opacity:1;"/>
<path d="M48.6581 31.313C48.6581 32.9329 47.3672 34.2289 45.7536 34.2289C44.14 34.2289 42.8492 32.9329 42.8492 31.313C42.8492 29.6931 44.14 28.3972 45.7536 28.3972C47.3672 28.3972 48.6581 29.6931 48.6581 31.313Z" fill="#16ACE3" style="fill:#16ACE3;fill:color(display-p3 0.0863 0.6745 0.8902);fill-opacity:1;"/>
<path d="M52.7889 40.8381H38.7183C38.7183 37.4687 41.881 34.6824 45.7536 34.6824C49.6263 34.6824 52.7889 37.4039 52.7889 40.8381Z" fill="#16ACE3" style="fill:#16ACE3;fill:color(display-p3 0.0863 0.6745 0.8902);fill-opacity:1;"/>
<path d="M86.4809 62.6097C86.4809 62.2858 86.5454 61.3138 86.5454 60.8602C86.5454 60.1475 86.4809 59.6939 86.1581 59.3699C85.8354 59.1107 85.19 58.5276 83.06 58.5276C77.832 58.5276 75.5729 61.897 75.5729 65.9144C75.5729 69.9318 78.0256 73.1068 83.3182 73.1068C85.5773 73.1068 86.4809 72.7828 86.9972 72.394C87.449 72.07 87.5136 71.1629 87.5136 70.3205C87.5136 69.8022 87.449 69.0894 87.3845 68.5062C87.9654 67.7287 90.9344 67.3399 91.5153 68.5062C91.5798 68.9598 91.7089 69.9318 91.7089 70.7741C91.7089 72.8476 91.7089 74.5971 90.1599 75.5691C88.6754 76.541 86.2227 77.0594 82.9955 76.9946C74.863 76.9298 71.2485 71.8756 71.2485 65.9792C71.2485 59.9531 74.9921 54.575 83.6409 54.575C87.7718 54.575 89.3854 55.4821 90.0308 56.1301C90.6117 56.7781 90.8053 58.4628 90.8053 60.0179C90.8053 60.7954 90.8053 61.897 90.6762 62.6097C89.579 63.5817 87.1909 63.5169 86.4809 62.6097Z" fill="#0D76BD" style="fill:#0D76BD;fill:color(display-p3 0.0510 0.4627 0.7412);fill-opacity:1;"/>
<path d="M100.874 63.3873C100.874 63.5817 100.939 63.7113 101.197 63.7113H106.748C107.135 64.0353 107.329 64.748 107.329 65.5256C107.329 66.3679 107.07 66.9511 106.748 67.3399H101.197C100.939 67.3399 100.874 67.4047 100.874 67.6639V72.7828C102.875 72.7828 105.328 72.9772 106.296 72.9772C107.458 72.9772 107.716 72.6532 107.716 71.6165C107.716 70.7093 107.587 69.7374 107.522 69.219C107.651 68.247 110.62 67.6639 111.395 68.7654C111.459 69.3486 111.653 70.5149 111.653 72.0052C111.653 74.9211 111.33 76.6058 108.49 76.6058C106.102 76.6058 101.584 76.3466 98.9379 76.3466C97.0015 76.3466 95.1298 76.4762 94.4843 76.6058C93.5807 76.217 93.1935 73.8843 93.968 73.1068C94.5489 72.9124 96.0334 72.7828 96.6788 72.7828V58.9811C96.6788 58.7868 96.6143 58.6572 96.3561 58.6572H94.8071C94.4198 58.5924 94.0971 57.75 94.0971 56.8429C94.0971 55.9357 94.3552 55.1581 94.8071 55.0286H108.749C110.427 55.0286 110.749 55.2877 110.879 56.9076C110.943 58.1388 110.943 60.2771 110.879 61.573C110.169 62.4802 107.587 62.4802 107.006 61.573C107.006 61.1194 107.07 60.0827 107.006 59.5643C107.006 59.1107 106.941 58.6572 106.231 58.6572H100.874V63.3873Z" fill="#0D76BD" style="fill:#0D76BD;fill:color(display-p3 0.0510 0.4627 0.7412);fill-opacity:1;"/>
<path d="M121.076 72.6532C121.076 72.8476 121.141 72.9772 121.399 72.9772H123.916C124.304 73.042 124.626 73.8843 124.626 74.7915C124.626 75.6986 124.368 76.4762 123.916 76.6058H115.009C114.622 76.4762 114.299 75.6339 114.299 74.7915C114.299 73.8843 114.622 73.1068 115.009 72.9772H116.558C116.817 72.9772 116.881 72.9124 116.881 72.6532V58.722C116.429 58.722 115.397 58.9811 114.945 59.1107C113.977 58.8515 113.525 56.3893 114.235 55.5469C115.009 55.3525 117.785 54.575 122.561 54.575C127.466 54.575 132.178 55.7413 132.178 61.249C132.178 66.7567 127.144 68.9598 123.142 68.9598C122.303 68.571 122.109 65.72 123.142 65.2016C126.111 65.2016 127.983 63.8409 127.983 61.573C127.983 59.4347 126.627 58.2036 122.432 58.2036C121.916 58.2036 121.399 58.2036 121.141 58.2684V72.6532H121.076Z" fill="#0D76BD" style="fill:#0D76BD;fill:color(display-p3 0.0510 0.4627 0.7412);fill-opacity:1;"/>
<path d="M136.373 58.9811C136.373 58.7868 136.309 58.6572 136.051 58.6572H134.502C134.114 58.5924 133.792 57.75 133.792 56.8429C133.792 55.9357 134.05 55.1581 134.502 55.0286H142.44C142.828 55.1581 143.15 56.0005 143.15 56.8429C143.15 57.75 142.828 58.5276 142.44 58.6572H140.891C140.633 58.6572 140.569 58.722 140.569 58.9811V72.5884C140.569 72.7828 140.633 72.9124 140.891 72.9124H142.44C142.828 72.9772 143.15 73.8195 143.15 74.7267C143.15 75.6338 142.892 76.4114 142.44 76.541H134.502C134.114 76.4114 133.792 75.569 133.792 74.7267C133.792 73.8195 134.114 73.042 134.502 72.9124H136.051C136.309 72.9124 136.373 72.8476 136.373 72.5884V58.9811Z" fill="#0D76BD" style="fill:#0D76BD;fill:color(display-p3 0.0510 0.4627 0.7412);fill-opacity:1;"/>
<path d="M166.193 55.9357C166.967 54.5102 167.161 54.4454 168.064 54.6398L169.355 54.899C170.065 55.0285 170.194 55.2229 170.388 56.5837L172.389 72.6532C172.389 72.8476 172.453 72.9772 172.712 72.9772H173.68C174.067 73.042 174.39 73.8843 174.39 74.7915C174.39 75.6986 174.132 76.4762 173.68 76.6058H165.87C165.483 76.4762 165.16 75.6338 165.16 74.7915C165.16 73.8843 165.483 73.1068 165.87 72.9772H167.871C168.129 72.9772 168.194 72.8476 168.194 72.6532L167.096 62.8041H167.032L161.029 74.5323C160.706 75.1155 160.319 75.5691 159.545 75.5691H159.157C158.512 75.5691 157.996 75.1803 157.608 74.5323L151.928 62.8041H151.864L151.025 72.6532C151.025 72.8476 151.089 72.9772 151.348 72.9772H153.026C153.413 73.042 153.736 73.8843 153.736 74.7915C153.736 75.6986 153.478 76.4762 153.026 76.6058H145.474C145.087 76.4762 144.764 75.6338 144.764 74.7915C144.764 73.8843 145.087 73.1068 145.474 72.9772H146.636C146.894 72.9772 146.894 72.8476 146.959 72.6532L148.766 56.7133C148.895 55.4173 149.153 55.1581 149.734 55.0286L151.154 54.7046C152.187 54.4454 152.38 54.6398 153.155 56.0653L159.609 69.1542H159.674L166.193 55.9357Z" fill="#0D76BD" style="fill:#0D76BD;fill:color(display-p3 0.0510 0.4627 0.7412);fill-opacity:1;"/>
<path d="M187.04 58.5276C182.587 58.5276 180.07 61.5082 180.07 65.7848C180.07 69.9318 182.651 73.1068 187.04 73.1068C191.623 73.1068 194.011 69.9966 194.011 65.7848C194.011 61.5082 191.107 58.5276 187.04 58.5276ZM187.04 76.9946C179.618 76.9946 175.745 72.1348 175.745 65.7848C175.745 59.9531 179.682 54.575 187.04 54.575C194.205 54.575 198.336 59.8883 198.336 65.7848C198.336 72.1348 194.205 76.9946 187.04 76.9946Z" fill="#0D76BD" style="fill:#0D76BD;fill:color(display-p3 0.0510 0.4627 0.7412);fill-opacity:1;"/>
<path d="M218.151 61.5082C218.215 60.5363 218.151 59.1107 218.021 58.722C217.828 58.3332 217.312 58.1388 215.698 58.1388C213.568 58.1388 211.761 58.9811 211.761 60.6658C211.761 62.4802 212.858 62.7393 216.602 63.7761C219.764 64.6832 223.185 65.72 223.185 69.9966C223.185 74.5971 219.248 76.9946 214.342 76.9946C211.89 76.9946 209.502 76.4114 207.953 75.0507C206.984 74.2083 206.855 73.7548 206.855 72.8476C206.855 71.3573 207.114 69.3486 207.436 68.5062C208.404 67.7935 210.728 68.0527 211.373 69.3486C211.18 70.3853 210.986 71.4221 210.986 71.8756C210.986 72.2644 211.18 72.4588 211.373 72.5884C211.89 72.9124 212.923 73.4308 214.794 73.4308C217.118 73.4308 218.925 72.5236 218.925 70.6445C218.925 68.7006 217.312 68.0527 213.762 67.1455C209.502 66.1088 207.501 64.2945 207.501 60.925C207.501 56.8429 210.986 54.575 216.343 54.575C218.796 54.575 220.926 55.0286 221.571 55.8061C222.217 56.6485 222.41 60.4067 222.217 61.5082C221.507 62.3506 218.667 62.3506 218.151 61.5082Z" fill="#99DAEE" style="fill:#99DAEE;fill:color(display-p3 0.6000 0.8549 0.9333);fill-opacity:1;"/>
<path d="M232.221 63.3873C232.221 63.5817 232.286 63.7113 232.544 63.7113H238.095C238.482 64.0353 238.676 64.748 238.676 65.5256C238.676 66.3679 238.417 66.9511 238.095 67.3399H232.544C232.286 67.3399 232.221 67.4047 232.221 67.6639V72.7828C234.222 72.7828 236.675 72.9772 237.643 72.9772C238.805 72.9772 239.063 72.6532 239.063 71.6165C239.063 70.7093 238.934 69.7374 238.869 69.219C238.998 68.247 241.967 67.6639 242.742 68.7654C242.806 69.3486 243 70.5149 243 72.0052C243 74.9211 242.677 76.6058 239.837 76.6058C237.449 76.6058 232.931 76.3466 230.285 76.3466C228.349 76.3466 226.477 76.4762 225.831 76.6058C224.928 76.217 224.54 73.8843 225.315 73.1068C225.896 72.9124 227.38 72.7828 228.026 72.7828V58.9811C228.026 58.7868 227.961 58.6572 227.703 58.6572H226.154C225.767 58.5924 225.444 57.75 225.444 56.8429C225.444 55.9357 225.702 55.1581 226.154 55.0286H240.096C241.774 55.0286 242.096 55.2877 242.225 56.9076C242.29 58.1388 242.29 60.2771 242.225 61.573C241.515 62.4802 238.934 62.4802 238.353 61.573C238.353 61.1194 238.417 60.0827 238.353 59.5643C238.353 59.1107 238.288 58.6572 237.578 58.6572H232.221V63.3873Z" fill="#99DAEE" style="fill:#99DAEE;fill:color(display-p3 0.6000 0.8549 0.9333);fill-opacity:1;"/>
</svg>
