<svg width="105" height="15" viewBox="0 0 105 15" fill="none" xmlns="http://www.w3.org/2000/svg">
<path d="M8.73013 9.91159C8.54924 10.4232 8.26767 10.8936 7.90195 11.2953C7.55809 11.69 7.12974 12.0027 6.6485 12.2103C6.155 12.4405 5.61522 12.555 5.07049 12.5451C4.50761 12.5554 3.95066 12.429 3.44771 12.1768C3.01216 11.9798 2.64575 11.6572 2.3957 11.2506V15H0.000710768V7.78026C-0.0101864 7.20106 0.104333 6.62634 0.336458 6.09528C0.549843 5.60548 0.862253 5.16483 1.25417 4.80086C1.65539 4.41774 2.12645 4.11472 2.64192 3.90816C3.21107 3.69694 3.8141 3.59106 4.42138 3.59571C5.05275 3.58823 5.67967 3.70188 6.26798 3.93048C6.81045 4.14882 7.30474 4.47106 7.72289 4.87897C8.12411 5.29349 8.43973 5.78259 8.65179 6.31846C8.89034 6.89955 9.01568 7.52064 9.02111 8.1485C9.03208 8.74892 8.93348 9.34633 8.73013 9.91159ZM6.34633 7.15537C6.24892 6.89609 6.10898 6.65475 5.93224 6.44121C5.75223 6.24507 5.53553 6.08586 5.29432 5.97254C5.04395 5.86248 4.77334 5.80564 4.49972 5.80564C4.2261 5.80564 3.95548 5.86248 3.70512 5.97254C3.45658 6.07885 3.23486 6.23894 3.05601 6.44121C2.88325 6.65748 2.74369 6.89817 2.64192 7.15537C2.53921 7.44961 2.48627 7.75883 2.48524 8.07039C2.48248 8.38226 2.53553 8.69212 2.64192 8.98541C2.7254 9.25102 2.86681 9.49491 3.05601 9.69957C3.22339 9.90449 3.43857 10.0654 3.68273 10.1682C3.93609 10.2813 4.21097 10.3384 4.48853 10.3356C4.76626 10.3402 5.04153 10.283 5.29432 10.1682C5.53998 10.0625 5.75816 9.90219 5.93224 9.69957C6.11134 9.48767 6.25152 9.24591 6.34633 8.98541C6.45808 8.69356 6.51131 8.38268 6.50301 8.07039C6.5075 7.75838 6.45439 7.44821 6.34633 7.15537Z" fill="#E61C4A" style="fill:#E61C4A;fill:color(display-p3 0.9020 0.1098 0.2902);fill-opacity:1;"/>
<path d="M14.5609 5.81631C14.3167 5.80858 14.0734 5.84896 13.8449 5.93512C13.6163 6.02129 13.4071 6.15155 13.2291 6.31846C13.0575 6.48646 12.923 6.68842 12.8343 6.91135C12.7457 7.13428 12.7048 7.37325 12.7143 7.61288V12.4H10.1962V7.4455C10.1903 6.91831 10.3011 6.3963 10.5208 5.91674C10.7321 5.4542 11.0369 5.04013 11.4161 4.70043C11.8272 4.35543 12.2973 4.08706 12.8039 3.90816C13.3671 3.70625 13.9625 3.60795 14.5609 3.61803H15.6129V5.84979L14.5609 5.81631Z" fill="#E61C4A" style="fill:#E61C4A;fill:color(display-p3 0.9020 0.1098 0.2902);fill-opacity:1;"/>
<path d="M16.7321 6.27382C16.9504 5.73975 17.2782 5.25704 17.6946 4.85666C18.1171 4.45979 18.6106 4.14561 19.1495 3.93048C20.3514 3.48409 21.6743 3.48409 22.8763 3.93048C23.4107 4.14776 23.9002 4.46178 24.32 4.85666C24.7363 5.25704 25.0641 5.73975 25.2824 6.27382C25.5107 6.84515 25.6247 7.45544 25.6182 8.07039C25.6256 8.68541 25.5115 9.29587 25.2824 9.86695C25.0668 10.4025 24.7386 10.8857 24.32 11.2841C23.8966 11.6853 23.3985 11.9999 22.8539 12.2103C21.652 12.6567 20.329 12.6567 19.1271 12.2103C18.5865 11.9986 18.0923 11.684 17.6722 11.2841C17.2535 10.8857 16.9253 10.4025 16.7097 9.86695C16.2322 8.71656 16.2322 7.42421 16.7097 6.27382H16.7321ZM19.0823 8.98541C19.1723 9.25055 19.3172 9.49386 19.5076 9.69957C19.6918 9.90577 19.9217 10.0662 20.1791 10.1682C20.4451 10.2787 20.7303 10.3356 21.0185 10.3356C21.3066 10.3356 21.5919 10.2787 21.8578 10.1682C22.1085 10.0658 22.3311 9.90511 22.5069 9.69957C22.7031 9.48992 22.8553 9.24333 22.9546 8.97425C23.0644 8.68574 23.1176 8.3789 23.1113 8.07039C23.1158 7.75838 23.0627 7.44821 22.9546 7.15537C22.8499 6.89231 22.6982 6.65035 22.5069 6.44121C22.3249 6.24252 22.104 6.08303 21.8578 5.97254C21.5919 5.86204 21.3066 5.80515 21.0185 5.80515C20.7303 5.80515 20.4451 5.86204 20.1791 5.97254C19.9262 6.08258 19.6979 6.24192 19.5076 6.44121C19.3195 6.64862 19.1749 6.89143 19.0823 7.15537C18.9707 7.44757 18.9138 7.75771 18.9144 8.07039C18.9097 8.38342 18.9667 8.69432 19.0823 8.98541Z" fill="#E61C4A" style="fill:#E61C4A;fill:color(display-p3 0.9020 0.1098 0.2902);fill-opacity:1;"/>
<path d="M28.0691 12.3442C27.4914 12.2312 26.9308 12.0436 26.4016 11.7863L26.9388 9.81116L27.6886 10.1013C27.946 10.1906 28.2258 10.2687 28.4944 10.3356C28.7589 10.4071 29.0282 10.4593 29.3002 10.4918C29.5293 10.5332 29.7613 10.5556 29.9941 10.5588C30.3166 10.5734 30.6361 10.4918 30.9118 10.3245C31.007 10.271 31.0862 10.1932 31.1413 10.099C31.1964 10.0049 31.2253 9.89782 31.2252 9.78884C31.2222 9.71894 31.2036 9.65058 31.1706 9.58879C31.1377 9.527 31.0913 9.47335 31.0349 9.43176C30.8973 9.30998 30.7378 9.21531 30.5649 9.15279C30.3634 9.07468 30.1508 8.98541 29.9046 8.9073C29.6583 8.82919 29.4233 8.76223 29.1659 8.6618C28.5033 8.4711 27.8916 8.13565 27.3753 7.67983C27.1611 7.49178 26.9903 7.25981 26.8744 6.9998C26.7585 6.7398 26.7003 6.4579 26.7038 6.17339C26.6964 5.80319 26.7816 5.43699 26.9516 5.10777C27.1215 4.77856 27.371 4.49669 27.6774 4.28756C28.4581 3.78423 29.3793 3.54191 30.3075 3.59571C30.9288 3.58941 31.5487 3.65684 32.1541 3.79657C32.6916 3.91822 33.2108 4.10955 33.6985 4.36567L32.9711 6.21803C32.5595 6.02981 32.1327 5.87676 31.6952 5.76052C31.2933 5.65581 30.8795 5.6033 30.4641 5.6043C30.15 5.59746 29.8378 5.65441 29.5464 5.77168C29.4485 5.81006 29.3638 5.8757 29.3023 5.96077C29.2408 6.04585 29.2051 6.14677 29.1995 6.25151C29.2016 6.30583 29.2157 6.35902 29.2409 6.40725C29.266 6.45549 29.3016 6.49757 29.345 6.53048C29.4599 6.63484 29.5925 6.71797 29.7367 6.77597C29.8822 6.85408 30.0724 6.93219 30.2627 7.0103L30.8558 7.22232C31.6411 7.4424 32.3804 7.80147 33.0382 8.28241C33.2682 8.46885 33.4515 8.706 33.5739 8.97517C33.6963 9.24434 33.7542 9.53816 33.7433 9.83348C33.756 10.2228 33.6632 10.6083 33.4747 10.9494C33.2826 11.2881 33.0192 11.5813 32.7025 11.8086C32.3403 12.0581 31.9396 12.2466 31.5161 12.3665C31.0099 12.5086 30.4864 12.5799 29.9605 12.5785C29.3231 12.5742 28.6883 12.4955 28.0691 12.3442Z" fill="#151515" style="fill:#151515;fill:color(display-p3 0.0824 0.0824 0.0824);fill-opacity:1;"/>
<path d="M37.582 12.2103C37.0588 12.0299 36.576 11.7494 36.1606 11.3846C35.765 11.0433 35.4481 10.6208 35.2317 10.1459C34.9996 9.64243 34.8849 9.09308 34.896 8.53906V1.66524H37.4141V3.75194H39.9882V5.84979H37.4141V8.37168C37.4093 8.63555 37.4588 8.8976 37.5596 9.14163C37.6468 9.37009 37.7845 9.57603 37.9625 9.74421C38.1426 9.91822 38.3557 10.0548 38.5892 10.1459C38.8334 10.2483 39.0966 10.2977 39.3614 10.291H40.156V12.5227H39.3614C38.7542 12.5274 38.1511 12.4215 37.582 12.2103Z" fill="#151515" style="fill:#151515;fill:color(display-p3 0.0824 0.0824 0.0824);fill-opacity:1;"/>
<path d="M49.8032 10.079C49.587 10.5733 49.2707 11.0178 48.8743 11.3846C48.4642 11.759 47.9854 12.0508 47.4641 12.2438C46.8982 12.4513 46.2988 12.5534 45.6959 12.5451C45.0893 12.5533 44.4863 12.4512 43.9164 12.2438C43.3913 12.0588 42.9109 11.7661 42.5063 11.3846C42.1098 11.0202 41.7967 10.5749 41.5886 10.079C41.3617 9.56197 41.2473 9.00292 41.2528 8.43863V3.75194H43.7709V8.39399C43.7518 8.65401 43.788 8.91512 43.877 9.16024C43.9661 9.40537 44.1061 9.62898 44.2878 9.81647C44.4695 10.004 44.6888 10.1511 44.9314 10.2482C45.1741 10.3454 45.4346 10.3904 45.6959 10.3803C45.9501 10.3917 46.2039 10.3499 46.441 10.2576C46.678 10.1654 46.8931 10.0247 47.0724 9.84464C47.252 9.66051 47.3922 9.44193 47.4845 9.20217C47.5769 8.9624 47.6194 8.70644 47.6096 8.44979V3.75194H50.1277V8.43863C50.1316 9.00164 50.0212 9.55962 49.8032 10.079Z" fill="#151515" style="fill:#151515;fill:color(display-p3 0.0824 0.0824 0.0824);fill-opacity:1;"/>
<path d="M51.5938 6.25151C51.7708 5.72041 52.0481 5.228 52.4108 4.80086C52.7689 4.4219 53.1938 4.11175 53.6642 3.88584C54.1637 3.66184 54.7058 3.54767 55.2534 3.55108C55.8146 3.54485 56.3698 3.66701 56.8762 3.90816C57.3105 4.13149 57.6659 4.48194 57.8947 4.91245V0.906443H60.312V8.36052C60.318 8.93456 60.2076 9.50388 59.9875 10.0343C59.7766 10.5456 59.462 11.0078 59.0633 11.3918C58.6646 11.7759 58.1905 12.0736 57.6708 12.2661C57.0988 12.4809 56.4914 12.5869 55.8802 12.5785C55.2482 12.5814 54.6214 12.464 54.0336 12.2326C53.4871 12.0156 52.9889 11.6933 52.5675 11.2841C52.1542 10.8814 51.8335 10.3941 51.6274 9.8558C51.3866 9.27577 51.2648 8.6535 51.2693 8.02575C51.2669 7.41945 51.3769 6.81794 51.5938 6.25151ZM53.9776 8.97425C54.0653 9.239 54.2019 9.48502 54.3805 9.69957C54.5517 9.91003 54.7757 10.0717 55.0296 10.1682C55.2751 10.2812 55.5427 10.3384 55.813 10.3356C56.0942 10.3383 56.3727 10.2812 56.63 10.1682C56.8742 10.0654 57.0893 9.90449 57.2567 9.69957C57.4323 9.48709 57.5687 9.24531 57.6596 8.98541C57.7714 8.69356 57.8246 8.38268 57.8163 8.07039C57.8198 7.76026 57.7745 7.45151 57.682 7.15537C57.5802 6.89817 57.4407 6.65748 57.2679 6.44121C57.0879 6.24507 56.8712 6.08586 56.63 5.97254C56.3711 5.86462 56.0936 5.80778 55.813 5.80515C55.5432 5.80778 55.2768 5.86471 55.0296 5.97254C54.7801 6.07717 54.558 6.23751 54.3805 6.44121C54.2072 6.65519 54.071 6.89658 53.9776 7.15537C53.8695 7.44822 53.8164 7.75838 53.8209 8.07039C53.8146 8.3789 53.8678 8.68574 53.9776 8.97425Z" fill="#151515" style="fill:#151515;fill:color(display-p3 0.0824 0.0824 0.0824);fill-opacity:1;"/>
<path d="M65.8742 6.27382C66.1001 5.74104 66.4312 5.25907 66.8479 4.85666C67.2763 4.46189 67.773 4.14806 68.314 3.93048C69.5159 3.48409 70.8389 3.48409 72.0408 3.93048C72.5817 4.14806 73.0785 4.46189 73.5069 4.85666C73.9196 5.2601 74.2468 5.742 74.4694 6.27382C74.6976 6.84515 74.8116 7.45544 74.8051 8.07039C74.8125 8.68541 74.6984 9.29587 74.4694 9.86695C74.2496 10.4003 73.922 10.8827 73.5069 11.2841C73.0814 11.6826 72.5839 11.9969 72.0408 12.2103C70.8389 12.6567 69.5159 12.6567 68.314 12.2103C67.7709 11.9969 67.2734 11.6826 66.8479 11.2841C66.4328 10.8827 66.1052 10.4003 65.8854 9.86695C65.4233 8.71356 65.4233 7.42722 65.8854 6.27382H65.8742ZM68.2245 8.98541C68.3235 9.24876 68.4716 9.49107 68.6609 9.69957C68.8431 9.90803 69.0736 10.0689 69.3324 10.1682C69.6041 10.3025 69.9022 10.3749 70.2054 10.3803C70.4937 10.3818 70.7792 10.3248 71.0447 10.2129C71.2955 10.1104 71.518 9.94975 71.6939 9.74421C71.89 9.53456 72.0422 9.28796 72.1415 9.01889C72.2423 8.72832 72.2916 8.42245 72.287 8.11502C72.2898 7.80408 72.2406 7.49484 72.1415 7.2C72.0368 6.93695 71.8851 6.69499 71.6939 6.48584C71.5118 6.28715 71.2909 6.12767 71.0447 6.01717C70.7806 5.89503 70.496 5.82312 70.2054 5.80515C69.9174 5.80659 69.6324 5.86342 69.366 5.97254C69.1115 6.07979 68.8827 6.23951 68.6945 6.44121C68.5067 6.6508 68.3587 6.89282 68.258 7.15537C68.1517 7.44902 68.095 7.75822 68.0902 8.07039C68.0802 8.38092 68.1257 8.69074 68.2245 8.98541Z" fill="#151515" style="fill:#151515;fill:color(display-p3 0.0824 0.0824 0.0824);fill-opacity:1;"/>
<path d="M75.8012 10.6034C75.874 10.4376 75.9763 10.2864 76.1033 10.1571C76.2345 10.0352 76.386 9.93702 76.551 9.86695C76.724 9.79322 76.9114 9.75891 77.0994 9.76653C77.2833 9.7603 77.4665 9.79184 77.6377 9.85917C77.8089 9.92651 77.9644 10.0282 78.0946 10.158C78.2247 10.2877 78.3267 10.4427 78.3942 10.6134C78.4617 10.7841 78.4934 10.9668 78.4871 11.1502C78.4921 11.3318 78.4599 11.5125 78.3925 11.6814C78.3252 11.8502 78.2241 12.0036 78.0954 12.1322C77.9691 12.2656 77.8167 12.3719 77.6478 12.4446C77.2878 12.5841 76.8885 12.5841 76.5286 12.4446C76.3582 12.3746 76.2053 12.2679 76.0809 12.1322C75.952 12.0088 75.8492 11.8608 75.7788 11.697C75.7059 11.5242 75.6715 11.3376 75.678 11.1502C75.6774 10.9611 75.7195 10.7742 75.8012 10.6034Z" fill="#E61C4A" style="fill:#E61C4A;fill:color(display-p3 0.9020 0.1098 0.2902);fill-opacity:1;"/>
<path d="M92.208 7.7691C92.2293 7.24969 92.0489 6.7421 91.7044 6.35193C91.5378 6.17676 91.3362 6.03852 91.1125 5.94624C90.8888 5.85395 90.6481 5.80968 90.4062 5.81631C90.1531 5.81925 89.9028 5.86842 89.6675 5.96138C89.4561 6.06263 89.2632 6.19841 89.0967 6.36309C88.9303 6.54047 88.801 6.7491 88.7162 6.97683C88.6155 7.22867 88.566 7.498 88.5707 7.7691V12.4H86.1646V7.7691C86.1858 7.24969 86.0055 6.7421 85.6609 6.35193C85.4914 6.17756 85.2876 6.03997 85.0623 5.9478C84.837 5.85563 84.595 5.81087 84.3515 5.81631C84.1095 5.80968 83.8689 5.85395 83.6452 5.94624C83.4215 6.03852 83.2198 6.17676 83.0533 6.35193C82.8731 6.5402 82.7326 6.76267 82.6404 7.00612C82.5481 7.24957 82.5058 7.50904 82.5161 7.7691V12.4H80.0092V7.71331C80.0044 7.14299 80.1148 6.57755 80.3337 6.05065C80.534 5.58338 80.8228 5.15903 81.1843 4.80086C81.558 4.4104 82.0124 4.10577 82.5161 3.90816C83.0434 3.70037 83.6055 3.59434 84.1725 3.59571C84.8118 3.58814 85.4441 3.72952 86.0191 4.00859C86.5556 4.26868 87.0233 4.65092 87.3844 5.12447C87.7389 4.64901 88.2035 4.26616 88.7386 4.00859C89.318 3.73091 89.9536 3.58966 90.5964 3.59571C91.1671 3.59292 91.7332 3.69897 92.2639 3.90816C92.7529 4.1089 93.1921 4.41355 93.551 4.80086C93.9205 5.17414 94.2166 5.6132 94.4239 6.09528C94.6248 6.62667 94.7272 7.19005 94.7261 7.75794V12.4446H92.208V7.7691Z" fill="#151515" style="fill:#151515;fill:color(display-p3 0.0824 0.0824 0.0824);fill-opacity:1;"/>
<path d="M104.217 10.6927C103.947 11.0734 103.613 11.4055 103.232 11.6747C102.835 11.9561 102.397 12.1745 101.933 12.3219C101.432 12.4701 100.912 12.5452 100.389 12.5451C99.7717 12.5586 99.1582 12.4446 98.5872 12.2103C98.0577 11.9963 97.575 11.6817 97.1658 11.2841C96.7684 10.8751 96.4531 10.3941 96.2369 9.86695C96.0232 9.29281 95.9243 8.68245 95.946 8.07039C95.9394 7.45544 96.0535 6.84515 96.2817 6.27382C96.5005 5.74805 96.8155 5.26748 97.2106 4.85666C97.6226 4.46266 98.1046 4.14858 98.6319 3.93048C99.8221 3.46235 101.146 3.46235 102.336 3.93048C102.888 4.17215 103.38 4.52999 103.78 4.9794C104.181 5.44509 104.489 5.98294 104.687 6.56395C104.897 7.22031 105.003 7.90568 105 8.59485H98.4529C98.5074 9.12345 98.7448 9.61663 99.1244 9.9897C99.4873 10.3393 99.974 10.5318 100.479 10.5253C100.897 10.5265 101.309 10.4229 101.676 10.224C102.003 10.0529 102.263 9.77805 102.415 9.44292H104.81C104.698 9.89487 104.496 10.3198 104.217 10.6927ZM101.766 6.00601C101.399 5.71985 100.944 5.56992 100.479 5.58198C100.014 5.5679 99.561 5.72258 99.2027 6.01717C98.8363 6.33892 98.5915 6.77603 98.5088 7.2558H102.482C102.397 6.76867 102.143 6.32658 101.766 6.00601Z" fill="#151515" style="fill:#151515;fill:color(display-p3 0.0824 0.0824 0.0824);fill-opacity:1;"/>
<path d="M62.1363 2.23434C62.2526 2.35322 62.3941 2.44472 62.5503 2.50215C62.7072 2.57795 62.8797 2.61616 63.054 2.61374C63.2318 2.61549 63.4077 2.57735 63.5688 2.50215C63.7232 2.44113 63.864 2.35009 63.9829 2.23434C64.0977 2.10428 64.1921 1.95753 64.2627 1.79915C64.3378 1.64278 64.3724 1.47014 64.3634 1.297C64.369 1.12052 64.3346 0.945045 64.2627 0.783696C64.192 0.621947 64.0977 0.471529 63.9829 0.337345C63.8582 0.229093 63.7188 0.138933 63.5688 0.0695335C63.403 0.0145919 63.2283 -0.00813652 63.054 0.00258077C62.881 0.00135871 62.7096 0.0355399 62.5503 0.10301C62.3975 0.167105 62.2573 0.257786 62.1363 0.370821C62.017 0.491425 61.9187 0.63095 61.8453 0.783696C61.7733 0.945045 61.7389 1.12052 61.7446 1.297C61.7355 1.47014 61.7702 1.64278 61.8453 1.79915C61.9157 1.96024 62.0142 2.10759 62.1363 2.23434Z" fill="#151515" style="fill:#151515;fill:color(display-p3 0.0824 0.0824 0.0824);fill-opacity:1;"/>
<path d="M61.8229 7.8249L64.2962 5.09099V3.74078H61.8229V7.8249Z" fill="#151515" style="fill:#151515;fill:color(display-p3 0.0824 0.0824 0.0824);fill-opacity:1;"/>
<path d="M61.8229 10.6258V12.3888H64.2962V7.89185L61.8229 10.6258Z" fill="#151515" style="fill:#151515;fill:color(display-p3 0.0824 0.0824 0.0824);fill-opacity:1;"/>
</svg>
